<svg xmlns="http://www.w3.org/2000/svg" width="109" height="44" viewBox="0 0 109 44">
    <g fill="none" fill-rule="evenodd">
        <g>
            <g>
                <g>
                    <path fill="#F5C518" d="M86.123 0c12.15 0 22 9.85 22 22s-9.85 22-22 22-22-9.85-22-22 9.85-22 22-22zm.5 8c-8.008 0-14.5 6.492-14.5 14.5S78.615 37 86.623 37s14.5-6.492 14.5-14.5S94.631 8 86.623 8z" transform="translate(-390 -22) translate(390) translate(0 22)"/>
                    <path fill="#FFF" d="M86.623 8c8.008 0 14.5 6.492 14.5 14.5S94.631 37 86.623 37s-14.5-6.492-14.5-14.5S78.615 8 86.623 8zm0 6c-4.694 0-8.5 3.806-8.5 8.5s3.806 8.5 8.5 8.5 8.5-3.806 8.5-8.5-3.806-8.5-8.5-8.5z" transform="translate(-390 -22) translate(390) translate(0 22)"/>
                    <path fill="#FFF" fill-rule="nonzero" d="M6.118 32L6.118 25.274 9.69 21.55 18.202 32 25.384 32 13.718 17.256 24.738 5.4 17.898 5.4 6.118 17.826 6.118 5.4 0 5.4 0 32zM31.286 8.706c1.09 0 1.976-.323 2.66-.969.684-.646 1.026-1.463 1.026-2.451 0-.912-.342-1.672-1.026-2.28-.684-.608-1.57-.912-2.66-.912s-1.976.317-2.66.95C27.942 3.677 27.6 4.463 27.6 5.4c0 .937.342 1.723 1.026 2.356.684.633 1.57.95 2.66.95zM34.25 32L34.25 11.556 28.322 11.556 28.322 32zM44.688 32V21.892c0-1.824.443-3.198 1.33-4.123.887-.925 2.077-1.387 3.572-1.387 1.343 0 2.369.399 3.078 1.197.71.798 1.064 2.008 1.064 3.629V32h5.928V20.296c0-2.99-.779-5.244-2.337-6.764-1.558-1.52-3.604-2.28-6.137-2.28-1.393 0-2.673.234-3.838.703s-2.14 1.134-2.926 1.995v-2.394H38.76V32h5.928z" transform="translate(-390 -22) translate(390) translate(0 22)"/>
                </g>
            </g>
        </g>
    </g>
</svg>
