<svg xmlns="http://www.w3.org/2000/svg" xmlns:xlink="http://www.w3.org/1999/xlink" width="549" height="549" viewBox="0 0 549 549">
    <defs>
        <path id="n56nv5cgua" d="M0.568 0H377.568V298H0.568z"/>
    </defs>
    <g fill="none" fill-rule="evenodd">
        <g>
            <g transform="translate(-786 -168) translate(786 168)">
                <circle cx="274.5" cy="274.5" r="274.5" fill="#000" opacity=".324"/>
                <g transform="translate(50.432 32)">
                    <mask id="wh27ca7l1b" fill="#fff">
                        <use xlink:href="#n56nv5cgua"/>
                    </mask>
                    <g mask="url(#wh27ca7l1b)">
                        <g fill-rule="nonzero">
                            <g>
                                <path fill="#F5C518" d="M255.497 1.24L72.571 110.545l.525.839c1.852 3.016 1.94 6.8.226 9.903-1.713 3.102-4.962 5.044-8.506 5.083-3.544.038-6.835-1.832-8.615-4.896l-.522-.835L4.27 151.347c-4.155 2.489-5.51 7.87-3.031 12.03l11.776 19.709.717-.205c19.823-5.602 40.57 2.054 50.461 18.608 9.889 16.55 6.8 38.451-7.519 53.257l-.523.523 11.779 19.71c2.488 4.156 7.871 5.513 12.032 3.034l51.417-30.714-.497-.833c-2.756-4.66-1.226-10.674 3.423-13.453 4.566-2.729 10.456-1.33 13.318 3.114l.67 1.073 182.908-109.292c4.151-2.493 5.5-7.874 3.018-12.03L322.18 95.724l-.695.168c-19.45 4.686-38.983-2.996-48.596-19.098-9.616-16.107-7.131-36.94 6.205-51.842l.481-.523L267.53 4.27c-2.49-4.154-7.872-5.51-12.033-3.03zm11.175 3.544l11.66 19.517.02-.02c-13.626 15.226-16.168 36.535-6.323 53.026l.299.492c9.843 15.986 29.324 23.648 48.794 19.205l.576-.135 11.664 19.521.13.227c2.02 3.65.798 8.27-2.803 10.434L148.623 235.839l.006.01c-3.081-5.101-9.714-6.755-14.836-3.694l-.257.159c-4.836 3.072-6.443 9.391-3.663 14.4l.136.239-50.558 30.201-.227.13c-3.654 2.017-8.275.79-10.435-2.818l-11.38-19.041-.02.022c14.63-15.13 17.79-37.524 7.664-54.47l-.307-.506c-10.142-16.433-30.816-24.063-50.678-18.72l-.588.162-11.381-19.048-.13-.227c-2.017-3.652-.791-8.273 2.815-10.433L55.35 122l-.006-.01c1.954 3.362 5.579 5.422 9.483 5.38 3.904-.043 7.483-2.182 9.37-5.6l.167-.312c1.66-3.252 1.57-7.124-.238-10.296l-.167-.281L256.009 2.099c3.612-2.153 8.263-1.044 10.525 2.463l.138.222z" transform="translate(-10 .396) rotate(30 44.479 268.472)"/>
                                <path fill="#000" d="M330.946 127.48L148.459 236.52l-.254-.406c-2.943-4.872-9.27-6.45-14.155-3.53-4.886 2.92-6.493 9.24-3.596 14.139l.24.403-50.987 30.457c-3.924 2.339-9 1.059-11.347-2.86L56.78 255.347l.254-.254c14.467-14.959 17.599-37.106 7.589-53.86-10.01-16.754-30.993-24.495-51.028-18.832l-.348.099L1.669 163.12c-2.338-3.922-1.06-8.998 2.858-11.345l50.988-30.457.253.406c1.872 3.22 5.33 5.185 9.054 5.145 3.723-.041 7.138-2.081 8.938-5.341 1.8-3.26 1.709-7.237-.24-10.41l-.254-.406L255.753 1.67c3.924-2.34 9-1.06 11.348 2.857l11.853 19.838-.234.254c-13.482 15.066-15.99 36.137-6.261 52.431 9.728 16.295 29.484 24.064 49.142 19.328l.337-.082 11.853 19.838c2.34 3.92 1.068 8.994-2.845 11.345z" transform="translate(-10 .396) rotate(30 44.479 268.472)"/>
                                <path stroke="#F5C518" d="M131.781 228.784c-1.128.674-2.55.603-3.605-.181-1.055-.784-1.533-2.127-1.213-3.401.321-1.274 1.378-2.23 2.679-2.42 1.3-.192 2.587.42 3.26 1.547.918 1.54.416 3.532-1.121 4.455h0z" transform="translate(-10 .396) rotate(30 44.479 268.472)"/>
                                <path stroke="#F5C518" d="M128.933 224.02c-1.09.652-1.446 2.066-.794 3.157.653 1.091 2.066 1.447 3.157.794 1.091-.652 1.447-2.066.795-3.157-.654-1.09-2.066-1.445-3.158-.794h0zM127.41 221.482c-1.127.674-2.55.603-3.605-.181-1.055-.784-1.533-2.127-1.212-3.401.32-1.274 1.378-2.23 2.678-2.42 1.3-.192 2.587.42 3.261 1.547.918 1.539.418 3.53-1.116 4.452l-.006.003z" transform="translate(-10 .396) rotate(30 44.479 268.472)"/>
                                <path stroke="#F5C518" d="M124.563 216.718c-1.091.652-1.447 2.066-.794 3.157.652 1.091 2.065 1.447 3.157.794 1.09-.652 1.447-2.066.794-3.157-.651-1.089-2.061-1.445-3.152-.797l-.005.003zM123.04 214.18c-1.128.674-2.551.603-3.606-.181-1.054-.785-1.533-2.127-1.212-3.401.321-1.274 1.378-2.23 2.679-2.42 1.3-.192 2.587.42 3.26 1.547.916 1.536.42 3.523-1.11 4.447l-.011.008z" transform="translate(-10 .396) rotate(30 44.479 268.472)"/>
                                <path stroke="#F5C518" d="M120.192 209.416c-1.091.652-1.448 2.065-.796 3.156.652 1.092 2.065 1.448 3.156.797 1.092-.652 1.449-2.065.798-3.156-.65-1.087-2.056-1.446-3.148-.805l-.01.008zM118.67 206.878c-1.129.674-2.552.603-3.606-.182-1.055-.784-1.533-2.126-1.212-3.4.32-1.274 1.378-2.23 2.678-2.42 1.3-.192 2.587.42 3.261 1.547.913 1.535.42 3.517-1.106 4.445l-.016.01z" transform="translate(-10 .396) rotate(30 44.479 268.472)"/>
                                <path stroke="#F5C518" d="M115.84 202.098c-.8.478-1.234 1.39-1.099 2.311.136.922.813 1.671 1.716 1.899.903.227 1.854-.112 2.41-.86.555-.747.606-1.756.127-2.555-.653-1.089-2.064-1.444-3.155-.795zM114.317 199.56c-1.54.919-3.532.416-4.451-1.122-.92-1.539-.417-3.531 1.121-4.451 1.538-.92 3.531-.419 4.451 1.12.918 1.539.417 3.53-1.119 4.453h-.002z" transform="translate(-10 .396) rotate(30 44.479 268.472)"/>
                                <path stroke="#F5C518" d="M111.471 194.796c-.8.478-1.233 1.39-1.098 2.311.136.922.813 1.671 1.716 1.899.903.227 1.854-.112 2.41-.86.555-.747.606-1.756.127-2.555-.653-1.087-2.063-1.442-3.152-.792l-.003-.003zM109.949 192.258c-1.54.919-3.532.416-4.451-1.122-.92-1.539-.417-3.531 1.121-4.451 1.538-.92 3.531-.419 4.451 1.12.92 1.537.42 3.529-1.116 4.45l-.005.003z" transform="translate(-10 .396) rotate(30 44.479 268.472)"/>
                                <path stroke="#F5C518" d="M107.103 187.494c-1.091.652-1.447 2.065-.796 3.157.652 1.091 2.065 1.448 3.157.797 1.091-.652 1.448-2.065.797-3.157-.652-1.088-2.06-1.446-3.153-.8l-.005.003zM105.58 184.956c-1.539.919-3.53.416-4.45-1.122-.92-1.539-.417-3.531 1.121-4.451 1.538-.92 3.531-.419 4.451 1.119.918 1.537.42 3.526-1.114 4.45l-.007.004z" transform="translate(-10 .396) rotate(30 44.479 268.472)"/>
                                <path stroke="#F5C518" d="M102.735 180.192c-1.09.653-1.446 2.066-.794 3.158.653 1.09 2.066 1.446 3.157.794 1.091-.653 1.447-2.066.795-3.157-.652-1.088-2.059-1.445-3.15-.8l-.008.005zM101.213 177.654c-1.54.918-3.532.414-4.45-1.125-.918-1.54-.416-3.531 1.123-4.45 1.539-.92 3.531-.417 4.45 1.121.915 1.536.418 3.523-1.113 4.447l-.01.007z" transform="translate(-10 .396) rotate(30 44.479 268.472)"/>
                                <path stroke="#F5C518" d="M98.367 172.89c-1.09.653-1.446 2.066-.794 3.158.653 1.09 2.066 1.446 3.157.794 1.091-.653 1.447-2.066.795-3.157-.65-1.087-2.056-1.445-3.148-.802l-.01.007zM96.844 170.352c-1.54.919-3.532.415-4.45-1.124-.919-1.54-.415-3.532 1.124-4.451 1.54-.919 3.532-.416 4.45 1.124.912 1.533.416 3.515-1.11 4.439l-.014.012z" transform="translate(-10 .396) rotate(30 44.479 268.472)"/>
                                <path stroke="#F5C518" d="M94.012 165.576c-1.091.651-1.448 2.065-.796 3.156.652 1.092 2.065 1.448 3.156.797 1.092-.652 1.449-2.065.797-3.156-.652-1.091-2.065-1.448-3.157-.797zM92.49 163.038c-1.129.674-2.552.602-3.606-.182-1.055-.784-1.533-2.126-1.212-3.4.32-1.274 1.378-2.23 2.678-2.421 1.3-.191 2.587.42 3.261 1.548.917 1.538.418 3.529-1.117 4.452l-.005.003z" transform="translate(-10 .396) rotate(30 44.479 268.472)"/>
                                <path stroke="#F5C518" d="M89.641 158.274c-1.09.652-1.446 2.066-.794 3.157.653 1.09 2.066 1.447 3.157.794 1.091-.652 1.447-2.066.795-3.157-.653-1.088-2.061-1.444-3.152-.797l-.006.003zM88.119 155.736c-1.128.674-2.551.602-3.606-.182-1.055-.784-1.533-2.126-1.212-3.4.321-1.275 1.378-2.23 2.678-2.421 1.3-.191 2.588.42 3.261 1.548.916 1.537.42 3.524-1.111 4.45l-.01.005z" transform="translate(-10 .396) rotate(30 44.479 268.472)"/>
                                <path stroke="#F5C518" d="M85.27 150.972c-1.09.652-1.446 2.066-.793 3.157.652 1.09 2.066 1.446 3.157.794 1.09-.652 1.447-2.066.794-3.157-.651-1.086-2.056-1.443-3.147-.8l-.01.006zM83.748 148.434c-1.542.91-3.53.4-4.444-1.14-.913-1.541-.406-3.53 1.134-4.446 1.54-.915 3.53-.41 4.447 1.129.913 1.538.412 3.525-1.122 4.446l-.015.01z" transform="translate(-10 .396) rotate(30 44.479 268.472)"/>
                                <path stroke="#F5C518" d="M80.9 143.67c-1.091.651-1.447 2.064-.796 3.156.652 1.091 2.065 1.448 3.156.797 1.092-.652 1.449-2.065.798-3.156-.649-1.086-2.051-1.446-3.142-.808l-.016.01zM79.377 141.131c-1.127.675-2.55.603-3.605-.18-1.055-.785-1.533-2.127-1.212-3.401.32-1.275 1.378-2.23 2.678-2.421 1.3-.191 2.587.42 3.261 1.548.914 1.532.422 3.514-1.101 4.442l-.02.012z" transform="translate(-10 .396) rotate(30 44.479 268.472)"/>
                                <path stroke="#F5C518" d="M76.55 136.362c-1.091.653-1.447 2.066-.794 3.158.652 1.09 2.066 1.446 3.157.794 1.091-.652 1.447-2.066.794-3.157-.653-1.09-2.065-1.446-3.157-.795zM75.027 133.824c-1.128.675-2.55.603-3.605-.18-1.055-.785-1.533-2.127-1.212-3.401.32-1.275 1.378-2.23 2.678-2.421 1.3-.191 2.587.42 3.261 1.548.918 1.54.419 3.53-1.117 4.454h-.005z" transform="translate(-10 .396) rotate(30 44.479 268.472)"/>
                                <path stroke="#F5C518" d="M72.18 129.06c-1.092.653-1.447 2.066-.795 3.158.653 1.09 2.066 1.446 3.157.794 1.092-.653 1.447-2.066.795-3.157-.65-1.09-2.06-1.45-3.152-.805l-.005.01z" transform="translate(-10 .396) rotate(30 44.479 268.472)"/>
                                <path fill="#F5C518" d="M313.33 113.796l-.24-.865c-19.624 2.975-41.37-7.695-53.624-28.193-11.898-19.911-11.373-43.345-.408-59.22l-1.16-.762c-4.858-2.348-10.942-2.538-15.873.414L99.474 110.342c-7.703 4.602-9.858 15.028-5.256 22.729l46.855 78.398c2.19 3.698 5.764 6.371 9.93 7.428 4.167 1.056 8.582.41 12.27-1.799l142.47-85.279c6.315-3.774 9.898-10.406 7.584-18.02l.002-.003zm-7.963 17.366L162.822 216.34c-7.269 4.322-16.664 1.936-20.99-5.33L94.984 132.62c-4.335-7.256-2.302-17.185 4.952-21.52l142.546-85.178c4.67-2.792 10.467-2.568 15.06-.325-10.593 16.153-10.817 39.643 1.061 59.518 12.282 20.559 34.066 31.472 53.85 28.853 1.62 6.45-1.109 13.622-7.086 17.193z" transform="translate(-10 .396) rotate(30 44.479 268.472)"/>
                                <path fill="#FFF" d="M50.72 156.012l8.355-4.987.704 1.178-2.63 5.2c-.537 1.079-1.145 2.12-1.82 3.12l.028.017c1.056-.761 2.059-1.398 3.358-2.175l3.498-2.086.606 1.015-8.355 4.985-.65-1.09 2.655-5.182c.553-1.112 1.172-2.189 1.855-3.226l-.033-.03c-1.015.69-2.007 1.315-3.393 2.142l-3.571 2.132-.607-1.013zM64.116 168.766c-2.873 1.716-5.442.878-6.716-1.254-1.327-2.216-.53-4.776 1.998-6.276 2.652-1.582 5.373-.97 6.703 1.269 1.363 2.264.495 4.781-1.985 6.261zm-4.005-6.401c-1.777 1.066-2.807 2.985-1.792 4.683s3.173 1.738 5.076.606c1.66-.99 2.878-2.893 1.805-4.693-1.074-1.8-3.254-1.692-5.089-.596zM65.522 169.428c.264-.18.607-.2.89-.049.282.15.458.445.456.765-.002.32-.18.612-.465.76-.264.18-.607.199-.89.048-.282-.15-.458-.444-.456-.764.002-.32.181-.613.465-.76zm-4.373 2.612c.264-.18.607-.2.89-.05.282.15.458.445.456.765-.002.32-.181.613-.465.76-.264.18-.607.2-.89.05-.282-.151-.458-.445-.456-.765.002-.32.18-.613.465-.76zM70.875 180.426c-2.739 1.634-4.858 1.523-5.924-.254-.939-1.574-.101-3.52 2.538-5.137 2.7-1.612 4.883-1.335 5.86.302 1.026 1.688.092 3.556-2.474 5.089zm-2.736-4.302c-2.094 1.251-2.899 2.604-2.307 3.596.665 1.117 2.284.87 4.342-.355 1.983-1.185 2.983-2.47 2.308-3.596-.569-.957-2.15-.955-4.343.355zM68.51 184.063c.16.303.348.59.563.858.45.581 1.072 1.007 1.777 1.218.926.259 1.915.183 2.791-.213l-.02-.038c-.845-.123-1.584-.633-2-1.378-.865-1.45-.33-3.03 1.046-3.853 1.523-.909 3.52-.604 4.505 1.043.985 1.647.254 3.464-1.805 4.693-1.776 1.058-3.368 1.203-4.609.868-.99-.28-1.86-.876-2.477-1.698-.251-.3-.473-.624-.662-.967l.89-.533zm4.873-2.37c-1.016.598-1.348 1.626-.787 2.568.359.65 1.034 1.062 1.776 1.084.163 0 .322-.048.457-.137 1.376-.82 2.127-1.957 1.444-3.1-.543-.928-1.753-1.096-2.893-.416h.003zM81.17 190.799l-1.836-3.076-2.256.926c.164.197.311.407.442.627.375.6.582 1.288.601 1.995.018.99-.514 1.91-1.38 2.388-1.574.94-3.498.391-4.541-1.357-.436-.691-.679-1.486-.703-2.302l.992-.224c.024.7.224 1.384.581 1.987.615 1.03 1.81 1.523 2.889.866 1.033-.632 1.363-1.777.4-3.38-.229-.373-.483-.729-.76-1.067l4.18-1.776 2.299 3.855-.909.538zM76.969 199.984l2.193-1.31-2.234-3.743.719-.429 7.289.525.703 1.176-5.008 2.99.673 1.126-.853.508-.675-1.13-2.193 1.31-.614-1.023zm3.046-1.82l2.69-1.606c.421-.252.85-.492 1.287-.718l-.023-.036c-.62.033-1.084.043-1.589.04l-3.914-.344-.025.015 1.574 2.65zM78.753 202.974l.67-.398 1.34.358c3.186.888 4.785 1.197 6.005.484.818-.487 1.338-1.335.62-2.538-.401-.618-1.003-1.078-1.703-1.304l.56-.805c.916.321 1.688.956 2.18 1.792 1.036 1.736.282 3.178-.87 3.865-1.487.886-3.332.526-5.982-.195l-.98-.29-.025.016 2.162 3.62-.906.54-3.07-5.145zM84.537 208.017c1.016-.606 2.097-.429 3.11.31l.03-.033c-.11-1.145.355-1.944 1.048-2.358 1.27-.761 2.792-.2 3.632 1.21.932 1.564.419 2.927-.586 3.529-.68.406-1.612.507-2.675-.203l-.038.022c.203 1.242-.132 2.285-1.112 2.868-1.401.835-3.06.196-3.977-1.342-1.008-1.685-.61-3.302.568-4.003zm2.64 4.315c.98-.584 1.04-1.546.7-2.822-.835-.78-1.758-.92-2.525-.46-.84.452-1.19 1.5-.576 2.538.584.962 1.571 1.231 2.401.736v.008zm2.236-5.404c-.805.48-.876 1.348-.569 2.424.65.554 1.465.792 2.193.356.648-.386 1.087-1.17.508-2.148-.546-.913-1.437-1.053-2.132-.64v.008zM88.334 214.378c1.016-.607 2.1-.43 3.112.312l.028-.036c-.11-1.144.355-1.941 1.048-2.355 1.27-.761 2.792-.203 3.632 1.21.932 1.562.419 2.927-.584 3.526-.682.409-1.614.508-2.677-.2l-.036.022c.2 1.239-.134 2.285-1.114 2.866-1.401.835-3.06.195-3.977-1.34-1.005-1.688-.61-3.302.568-4.005zm2.64 4.314c.98-.583 1.043-1.545.7-2.822-.835-.78-1.756-.916-2.525-.46-.84.452-1.19 1.5-.576 2.539.586.964 1.571 1.233 2.4.736v.007zm2.239-5.403c-.808.482-.879 1.348-.572 2.426.65.554 1.465.79 2.196.353.645-.383 1.084-1.167.507-2.147-.548-.909-1.439-1.053-2.131-.64v.008zM101.324 222.482L100.606 222.911 91.174 223.781 90.502 222.654 99.715 221.893 99.738 221.878 97.385 217.936 98.291 217.395zM93.943 228.42l.668-.398 1.343.358c3.185.889 4.781 1.198 6.005.485.817-.487 1.335-1.335.619-2.538-.4-.618-1.002-1.079-1.703-1.305l.56-.804c.916.322 1.688.956 2.181 1.792 1.036 1.736.282 3.177-.87 3.865-1.488.888-3.333.526-5.983-.195l-.98-.29-.025.016 2.16 3.619-.903.54-3.072-5.144z" transform="translate(-10 .396) rotate(30 44.479 268.472)"/>
                                <path fill="#F5C518" d="M209.499 154.982L215.748 160.439 222.87 156.185 220.058 164.563 226.53 170.395 218.38 169.84 215.174 177.563 212.908 168.771 204.225 167.324 211.347 163.068zM233.03 142.302L237.781 145.644 242.428 142.159 240.888 147.936 245.723 151.39 239.956 151.538 238.268 157.116 236.228 151.408 230.261 151.286 234.908 147.799zM249.784 127.487L255.004 130.038 259.042 125.862 258.431 131.812 263.753 134.461 258.081 135.515 257.291 141.291 254.38 135.974 248.466 136.794 252.507 132.619zM186.38 170.177L187.073 175.946 181.801 178.385 187.619 179.766 188.37 185.662 191.23 180.652 196.946 181.809 192.883 177.309 195.603 171.994 190.332 174.436zM165.395 177.913L165.169 183.718 159.578 185.299 165.108 187.578 164.921 193.52 168.535 189.022 173.994 191.066 170.692 185.982 174.215 181.162 168.624 182.743z" transform="translate(-10 .396) rotate(30 44.479 268.472)"/>
                                <path fill="#FFF" d="M122.025 118.444l2.538-1.523 1.637 2.738c-.092.17-.208.36-.353.577-.162.24-.345.464-.546.672-.247.257-.51.498-.789.721-.342.275-.703.526-1.081.749-.566.342-1.179.599-1.82.761-.564.144-1.155.153-1.723.025-.592-.147-1.14-.432-1.602-.83-1.148-1.06-1.966-2.428-2.355-3.941-.135-.596-.128-1.215.02-1.807.153-.56.438-1.073.83-1.5.444-.484.957-.9 1.523-1.234.378-.227.771-.428 1.178-.601.33-.138.67-.254 1.015-.348.278-.078.563-.133.85-.165.254-.025.49-.04.695-.048l1.582 2.645-2.538 1.522-.457-.761c-.11-.226-.301-.401-.536-.49-.227-.045-.462.005-.652.137-.206.104-.36.287-.426.508-.036.249.027.502.175.705l1.908 3.196c.11.226.303.4.538.49.227.044.461-.005.65-.137.207-.103.362-.287.43-.508.033-.25-.03-.502-.179-.706l-.512-.847zM122.233 111.743L126.464 109.205 127.499 110.941 126.865 111.319 129.71 116.081 130.344 115.7 131.383 117.436 127.149 119.974 126.124 118.225 126.758 117.847 123.913 113.086 123.279 113.467zM132.916 105.347L136.619 103.134 137.657 104.87 137.02 105.248 140.903 111.743 137.928 113.52 131.979 110.601 133.794 113.647 134.428 113.269 135.464 115.002 131.763 117.215 130.725 115.482 131.36 115.101 128.515 110.34 127.88 110.72 126.844 108.984 130.768 106.639 136.098 109.23 134.593 106.713 133.959 107.091zM142.875 101.753L141.606 102.515 142.603 104.187 143.535 103.631 144.256 104.837 143.309 105.398 144.436 107.281 145.705 106.52 144.705 104.847 147.075 103.431 149.106 106.837 141.86 111.167 140.844 109.428 141.479 109.048 138.634 104.289 137.999 104.667 136.961 102.934 144.21 98.601 146.119 101.796 143.748 103.213zM144.71 98.291L149.768 95.271 153.141 98.177 152.126 93.862 157.004 90.949 158.04 92.682 157.405 93.06 160.251 97.822 160.885 97.444 161.921 99.177 157.69 101.715 156.654 99.982 157.289 99.604 154.804 95.413 156.233 102.583 155.091 103.266 149.152 98.761 151.662 102.961 152.296 102.581 153.334 104.317 149.631 106.53 148.596 104.794 149.23 104.416 146.385 99.654 145.751 100.035zM165.38 94.763l.635-.38-.68-.729-1.43.856.33.936.637-.38 1.036 1.736-3.617 2.162-1.038-1.736.424-.254-2.094-7.566 3.85-2.284 5.67 5.426.422-.254 1.038 1.734-4.147 2.477-1.036-1.744zm-1.911-1.522l.974-.582-1.697-1.855-.107.061.83 2.376zM171.301 82.258L179.256 77.507 180.791 80.076 178.974 81.164 178.466 80.327 177.789 80.733 180.634 85.494 181.375 85.05 182.41 86.786 177.969 89.441 176.931 87.705 177.672 87.263 174.855 82.502 174.177 82.908 174.685 83.743 172.865 84.829zM179.54 77.342L183.771 74.804 184.806 76.538 184.172 76.918 187.017 81.677 187.652 81.299 188.687 83.033 184.456 85.571 183.421 83.837 184.055 83.459 181.2 78.697 180.565 79.076zM191.77 76.621l2.539-1.523 1.637 2.74c-.091.17-.208.36-.353.575-.162.24-.344.465-.545.673-.248.257-.512.497-.79.72-.342.276-.703.526-1.081.75-.566.342-1.18.6-1.822.76-.564.145-1.154.153-1.721.026-.591-.148-1.14-.432-1.602-.83-1.148-1.06-1.965-2.428-2.355-3.941-.135-.596-.128-1.215.02-1.808.154-.559.438-1.074.83-1.502.444-.483.958-.898 1.523-1.231.378-.228.771-.43 1.178-.602.326-.137.661-.253 1.002-.347.278-.08.563-.135.85-.165.254-.026.49-.04.696-.048l1.581 2.644-2.538 1.523-.457-.761c-.109-.226-.3-.402-.535-.49-.227-.045-.463.005-.653.137-.205.103-.36.287-.426.507-.035.25.027.502.175.706l1.909 3.195c.11.226.303.401.538.49.226.045.46-.005.65-.137.207-.102.362-.286.429-.507.034-.25-.03-.503-.178-.706l-.5-.848zM200.875 66.946L200.489 70.076 203.875 71.614 204.299 71.36 205.334 73.093 202.182 74.977 198.779 73.078 200.512 75.977 196.916 78.126 195.877 76.39 196.515 76.012 193.669 71.251 193.035 71.631 191.997 69.895 195.593 67.746 197.294 70.591 197.53 66.591 200.258 64.959 201.296 66.695zM206.735 63.446L205.466 64.208 206.466 65.88 207.398 65.322 208.119 66.53 207.187 67.086 208.311 68.969 209.581 68.208 208.581 66.538 210.951 65.121 212.982 68.527 205.735 72.857 204.697 71.121 205.332 70.743 202.489 65.982 201.855 66.362 200.817 64.626 208.063 60.296 209.971 63.492 207.601 64.908zM208.492 60.04L216.446 55.289 217.982 57.857 216.164 58.946 215.657 58.109 214.979 58.515 217.832 63.266 218.57 62.822 219.608 64.558 215.164 67.213 214.129 65.477 214.87 65.035 212.025 60.274 211.347 60.68 211.855 61.515 210.035 62.601z" transform="translate(-10 .396) rotate(30 44.479 268.472)"/>
                                <g>
                                    <path fill="#F5C518" d="M40.624.185l.301.504c.328.546-.191 1.18-.737 1.505l-2.043 1.22c-.546.328-1.245.423-1.573-.125l-.05-.086L6.05 21.413v-.014c.327.548 0 1.199-.546 1.524l-2.041 1.221c-.548.328-1.439.403-1.76-.145v.015l.064-.04c-1.35.808-2.272 2.275-1.465 3.628l20.296 33.963c.807 1.35 3.23 2.395 4.58 1.588l-.064.04-.803-1.347c-.328-.545.453-.81.999-1.135l2.043-1.22c.546-.328.984-.792 1.32-.245l.803 1.344 30.472-18.209-.746-1.245c-.325-.547.262-.829.81-1.154l2.041-1.221c.548-.328 1.177-.772 1.505-.22l.299.504c.866-.528 1.084-2.139.281-3.485L43.842 1.595C43.022.25 41.499-.327 40.624.185zM26.788 56.121c.326.547.148 1.255-.398 1.583l-2.376 1.412c-.262.158-.576.205-.873.13-.297-.075-.552-.265-.708-.528l-1.417-2.378c-.326-.548-.147-1.256.4-1.583l2.372-1.417c.262-.158.576-.204.873-.13.297.075.552.265.708.528l1.419 2.383zm-3.121-5.222c.325.547.146 1.254-.4 1.581l-2.372 1.417c-.262.157-.577.204-.873.13-.297-.075-.552-.265-.708-.528l-1.42-2.372c-.325-.548-.146-1.256.401-1.583l2.371-1.417c.263-.157.577-.203.874-.129.296.075.551.264.708.527l1.419 2.374zm-3.643-6.096c.327.548.15 1.257-.398 1.584l-2.371 1.417c-.548.326-1.256.148-1.584-.399l-1.417-2.373c-.157-.262-.204-.577-.13-.873.075-.297.265-.552.528-.709l2.372-1.418c.548-.326 1.256-.147 1.583.4l1.417 2.371zm-3.64-6.095c.325.548.146 1.256-.4 1.584l-2.372 1.416c-.262.158-.577.205-.873.13-.297-.075-.552-.265-.709-.528l-1.418-2.371c-.326-.548-.148-1.256.398-1.584l2.373-1.416c.263-.158.577-.205.874-.13.297.075.551.265.708.528l1.419 2.371zm-3.122-5.222c.326.547.147 1.255-.4 1.582l-2.371 1.416c-.263.158-.577.204-.874.13-.297-.075-.551-.265-.708-.528L7.49 33.715c-.326-.548-.148-1.256.399-1.584l2.373-1.417c.262-.157.577-.203.873-.128.297.074.552.264.709.527l1.418 2.373zm-3.123-5.224c.157.262.204.577.13.873-.075.297-.265.552-.528.708l-2.372 1.421c-.548.326-1.256.147-1.583-.4l-1.417-2.371c-.157-.263-.203-.577-.129-.874.075-.296.265-.551.527-.708l2.374-1.419c.547-.325 1.255-.146 1.581.4l1.417 2.37zM61.61 35.3c.326.547.148 1.255-.398 1.583l-2.372 1.42c-.262.156-.576.203-.873.128-.296-.075-.551-.264-.708-.527l-1.419-2.373c-.325-.548-.146-1.255.4-1.582l2.372-1.419c.262-.157.577-.203.874-.127.296.075.55.265.707.528l1.417 2.369zm-3.121-5.224c.326.547.148 1.255-.399 1.583l-2.373 1.417c-.262.158-.577.204-.874.13-.296-.075-.551-.265-.708-.528l-1.418-2.374c-.326-.547-.147-1.255.4-1.581l2.373-1.419c.263-.158.577-.204.874-.13.297.075.552.265.708.528l1.417 2.374zm-3.643-6.094c.157.263.203.577.129.874-.075.296-.265.551-.527.708l-2.371 1.417c-.548.327-1.257.149-1.584-.399l-1.404-2.358c-.327-.547-.149-1.256.399-1.583l2.37-1.417c.548-.326 1.256-.148 1.585.398l1.403 2.36zm-3.64-6.095c.156.263.202.577.127.874-.075.297-.265.551-.528.708l-2.376 1.425c-.546.326-1.254.148-1.581-.398l-1.419-2.373c-.326-.547-.148-1.255.398-1.582l2.374-1.419c.262-.157.577-.203.874-.128.296.076.55.266.707.529l1.423 2.364zm-3.122-5.224c.326.548.147 1.256-.4 1.584l-2.371 1.416c-.263.158-.577.205-.874.13-.297-.075-.552-.265-.708-.528l-1.419-2.373c-.326-.547-.148-1.254.398-1.582l2.374-1.416c.262-.158.577-.205.873-.13.297.075.552.265.708.528l1.42 2.371zM44.962 7.44c.327.547.149 1.256-.399 1.584l-2.37 1.416c-.548.327-1.257.15-1.584-.398l-1.417-2.365c-.326-.547-.148-1.255.398-1.583l2.373-1.417c.263-.158.577-.204.874-.13.297.075.552.265.708.528l1.417 2.365z" transform="translate(-10 .396) rotate(30 44.479 268.472) translate(161.268 92.136)"/>
                                    <path fill="#030607" d="M20.836 29.401l7.82 13.082c.246.411.682.671 1.161.693.48.02.937-.2 1.219-.588l11.356-15.664c.335-.462.363-1.08.07-1.57s-.85-.758-1.416-.682l-19.174 2.58c-.477.064-.89.362-1.098.795-.208.433-.185.942.062 1.354z" transform="translate(-10 .396) rotate(30 44.479 268.472) translate(161.268 92.136)"/>
                                </g>
                            </g>
                            <g>
                                <path fill="#F5C518" d="M255.497 1.24L72.571 110.545l.525.839c1.852 3.016 1.94 6.8.226 9.903-1.713 3.102-4.962 5.044-8.506 5.083-3.544.038-6.835-1.832-8.615-4.896l-.522-.835L4.27 151.347c-4.155 2.489-5.51 7.87-3.031 12.03l11.776 19.709.717-.205c19.823-5.602 40.57 2.054 50.461 18.608 9.889 16.55 6.8 38.451-7.519 53.257l-.523.523 11.779 19.71c2.488 4.156 7.871 5.513 12.032 3.034l51.417-30.714-.497-.833c-2.756-4.66-1.226-10.674 3.423-13.453 4.566-2.729 10.456-1.33 13.318 3.114l.67 1.073 182.908-109.292c4.151-2.493 5.5-7.874 3.018-12.03L322.18 95.724l-.695.168c-19.45 4.686-38.983-2.996-48.596-19.098-9.616-16.107-7.131-36.94 6.205-51.842l.481-.523L267.53 4.27c-2.49-4.154-7.872-5.51-12.033-3.03zm11.175 3.544l11.66 19.517.02-.02c-13.626 15.226-16.168 36.535-6.323 53.026l.299.492c9.843 15.986 29.324 23.648 48.794 19.205l.576-.135 11.664 19.521.13.227c2.02 3.65.798 8.27-2.803 10.434L148.623 235.839l.006.01c-3.081-5.101-9.714-6.755-14.836-3.694l-.257.159c-4.836 3.072-6.443 9.391-3.663 14.4l.136.239-50.558 30.201-.227.13c-3.654 2.017-8.275.79-10.435-2.818l-11.38-19.041-.02.022c14.63-15.13 17.79-37.524 7.664-54.47l-.307-.506c-10.142-16.433-30.816-24.063-50.678-18.72l-.588.162-11.381-19.048-.13-.227c-2.017-3.652-.791-8.273 2.815-10.433L55.35 122l-.006-.01c1.954 3.362 5.579 5.422 9.483 5.38 3.904-.043 7.483-2.182 9.37-5.6l.167-.312c1.66-3.252 1.57-7.124-.238-10.296l-.167-.281L256.009 2.099c3.612-2.153 8.263-1.044 10.525 2.463l.138.222z" transform="translate(-10 .396) translate(10)"/>
                                <path fill="#000" d="M330.946 127.48L148.459 236.52l-.254-.406c-2.943-4.872-9.27-6.45-14.155-3.53-4.886 2.92-6.493 9.24-3.596 14.139l.24.403-50.987 30.457c-3.924 2.339-9 1.059-11.347-2.86L56.78 255.347l.254-.254c14.467-14.959 17.599-37.106 7.589-53.86-10.01-16.754-30.993-24.495-51.028-18.832l-.348.099L1.669 163.12c-2.338-3.922-1.06-8.998 2.858-11.345l50.988-30.457.253.406c1.872 3.22 5.33 5.185 9.054 5.145 3.723-.041 7.138-2.081 8.938-5.341 1.8-3.26 1.709-7.237-.24-10.41l-.254-.406L255.753 1.67c3.924-2.34 9-1.06 11.348 2.857l11.853 19.838-.234.254c-13.482 15.066-15.99 36.137-6.261 52.431 9.728 16.295 29.484 24.064 49.142 19.328l.337-.082 11.853 19.838c2.34 3.92 1.068 8.994-2.845 11.345z" transform="translate(-10 .396) translate(10)"/>
                                <path stroke="#F5C518" d="M131.781 228.784c-1.128.674-2.55.603-3.605-.181-1.055-.784-1.533-2.127-1.213-3.401.321-1.274 1.378-2.23 2.679-2.42 1.3-.192 2.587.42 3.26 1.547.918 1.54.416 3.532-1.121 4.455h0z" transform="translate(-10 .396) translate(10)"/>
                                <path stroke="#F5C518" d="M128.933 224.02c-1.09.652-1.446 2.066-.794 3.157.653 1.091 2.066 1.447 3.157.794 1.091-.652 1.447-2.066.795-3.157-.654-1.09-2.066-1.445-3.158-.794h0zM127.41 221.482c-1.127.674-2.55.603-3.605-.181-1.055-.784-1.533-2.127-1.212-3.401.32-1.274 1.378-2.23 2.678-2.42 1.3-.192 2.587.42 3.261 1.547.918 1.539.418 3.53-1.116 4.452l-.006.003z" transform="translate(-10 .396) translate(10)"/>
                                <path stroke="#F5C518" d="M124.563 216.718c-1.091.652-1.447 2.066-.794 3.157.652 1.091 2.065 1.447 3.157.794 1.09-.652 1.447-2.066.794-3.157-.651-1.089-2.061-1.445-3.152-.797l-.005.003zM123.04 214.18c-1.128.674-2.551.603-3.606-.181-1.054-.785-1.533-2.127-1.212-3.401.321-1.274 1.378-2.23 2.679-2.42 1.3-.192 2.587.42 3.26 1.547.916 1.536.42 3.523-1.11 4.447l-.011.008z" transform="translate(-10 .396) translate(10)"/>
                                <path stroke="#F5C518" d="M120.192 209.416c-1.091.652-1.448 2.065-.796 3.156.652 1.092 2.065 1.448 3.156.797 1.092-.652 1.449-2.065.798-3.156-.65-1.087-2.056-1.446-3.148-.805l-.01.008zM118.67 206.878c-1.129.674-2.552.603-3.606-.182-1.055-.784-1.533-2.126-1.212-3.4.32-1.274 1.378-2.23 2.678-2.42 1.3-.192 2.587.42 3.261 1.547.913 1.535.42 3.517-1.106 4.445l-.016.01z" transform="translate(-10 .396) translate(10)"/>
                                <path stroke="#F5C518" d="M115.84 202.098c-.8.478-1.234 1.39-1.099 2.311.136.922.813 1.671 1.716 1.899.903.227 1.854-.112 2.41-.86.555-.747.606-1.756.127-2.555-.653-1.089-2.064-1.444-3.155-.795zM114.317 199.56c-1.54.919-3.532.416-4.451-1.122-.92-1.539-.417-3.531 1.121-4.451 1.538-.92 3.531-.419 4.451 1.12.918 1.539.417 3.53-1.119 4.453h-.002z" transform="translate(-10 .396) translate(10)"/>
                                <path stroke="#F5C518" d="M111.471 194.796c-.8.478-1.233 1.39-1.098 2.311.136.922.813 1.671 1.716 1.899.903.227 1.854-.112 2.41-.86.555-.747.606-1.756.127-2.555-.653-1.087-2.063-1.442-3.152-.792l-.003-.003zM109.949 192.258c-1.54.919-3.532.416-4.451-1.122-.92-1.539-.417-3.531 1.121-4.451 1.538-.92 3.531-.419 4.451 1.12.92 1.537.42 3.529-1.116 4.45l-.005.003z" transform="translate(-10 .396) translate(10)"/>
                                <path stroke="#F5C518" d="M107.103 187.494c-1.091.652-1.447 2.065-.796 3.157.652 1.091 2.065 1.448 3.157.797 1.091-.652 1.448-2.065.797-3.157-.652-1.088-2.06-1.446-3.153-.8l-.005.003zM105.58 184.956c-1.539.919-3.53.416-4.45-1.122-.92-1.539-.417-3.531 1.121-4.451 1.538-.92 3.531-.419 4.451 1.119.918 1.537.42 3.526-1.114 4.45l-.007.004z" transform="translate(-10 .396) translate(10)"/>
                                <path stroke="#F5C518" d="M102.735 180.192c-1.09.653-1.446 2.066-.794 3.158.653 1.09 2.066 1.446 3.157.794 1.091-.653 1.447-2.066.795-3.157-.652-1.088-2.059-1.445-3.15-.8l-.008.005zM101.213 177.654c-1.54.918-3.532.414-4.45-1.125-.918-1.54-.416-3.531 1.123-4.45 1.539-.92 3.531-.417 4.45 1.121.915 1.536.418 3.523-1.113 4.447l-.01.007z" transform="translate(-10 .396) translate(10)"/>
                                <path stroke="#F5C518" d="M98.367 172.89c-1.09.653-1.446 2.066-.794 3.158.653 1.09 2.066 1.446 3.157.794 1.091-.653 1.447-2.066.795-3.157-.65-1.087-2.056-1.445-3.148-.802l-.01.007zM96.844 170.352c-1.54.919-3.532.415-4.45-1.124-.919-1.54-.415-3.532 1.124-4.451 1.54-.919 3.532-.416 4.45 1.124.912 1.533.416 3.515-1.11 4.439l-.014.012z" transform="translate(-10 .396) translate(10)"/>
                                <path stroke="#F5C518" d="M94.012 165.576c-1.091.651-1.448 2.065-.796 3.156.652 1.092 2.065 1.448 3.156.797 1.092-.652 1.449-2.065.797-3.156-.652-1.091-2.065-1.448-3.157-.797zM92.49 163.038c-1.129.674-2.552.602-3.606-.182-1.055-.784-1.533-2.126-1.212-3.4.32-1.274 1.378-2.23 2.678-2.421 1.3-.191 2.587.42 3.261 1.548.917 1.538.418 3.529-1.117 4.452l-.005.003z" transform="translate(-10 .396) translate(10)"/>
                                <path stroke="#F5C518" d="M89.641 158.274c-1.09.652-1.446 2.066-.794 3.157.653 1.09 2.066 1.447 3.157.794 1.091-.652 1.447-2.066.795-3.157-.653-1.088-2.061-1.444-3.152-.797l-.006.003zM88.119 155.736c-1.128.674-2.551.602-3.606-.182-1.055-.784-1.533-2.126-1.212-3.4.321-1.275 1.378-2.23 2.678-2.421 1.3-.191 2.588.42 3.261 1.548.916 1.537.42 3.524-1.111 4.45l-.01.005z" transform="translate(-10 .396) translate(10)"/>
                                <path stroke="#F5C518" d="M85.27 150.972c-1.09.652-1.446 2.066-.793 3.157.652 1.09 2.066 1.446 3.157.794 1.09-.652 1.447-2.066.794-3.157-.651-1.086-2.056-1.443-3.147-.8l-.01.006zM83.748 148.434c-1.542.91-3.53.4-4.444-1.14-.913-1.541-.406-3.53 1.134-4.446 1.54-.915 3.53-.41 4.447 1.129.913 1.538.412 3.525-1.122 4.446l-.015.01z" transform="translate(-10 .396) translate(10)"/>
                                <path stroke="#F5C518" d="M80.9 143.67c-1.091.651-1.447 2.064-.796 3.156.652 1.091 2.065 1.448 3.156.797 1.092-.652 1.449-2.065.798-3.156-.649-1.086-2.051-1.446-3.142-.808l-.016.01zM79.377 141.131c-1.127.675-2.55.603-3.605-.18-1.055-.785-1.533-2.127-1.212-3.401.32-1.275 1.378-2.23 2.678-2.421 1.3-.191 2.587.42 3.261 1.548.914 1.532.422 3.514-1.101 4.442l-.02.012z" transform="translate(-10 .396) translate(10)"/>
                                <path stroke="#F5C518" d="M76.55 136.362c-1.091.653-1.447 2.066-.794 3.158.652 1.09 2.066 1.446 3.157.794 1.091-.652 1.447-2.066.794-3.157-.653-1.09-2.065-1.446-3.157-.795zM75.027 133.824c-1.128.675-2.55.603-3.605-.18-1.055-.785-1.533-2.127-1.212-3.401.32-1.275 1.378-2.23 2.678-2.421 1.3-.191 2.587.42 3.261 1.548.918 1.54.419 3.53-1.117 4.454h-.005z" transform="translate(-10 .396) translate(10)"/>
                                <path stroke="#F5C518" d="M72.18 129.06c-1.092.653-1.447 2.066-.795 3.158.653 1.09 2.066 1.446 3.157.794 1.092-.653 1.447-2.066.795-3.157-.65-1.09-2.06-1.45-3.152-.805l-.005.01z" transform="translate(-10 .396) translate(10)"/>
                                <path fill="#F5C518" d="M313.33 113.796l-.24-.865c-19.624 2.975-41.37-7.695-53.624-28.193-11.898-19.911-11.373-43.345-.408-59.22l-1.16-.762c-4.858-2.348-10.942-2.538-15.873.414L99.474 110.342c-7.703 4.602-9.858 15.028-5.256 22.729l46.855 78.398c2.19 3.698 5.764 6.371 9.93 7.428 4.167 1.056 8.582.41 12.27-1.799l142.47-85.279c6.315-3.774 9.898-10.406 7.584-18.02l.002-.003zm-7.963 17.366L162.822 216.34c-7.269 4.322-16.664 1.936-20.99-5.33L94.984 132.62c-4.335-7.256-2.302-17.185 4.952-21.52l142.546-85.178c4.67-2.792 10.467-2.568 15.06-.325-10.593 16.153-10.817 39.643 1.061 59.518 12.282 20.559 34.066 31.472 53.85 28.853 1.62 6.45-1.109 13.622-7.086 17.193z" transform="translate(-10 .396) translate(10)"/>
                                <path fill="#FFF" d="M50.72 156.012l8.355-4.987.704 1.178-2.63 5.2c-.537 1.079-1.145 2.12-1.82 3.12l.028.017c1.056-.761 2.059-1.398 3.358-2.175l3.498-2.086.606 1.015-8.355 4.985-.65-1.09 2.655-5.182c.553-1.112 1.172-2.189 1.855-3.226l-.033-.03c-1.015.69-2.007 1.315-3.393 2.142l-3.571 2.132-.607-1.013zM64.116 168.766c-2.873 1.716-5.442.878-6.716-1.254-1.327-2.216-.53-4.776 1.998-6.276 2.652-1.582 5.373-.97 6.703 1.269 1.363 2.264.495 4.781-1.985 6.261zm-4.005-6.401c-1.777 1.066-2.807 2.985-1.792 4.683s3.173 1.738 5.076.606c1.66-.99 2.878-2.893 1.805-4.693-1.074-1.8-3.254-1.692-5.089-.596zM65.522 169.428c.264-.18.607-.2.89-.049.282.15.458.445.456.765-.002.32-.18.612-.465.76-.264.18-.607.199-.89.048-.282-.15-.458-.444-.456-.764.002-.32.181-.613.465-.76zm-4.373 2.612c.264-.18.607-.2.89-.05.282.15.458.445.456.765-.002.32-.181.613-.465.76-.264.18-.607.2-.89.05-.282-.151-.458-.445-.456-.765.002-.32.18-.613.465-.76zM70.875 180.426c-2.739 1.634-4.858 1.523-5.924-.254-.939-1.574-.101-3.52 2.538-5.137 2.7-1.612 4.883-1.335 5.86.302 1.026 1.688.092 3.556-2.474 5.089zm-2.736-4.302c-2.094 1.251-2.899 2.604-2.307 3.596.665 1.117 2.284.87 4.342-.355 1.983-1.185 2.983-2.47 2.308-3.596-.569-.957-2.15-.955-4.343.355zM68.51 184.063c.16.303.348.59.563.858.45.581 1.072 1.007 1.777 1.218.926.259 1.915.183 2.791-.213l-.02-.038c-.845-.123-1.584-.633-2-1.378-.865-1.45-.33-3.03 1.046-3.853 1.523-.909 3.52-.604 4.505 1.043.985 1.647.254 3.464-1.805 4.693-1.776 1.058-3.368 1.203-4.609.868-.99-.28-1.86-.876-2.477-1.698-.251-.3-.473-.624-.662-.967l.89-.533zm4.873-2.37c-1.016.598-1.348 1.626-.787 2.568.359.65 1.034 1.062 1.776 1.084.163 0 .322-.048.457-.137 1.376-.82 2.127-1.957 1.444-3.1-.543-.928-1.753-1.096-2.893-.416h.003zM81.17 190.799l-1.836-3.076-2.256.926c.164.197.311.407.442.627.375.6.582 1.288.601 1.995.018.99-.514 1.91-1.38 2.388-1.574.94-3.498.391-4.541-1.357-.436-.691-.679-1.486-.703-2.302l.992-.224c.024.7.224 1.384.581 1.987.615 1.03 1.81 1.523 2.889.866 1.033-.632 1.363-1.777.4-3.38-.229-.373-.483-.729-.76-1.067l4.18-1.776 2.299 3.855-.909.538zM76.969 199.984l2.193-1.31-2.234-3.743.719-.429 7.289.525.703 1.176-5.008 2.99.673 1.126-.853.508-.675-1.13-2.193 1.31-.614-1.023zm3.046-1.82l2.69-1.606c.421-.252.85-.492 1.287-.718l-.023-.036c-.62.033-1.084.043-1.589.04l-3.914-.344-.025.015 1.574 2.65zM78.753 202.974l.67-.398 1.34.358c3.186.888 4.785 1.197 6.005.484.818-.487 1.338-1.335.62-2.538-.401-.618-1.003-1.078-1.703-1.304l.56-.805c.916.321 1.688.956 2.18 1.792 1.036 1.736.282 3.178-.87 3.865-1.487.886-3.332.526-5.982-.195l-.98-.29-.025.016 2.162 3.62-.906.54-3.07-5.145zM84.537 208.017c1.016-.606 2.097-.429 3.11.31l.03-.033c-.11-1.145.355-1.944 1.048-2.358 1.27-.761 2.792-.2 3.632 1.21.932 1.564.419 2.927-.586 3.529-.68.406-1.612.507-2.675-.203l-.038.022c.203 1.242-.132 2.285-1.112 2.868-1.401.835-3.06.196-3.977-1.342-1.008-1.685-.61-3.302.568-4.003zm2.64 4.315c.98-.584 1.04-1.546.7-2.822-.835-.78-1.758-.92-2.525-.46-.84.452-1.19 1.5-.576 2.538.584.962 1.571 1.231 2.401.736v.008zm2.236-5.404c-.805.48-.876 1.348-.569 2.424.65.554 1.465.792 2.193.356.648-.386 1.087-1.17.508-2.148-.546-.913-1.437-1.053-2.132-.64v.008zM88.334 214.378c1.016-.607 2.1-.43 3.112.312l.028-.036c-.11-1.144.355-1.941 1.048-2.355 1.27-.761 2.792-.203 3.632 1.21.932 1.562.419 2.927-.584 3.526-.682.409-1.614.508-2.677-.2l-.036.022c.2 1.239-.134 2.285-1.114 2.866-1.401.835-3.06.195-3.977-1.34-1.005-1.688-.61-3.302.568-4.005zm2.64 4.314c.98-.583 1.043-1.545.7-2.822-.835-.78-1.756-.916-2.525-.46-.84.452-1.19 1.5-.576 2.539.586.964 1.571 1.233 2.4.736v.007zm2.239-5.403c-.808.482-.879 1.348-.572 2.426.65.554 1.465.79 2.196.353.645-.383 1.084-1.167.507-2.147-.548-.909-1.439-1.053-2.131-.64v.008zM101.324 222.482L100.606 222.911 91.174 223.781 90.502 222.654 99.715 221.893 99.738 221.878 97.385 217.936 98.291 217.395zM93.943 228.42l.668-.398 1.343.358c3.185.889 4.781 1.198 6.005.485.817-.487 1.335-1.335.619-2.538-.4-.618-1.002-1.079-1.703-1.305l.56-.804c.916.322 1.688.956 2.181 1.792 1.036 1.736.282 3.177-.87 3.865-1.488.888-3.333.526-5.983-.195l-.98-.29-.025.016 2.16 3.619-.903.54-3.072-5.144z" transform="translate(-10 .396) translate(10)"/>
                                <path fill="#F5C518" d="M209.499 154.982L215.748 160.439 222.87 156.185 220.058 164.563 226.53 170.395 218.38 169.84 215.174 177.563 212.908 168.771 204.225 167.324 211.347 163.068zM233.03 142.302L237.781 145.644 242.428 142.159 240.888 147.936 245.723 151.39 239.956 151.538 238.268 157.116 236.228 151.408 230.261 151.286 234.908 147.799zM249.784 127.487L255.004 130.038 259.042 125.862 258.431 131.812 263.753 134.461 258.081 135.515 257.291 141.291 254.38 135.974 248.466 136.794 252.507 132.619zM186.38 170.177L187.073 175.946 181.801 178.385 187.619 179.766 188.37 185.662 191.23 180.652 196.946 181.809 192.883 177.309 195.603 171.994 190.332 174.436zM165.395 177.913L165.169 183.718 159.578 185.299 165.108 187.578 164.921 193.52 168.535 189.022 173.994 191.066 170.692 185.982 174.215 181.162 168.624 182.743z" transform="translate(-10 .396) translate(10)"/>
                                <path fill="#FFF" d="M122.025 118.444l2.538-1.523 1.637 2.738c-.092.17-.208.36-.353.577-.162.24-.345.464-.546.672-.247.257-.51.498-.789.721-.342.275-.703.526-1.081.749-.566.342-1.179.599-1.82.761-.564.144-1.155.153-1.723.025-.592-.147-1.14-.432-1.602-.83-1.148-1.06-1.966-2.428-2.355-3.941-.135-.596-.128-1.215.02-1.807.153-.56.438-1.073.83-1.5.444-.484.957-.9 1.523-1.234.378-.227.771-.428 1.178-.601.33-.138.67-.254 1.015-.348.278-.078.563-.133.85-.165.254-.025.49-.04.695-.048l1.582 2.645-2.538 1.522-.457-.761c-.11-.226-.301-.401-.536-.49-.227-.045-.462.005-.652.137-.206.104-.36.287-.426.508-.036.249.027.502.175.705l1.908 3.196c.11.226.303.4.538.49.227.044.461-.005.65-.137.207-.103.362-.287.43-.508.033-.25-.03-.502-.179-.706l-.512-.847zM122.233 111.743L126.464 109.205 127.499 110.941 126.865 111.319 129.71 116.081 130.344 115.7 131.383 117.436 127.149 119.974 126.124 118.225 126.758 117.847 123.913 113.086 123.279 113.467zM132.916 105.347L136.619 103.134 137.657 104.87 137.02 105.248 140.903 111.743 137.928 113.52 131.979 110.601 133.794 113.647 134.428 113.269 135.464 115.002 131.763 117.215 130.725 115.482 131.36 115.101 128.515 110.34 127.88 110.72 126.844 108.984 130.768 106.639 136.098 109.23 134.593 106.713 133.959 107.091zM142.875 101.753L141.606 102.515 142.603 104.187 143.535 103.631 144.256 104.837 143.309 105.398 144.436 107.281 145.705 106.52 144.705 104.847 147.075 103.431 149.106 106.837 141.86 111.167 140.844 109.428 141.479 109.048 138.634 104.289 137.999 104.667 136.961 102.934 144.21 98.601 146.119 101.796 143.748 103.213zM144.71 98.291L149.768 95.271 153.141 98.177 152.126 93.862 157.004 90.949 158.04 92.682 157.405 93.06 160.251 97.822 160.885 97.444 161.921 99.177 157.69 101.715 156.654 99.982 157.289 99.604 154.804 95.413 156.233 102.583 155.091 103.266 149.152 98.761 151.662 102.961 152.296 102.581 153.334 104.317 149.631 106.53 148.596 104.794 149.23 104.416 146.385 99.654 145.751 100.035zM165.38 94.763l.635-.38-.68-.729-1.43.856.33.936.637-.38 1.036 1.736-3.617 2.162-1.038-1.736.424-.254-2.094-7.566 3.85-2.284 5.67 5.426.422-.254 1.038 1.734-4.147 2.477-1.036-1.744zm-1.911-1.522l.974-.582-1.697-1.855-.107.061.83 2.376zM171.301 82.258L179.256 77.507 180.791 80.076 178.974 81.164 178.466 80.327 177.789 80.733 180.634 85.494 181.375 85.05 182.41 86.786 177.969 89.441 176.931 87.705 177.672 87.263 174.855 82.502 174.177 82.908 174.685 83.743 172.865 84.829zM179.54 77.342L183.771 74.804 184.806 76.538 184.172 76.918 187.017 81.677 187.652 81.299 188.687 83.033 184.456 85.571 183.421 83.837 184.055 83.459 181.2 78.697 180.565 79.076zM191.77 76.621l2.539-1.523 1.637 2.74c-.091.17-.208.36-.353.575-.162.24-.344.465-.545.673-.248.257-.512.497-.79.72-.342.276-.703.526-1.081.75-.566.342-1.18.6-1.822.76-.564.145-1.154.153-1.721.026-.591-.148-1.14-.432-1.602-.83-1.148-1.06-1.965-2.428-2.355-3.941-.135-.596-.128-1.215.02-1.808.154-.559.438-1.074.83-1.502.444-.483.958-.898 1.523-1.231.378-.228.771-.43 1.178-.602.326-.137.661-.253 1.002-.347.278-.08.563-.135.85-.165.254-.026.49-.04.696-.048l1.581 2.644-2.538 1.523-.457-.761c-.109-.226-.3-.402-.535-.49-.227-.045-.463.005-.653.137-.205.103-.36.287-.426.507-.035.25.027.502.175.706l1.909 3.195c.11.226.303.401.538.49.226.045.46-.005.65-.137.207-.102.362-.286.429-.507.034-.25-.03-.503-.178-.706l-.5-.848zM200.875 66.946L200.489 70.076 203.875 71.614 204.299 71.36 205.334 73.093 202.182 74.977 198.779 73.078 200.512 75.977 196.916 78.126 195.877 76.39 196.515 76.012 193.669 71.251 193.035 71.631 191.997 69.895 195.593 67.746 197.294 70.591 197.53 66.591 200.258 64.959 201.296 66.695zM206.735 63.446L205.466 64.208 206.466 65.88 207.398 65.322 208.119 66.53 207.187 67.086 208.311 68.969 209.581 68.208 208.581 66.538 210.951 65.121 212.982 68.527 205.735 72.857 204.697 71.121 205.332 70.743 202.489 65.982 201.855 66.362 200.817 64.626 208.063 60.296 209.971 63.492 207.601 64.908zM208.492 60.04L216.446 55.289 217.982 57.857 216.164 58.946 215.657 58.109 214.979 58.515 217.832 63.266 218.57 62.822 219.608 64.558 215.164 67.213 214.129 65.477 214.87 65.035 212.025 60.274 211.347 60.68 211.855 61.515 210.035 62.601z" transform="translate(-10 .396) translate(10)"/>
                                <g>
                                    <path fill="#F5C518" d="M40.624.185l.301.504c.328.546-.191 1.18-.737 1.505l-2.043 1.22c-.546.328-1.245.423-1.573-.125l-.05-.086L6.05 21.413v-.014c.327.548 0 1.199-.546 1.524l-2.041 1.221c-.548.328-1.439.403-1.76-.145v.015l.064-.04c-1.35.808-2.272 2.275-1.465 3.628l20.296 33.963c.807 1.35 3.23 2.395 4.58 1.588l-.064.04-.803-1.347c-.328-.545.453-.81.999-1.135l2.043-1.22c.546-.328.984-.792 1.32-.245l.803 1.344 30.472-18.209-.746-1.245c-.325-.547.262-.829.81-1.154l2.041-1.221c.548-.328 1.177-.772 1.505-.22l.299.504c.866-.528 1.084-2.139.281-3.485L43.842 1.595C43.022.25 41.499-.327 40.624.185zM26.788 56.121c.326.547.148 1.255-.398 1.583l-2.376 1.412c-.262.158-.576.205-.873.13-.297-.075-.552-.265-.708-.528l-1.417-2.378c-.326-.548-.147-1.256.4-1.583l2.372-1.417c.262-.158.576-.204.873-.13.297.075.552.265.708.528l1.419 2.383zm-3.121-5.222c.325.547.146 1.254-.4 1.581l-2.372 1.417c-.262.157-.577.204-.873.13-.297-.075-.552-.265-.708-.528l-1.42-2.372c-.325-.548-.146-1.256.401-1.583l2.371-1.417c.263-.157.577-.203.874-.129.296.075.551.264.708.527l1.419 2.374zm-3.643-6.096c.327.548.15 1.257-.398 1.584l-2.371 1.417c-.548.326-1.256.148-1.584-.399l-1.417-2.373c-.157-.262-.204-.577-.13-.873.075-.297.265-.552.528-.709l2.372-1.418c.548-.326 1.256-.147 1.583.4l1.417 2.371zm-3.64-6.095c.325.548.146 1.256-.4 1.584l-2.372 1.416c-.262.158-.577.205-.873.13-.297-.075-.552-.265-.709-.528l-1.418-2.371c-.326-.548-.148-1.256.398-1.584l2.373-1.416c.263-.158.577-.205.874-.13.297.075.551.265.708.528l1.419 2.371zm-3.122-5.222c.326.547.147 1.255-.4 1.582l-2.371 1.416c-.263.158-.577.204-.874.13-.297-.075-.551-.265-.708-.528L7.49 33.715c-.326-.548-.148-1.256.399-1.584l2.373-1.417c.262-.157.577-.203.873-.128.297.074.552.264.709.527l1.418 2.373zm-3.123-5.224c.157.262.204.577.13.873-.075.297-.265.552-.528.708l-2.372 1.421c-.548.326-1.256.147-1.583-.4l-1.417-2.371c-.157-.263-.203-.577-.129-.874.075-.296.265-.551.527-.708l2.374-1.419c.547-.325 1.255-.146 1.581.4l1.417 2.37zM61.61 35.3c.326.547.148 1.255-.398 1.583l-2.372 1.42c-.262.156-.576.203-.873.128-.296-.075-.551-.264-.708-.527l-1.419-2.373c-.325-.548-.146-1.255.4-1.582l2.372-1.419c.262-.157.577-.203.874-.127.296.075.55.265.707.528l1.417 2.369zm-3.121-5.224c.326.547.148 1.255-.399 1.583l-2.373 1.417c-.262.158-.577.204-.874.13-.296-.075-.551-.265-.708-.528l-1.418-2.374c-.326-.547-.147-1.255.4-1.581l2.373-1.419c.263-.158.577-.204.874-.13.297.075.552.265.708.528l1.417 2.374zm-3.643-6.094c.157.263.203.577.129.874-.075.296-.265.551-.527.708l-2.371 1.417c-.548.327-1.257.149-1.584-.399l-1.404-2.358c-.327-.547-.149-1.256.399-1.583l2.37-1.417c.548-.326 1.256-.148 1.585.398l1.403 2.36zm-3.64-6.095c.156.263.202.577.127.874-.075.297-.265.551-.528.708l-2.376 1.425c-.546.326-1.254.148-1.581-.398l-1.419-2.373c-.326-.547-.148-1.255.398-1.582l2.374-1.419c.262-.157.577-.203.874-.128.296.076.55.266.707.529l1.423 2.364zm-3.122-5.224c.326.548.147 1.256-.4 1.584l-2.371 1.416c-.263.158-.577.205-.874.13-.297-.075-.552-.265-.708-.528l-1.419-2.373c-.326-.547-.148-1.254.398-1.582l2.374-1.416c.262-.158.577-.205.873-.13.297.075.552.265.708.528l1.42 2.371zM44.962 7.44c.327.547.149 1.256-.399 1.584l-2.37 1.416c-.548.327-1.257.15-1.584-.398l-1.417-2.365c-.326-.547-.148-1.255.398-1.583l2.373-1.417c.263-.158.577-.204.874-.13.297.075.552.265.708.528l1.417 2.365z" transform="translate(-10 .396) translate(10) translate(161.268 92.136)"/>
                                    <path fill="#030607" d="M20.836 29.401l7.82 13.082c.246.411.682.671 1.161.693.48.02.937-.2 1.219-.588l11.356-15.664c.335-.462.363-1.08.07-1.57s-.85-.758-1.416-.682l-19.174 2.58c-.477.064-.89.362-1.098.795-.208.433-.185.942.062 1.354z" transform="translate(-10 .396) translate(10) translate(161.268 92.136)"/>
                                </g>
                            </g>
                        </g>
                    </g>
                </g>
            </g>
        </g>
    </g>
</svg>
