<svg xmlns="http://www.w3.org/2000/svg" xmlns:xlink="http://www.w3.org/1999/xlink" width="460" height="280" viewBox="0 0 460 280">
    <defs>
        <path id="orp3z584ea" d="M0 0H460V280H0z"/>
    </defs>
    <g fill="none" fill-rule="evenodd">
        <g>
            <g>
                <g transform="translate(-390 -140) translate(390 140)">
                    <use fill="#484848" opacity=".499" xlink:href="#orp3z584ea"/>
                </g>
                <g fill="#585858" fill-rule="nonzero">
                    <path d="M11.202 36.66c1.667.433 2.67 2.142 2.234 3.813L6.352 67.64c-.438 1.675.558 3.404 2.225 3.862L72.975 88.75c1.654.437 3.362-.546 3.795-2.192l2.2-8.876c.417-1.674 2.109-2.691 3.783-2.282 1.676.416 2.697 2.108 2.284 3.782L82.829 88.1c-1.113 4.22-4.913 7-9.067 7-.787 0-1.591-.1-2.388-.308L6.939 77.536C1.97 76.165-.994 71.023.306 66.056l7.083-27.163c.434-1.667 2.138-2.68 3.813-2.233zM90.625 3.43c5.17 0 9.375 4.204 9.375 9.375v47.918c0 5.17-4.204 9.375-9.375 9.375H26.04c-3.659 0-6.834-2.105-8.378-5.168-.731-.732-1.024-1.74-.875-2.693-.08-.493-.122-.999-.122-1.514V12.805c0-5.17 4.204-9.376 9.375-9.376h64.585zm-17.68 28.333c-.179 0-.525.055-.8.38l-17.667 21.21c-.563.674-1.383 1.083-2.258 1.12-.892.05-1.734-.292-2.35-.913l-7.459-7.458c-.53-.53-.966-.53-1.496 0L23.96 63.055c.553.493 1.281.793 2.08.793h64.585c1.725 0 3.125-1.4 3.125-3.125l-.001-5.25-20.004-23.338c-.275-.33-.612-.313-.8-.372zM90.625 9.68H26.04c-1.725 0-3.125 1.4-3.125 3.125l-.001 42.454 13.584-13.582c2.85-2.85 7.488-2.85 10.334 0l5.038 5.037L67.345 28.14c1.383-1.659 3.413-2.617 5.567-2.63 2.316-.128 4.192.925 5.587 2.563l15.25 17.792.001-33.06c0-1.724-1.4-3.124-3.125-3.124zm-53.126 6.25c4.596 0 8.333 3.738 8.333 8.334s-3.737 8.333-8.333 8.333-8.334-3.737-8.334-8.333 3.738-8.334 8.334-8.334zm0 6.25c-1.15 0-2.084.934-2.084 2.084s.933 2.083 2.084 2.083c1.15 0 2.083-.934 2.083-2.083 0-1.15-.934-2.084-2.083-2.084z" transform="translate(-390 -140) translate(390 140) translate(180 90)"/>
                </g>
            </g>
        </g>
    </g>
</svg>
