<svg xmlns="http://www.w3.org/2000/svg" width="300" height="324" viewBox="0 0 300 324">
    <g fill="none" fill-rule="evenodd">
        <g fill-rule="nonzero">
            <g transform="translate(-1225 -130) translate(1225 130)">
                <rect width="139.913" height="147.93" x="83.585" y="106.141" fill="#F5C518" rx="69.956"/>
                <path fill="#FB3030" d="M83.22 162.679L81.455 162.679 81.455 153.153 73.647 150.489 74.2 148.757 83.22 151.833z"/>
                <path fill="#BB1B1B" d="M81.817 162.335L81.817 152.808 73.786 150.055 73.647 150.489 81.455 153.153 81.455 162.679 83.22 162.679 83.22 162.335z"/>
                <g fill="#F66" opacity=".8">
                    <path d="M0.216 0.015L0.025 0.609 8.666 3.557 8.666 13.936 9.235 13.936 9.235 3.09z" transform="translate(73.985 148.743)"/>
                </g>
                <path fill="#FFF" d="M86.168 163.534L97.341 162.207 96.723 160.487 86.168 160.487 86.085 160.487 75.53 160.487 74.912 162.207 86.085 163.534 86.085 163.544 86.127 163.539 86.168 163.544z"/>
                <path fill="#F1F1F1" d="M75.169 161.491L74.912 162.207 86.085 163.534 86.085 163.544 86.127 163.539 86.168 163.544 86.168 163.534 97.341 162.207 97.084 161.491z"/>
                <path fill="#FB3030" d="M98.926 206.871L101.784 165.046 70.552 165.046 73.411 206.871z"/>
                <g fill="#C31E1E" opacity=".65">
                    <path d="M28.424 41.881L31.281 0.056 0.049 0.056 2.908 41.881z" transform="translate(70.503 164.99)"/>
                </g>
                <path fill="#FB5656" d="M98.926 206.871L101.474 169.601 70.864 169.601 73.411 206.871z"/>
                <g fill="#FB3030" opacity=".7">
                    <path d="M28.133 37.336L30.681 0.065 0.071 0.065 2.618 37.336z" transform="translate(70.793 169.536)"/>
                </g>
                <path fill="#FB3030" d="M80.551 206.871L79.647 169.601 70.864 169.601 73.411 206.871zM98.926 206.871L101.474 169.601 92.691 169.601 91.785 206.871z"/>
                <g fill="#C31E1E" opacity=".78">
                    <path d="M4.031 41.881L1.509.056.049.056 2.908 41.881zM28.424 41.881L31.281.056 29.823.056 27.301 41.881z" transform="translate(70.503 164.99)"/>
                </g>
                <path fill="#E9E9E9" d="M70.263 164.479s13.54-2.12 31.811 0l-4.849 1.29-19.767.13-7.195-1.42z"/>
                <path fill="#F1F1F1" d="M102.859 167.886s-.114-4.483-2.628-5.679H72.106c-2.514 1.196-2.628 5.679-2.628 5.679l16.69-.069 16.69.069z"/>
                <path fill="#FFF" d="M100.274 167.886s-.097-4.483-2.225-5.679H74.284c-2.127 1.196-2.224 5.679-2.224 5.679l14.105-.069 14.109.069z"/>
                <g fill="#FFF" opacity=".24">
                    <path d="M4.172.074h-2.96C.873.08.55.23.325.485.1.741-.009 1.08.027 1.42c.046.623.56 1.108 1.186 1.118h2.96c.666-.019 1.197-.565 1.197-1.232S4.839.092 4.172.074z" transform="translate(76.209 170.89)"/>
                </g>
                <g fill="#FFF" opacity=".24">
                    <path d="M1.39.112C1.056-.063.65.07.397.331c-.507.602-.457 1.572.096 2.096.484.472 1.318.315 1.75-.21.202-.29.228-.628.202-.967C2.372.697 1.966.12 1.39.112z" transform="translate(73.114 170.793)"/>
                </g>
                <path fill="#FFF" d="M72.269 163.926c.153-.326.336-.638.546-.932h-.87c-.23.295-.439.607-.623.932h.947zM71.083 164.397c-.328.66-.54 1.374-.626 2.107h1c.133-.721.338-1.427.61-2.107h-.984z"/>
                <path fill="#C09B14" d="M203.628 109.605v141.006c11.73-5.676 19.873-17.709 19.873-31.55v-77.91c0-13.84-8.143-25.87-19.873-31.546z"/>
                <rect width="67.742" height="21.59" x="115.779" y="250.69" fill="#585858" rx="10.795"/>
                <path fill="#0E1923" d="M172.727 274.38h-46.153c-7.11 0-12.895-5.785-12.895-12.895 0-7.11 5.785-12.897 12.895-12.897h46.153c7.11 0 12.896 5.785 12.896 12.897 0 7.11-5.786 12.895-12.896 12.895zm-46.152-21.59c-4.801 0-8.694 3.893-8.694 8.695 0 4.801 3.893 8.694 8.694 8.694h46.152c4.802 0 8.695-3.893 8.695-8.694 0-4.802-3.893-8.695-8.695-8.695h-46.152z"/>
                <rect width="37.537" height="16.291" x="200.446" y="208.559" fill="#585858" rx="8.146"/>
                <path fill="#585858" d="M229.837 226.95H208.59c-3.736.115-7.238-1.812-9.14-5.03-1.902-3.217-1.902-7.215 0-10.432 1.902-3.218 5.404-5.145 9.14-5.03h21.246c5.536.17 9.936 4.707 9.936 10.246 0 5.54-4.4 10.077-9.936 10.247zm-21.246-16.29c-3.338 0-6.045 2.706-6.045 6.044 0 3.338 2.707 6.045 6.045 6.045h21.246c3.338 0 6.044-2.707 6.044-6.045s-2.706-6.044-6.044-6.044H208.59z"/>
                <g fill="#0E1923" opacity=".12" transform="translate(0 291.296)">
                    <ellipse cx="149.586" cy="16.024" rx="147.485" ry="13.867"/>
                    <path d="M149.586 31.991c-39.458 0-76.565-1.446-104.484-4.07-13.637-1.282-24.353-2.778-31.867-4.449-3.91-.87-6.942-1.793-9.014-2.745C3.176 20.244 0 18.793 0 16.023c0-2.77 3.176-4.223 4.22-4.703 2.073-.952 5.106-1.876 9.015-2.745 7.514-1.67 18.235-3.167 31.867-4.448 27.92-2.625 65.026-4.07 104.484-4.07s76.566 1.445 104.486 4.07c13.636 1.281 24.353 2.778 31.866 4.448 3.91.87 6.942 1.793 9.015 2.745 1.043.484 4.22 1.94 4.22 4.703 0 2.764-3.177 4.225-4.22 4.704-2.073.952-5.106 1.876-9.015 2.745-7.513 1.67-18.235 3.166-31.866 4.449-27.92 2.624-65.028 4.07-104.486 4.07zM4.427 16.024c1.33 1.064 8.41 4.81 43.916 7.974 27.442 2.445 63.398 3.791 101.243 3.791 37.845 0 73.8-1.346 101.244-3.79 35.507-3.164 42.587-6.912 43.916-7.975-1.33-1.064-8.414-4.81-43.916-7.974-27.442-2.44-63.398-3.795-101.244-3.795s-73.8 1.347-101.243 3.791C12.837 11.22 5.756 14.962 4.427 16.024z"/>
                </g>
                <path fill="#585858" d="M207.583 216.084H229.598V250.689H207.583z"/>
                <path fill="#585858" d="M231.7 252.79h-26.217v-38.807H231.7v38.807zm-22.015-4.202h17.813v-30.406h-17.813v30.406zM101.785 224.855H75.206c-4.493-.014-8.132-3.653-8.145-8.146.013-4.493 3.652-8.132 8.145-8.145h21.246c4.493.013 8.131 3.652 8.145 8.145 0 4.47 1.668 8.146-2.812 8.146z"/>
                <path fill="#585858" d="M101.785 226.95H75.206c-3.736.115-7.238-1.812-9.14-5.03-1.902-3.217-1.902-7.215 0-10.432 1.902-3.218 5.404-5.145 9.14-5.03h21.246c5.658.003 10.245 4.588 10.251 10.246 0 .938.082 1.856.162 2.743.204 2.29.398 4.453-1.045 6.03-.91.992-2.23 1.474-4.035 1.474zm-26.579-16.29c-3.338 0-6.044 2.706-6.044 6.044 0 3.338 2.706 6.045 6.044 6.045h26.58c.58 0 .842-.084.927-.12.175-.42.047-1.85-.039-2.804-.083-.933-.178-1.991-.178-3.117-.004-3.337-2.708-6.04-6.044-6.045l-21.246-.003z"/>
                <path fill="#585858" d="M74.198 216.084H96.213V250.689H74.198z"/>
                <path fill="#585858" d="M98.314 252.79H72.098v-38.807h26.216v38.807zM76.3 248.588h17.813v-30.406H76.3v30.406z"/>
                <path fill="#13A099" d="M112.309 229.662c-2.865-2.06-5.67-4.188-7.507-7.283-.882-1.463-1.714-2.946-2.496-4.449-10.367-17.408-10.174-40.328 1.697-56.994 1.183-1.728 2.467-3.386 3.845-4.964 4.127-4.742 9.03-8.747 14.501-11.844.7-.421 1.4-1.121 1.961-1.821.42-.56 1.12-.28 1.68-.56-.729 1.322-1.39 2.68-1.98 4.07-.588 1.382-1.109 2.79-1.57 4.223-1.248 4.788-2.272 9.63-3.117 14.506-.281 1.625-.544 3.255-.788 4.89-2.225 13.588-2.805 27.321-2.07 40.972 0 1.912-.068 3.816-.237 5.706-.336 3.772-1.094 7.47-2.65 11.017-.38.824-.803 1.667-1.27 2.531zM197.582 227.42c1.435-1.2 2.796-2.485 4.076-3.848 1.277-1.362 2.474-2.797 3.586-4.297 9.615-12.757 13.387-30.261 7.39-45.252-2.804-6.866-7.06-13.056-12.155-18.421-1.032-1.1-2.096-2.164-3.192-3.192s-2.223-2.024-3.38-2.99c-1.174-.973-2.396-1.903-3.665-2.788-1.27-.886-2.591-1.725-3.965-2.515-.7-.42-1.4-1.12-1.96-1.821-.421-.56-1.122-.28-1.682-.56 1.45 2.645 2.64 5.424 3.555 8.298.463 1.436.87 2.901 1.232 4.386.42 1.918.824 3.84 1.212 5.78 4.363 18.942 4.073 38.381 6.2 57.629.29 2.418.968 4.642 1.775 6.873.296.877.616 1.778.973 2.718z"/>
                <path fill="#F5C518" d="M203.628 226.667h-68.462c-1.467 0-2.901 0-4.292.008-11.887 1.626-29.254-.336-34.72 11.992-2.66 5.743-6.022 14.287-.302 19.791.985.987 2.15 1.775 3.432 2.321 1.326.563 2.752.853 4.192.852h100.152c5.937 0 10.795-4.858 10.795-10.795v-13.374c0-5.934-4.858-10.795-10.795-10.795z"/>
                <path fill="#898886" d="M187.62 147.099c-6.962-12.071-13.567-20.006-13.567-20.006l-20.213 3.552-20.212-3.552c-.44-.077-2.69 3.456-2.937 3.788-2.547 3.424-4.95 6.956-7.224 10.566-1.167 1.852-2.295 3.743-3.4 5.652h67.554z"/>
                <path fill="#13A099" d="M154.942 138.313c-9.174 0-17.76-2.281-25.114-6.25-1.615 2.218-3.63 5.11-5.817 8.539-1.568 2.44-3.102 4.999-4.572 7.653-.735 1.328-1.453 2.68-2.153 4.053-7 14.061-10.551 29.717-10.007 45.146.06 1.715.17 3.425.333 5.131.606 7.91 1.889 17.636 8.211 22.41 1.333 1 2.837 1.751 4.438 2.217 20.425 5.105 42.94 9.267 63.056.332 1.736-.68 3.409-1.51 5-2.481 4.711-2.901 8.488-7.126 10.65-13.207.506-1.329.943-2.682 1.309-4.056 1.842-6.884 2.015-14.321 1.392-21.256-.193-2.162-.472-4.315-.837-6.46-.605-3.237-1.405-6.434-2.396-9.574-1.978-6.287-4.686-12.36-7.95-18.1-.63-1.12-1.267-2.23-1.911-3.333-1.928-3.31-3.89-6.582-5.775-9.843-.795-1.22-1.561-2.363-2.287-3.422-.727-1.059-1.414-2.03-2.049-2.917-6.993 3.454-15.003 5.418-23.521 5.418z"/>
                <path fill="#04998E" d="M154.932 138.315c-.108 0-.214 0-.322-.005.104 0 .205.005.309.005h.013z"/>
                <path fill="#13A099" d="M201.666 186.544c-.193-2.162-.472-4.315-.837-6.46-.605-3.237-1.405-6.434-2.396-9.574-1.977-6.287-4.686-12.36-7.95-18.1-.63-1.12-1.267-2.23-1.911-3.333-1.928-3.31-3.89-6.582-5.775-9.843-.795-1.22-1.561-2.363-2.287-3.422-.727-1.059-1.414-2.03-2.049-2.917-.465.23-.934.453-1.409.669.46.7.943 1.449 1.45 2.248.671 1.064 1.378 2.203 2.111 3.422 1.741 3.261 3.55 6.533 5.327 9.843.593 1.105 1.181 2.216 1.764 3.333 3.041 5.771 5.497 11.832 7.33 18.093.917 3.147 1.655 6.344 2.21 9.574.334 2.143.592 4.296.774 6.46.46 5.548.45 11.418-.443 17.068-.223 1.412-.501 2.812-.84 4.188-.203 1.72-.577 3.414-1.118 5.058-.504 1.526-1.165 2.995-1.972 4.385-3.586 6.562-10.396 10.155-17.021 12.993 6.62-1.512 13.43-4.54 17.866-9.864.993-1.198 1.86-2.495 2.59-3.869.78-1.483 1.41-3.04 1.88-4.649.507-1.328.944-2.682 1.31-4.056 1.846-6.875 2.02-14.312 1.396-21.247zM123.998 226.913c-1.558-.665-3.062-1.451-4.498-2.351-1.19-.768-2.256-1.71-3.165-2.795-4.316-5.172-4.2-12.692-5.079-19.182-.15-1.706-.253-3.416-.308-5.131-.501-15.429 2.773-31.085 9.232-45.146.645-1.374 1.306-2.725 1.985-4.053 1.354-2.654 2.771-5.213 4.218-7.653 1.802-3.061 3.474-5.69 4.872-7.797-.48-.24-.956-.487-1.427-.741-1.615 2.217-3.63 5.11-5.817 8.538-1.568 2.44-3.102 4.999-4.572 7.653-.735 1.328-1.453 2.68-2.153 4.053-7 14.061-10.551 29.717-10.007 45.146.06 1.715.17 3.425.333 5.131.763 7.594 1.81 16.742 7.834 21.77 1.272 1.056 2.71 1.893 4.255 2.48 1.632.619 3.3 1.135 4.996 1.547 2.95.75 5.94 1.33 8.955 1.735-3.317-.743-6.551-1.816-9.654-3.204z"/>
                <path fill="#04998E" d="M135.037 230.304c-.463-.058-.926-.12-1.389-.184.461.106.924.205 1.389.297v-.113z"/>
                <path fill="#898886" d="M148.884 117.136c-6.093.2-12.31-.492-18.53 1.582-5.529 2.764-5.529 9.67-2.074 14.513 5.53 6.912 17.279 6.22 22.808 0 2.764-3.455 4.147-8.984 1.678-12.776-.551-.676-1.655-1.669-3.882-3.319zM160.258 117.136c6.093.2 12.31-.492 18.53 1.582 5.53 2.764 5.53 9.67 2.074 14.513-5.53 6.912-17.279 6.22-22.808 0-2.764-3.455-4.146-8.984-1.678-12.776.551-.676 1.651-1.669 3.882-3.319z"/>
                <rect width="25.104" height="69.934" x="142.019" y="67.48" fill="#FFC88D" rx="12.552"/>
                <path fill="#074A82" d="M270.947 280.857c-9.276-10.884-18.938-21.491-29.63-31.013-11.18-9.961-23.45-18.966-36.995-25.435-4.754-2.27-9.865-3.797-15.017-4.88-5.282-1.11-10.71-1.799-16.108-1.942-2.762.114-5.393 1.204-7.427 3.076-1.872 2.035-2.962 4.666-3.078 7.428.122 2.718 1.015 5.535 3.078 7.428 2.086 1.915 4.557 2.998 7.427 3.077 2.608.07 5.21.277 7.795.619l-2.792-.376c5.717.774 11.315 2.206 16.741 4.165l-2.515-1.06c7.267 3.376 14.183 7.464 20.729 12.081 1.855 1.31 3.68 2.658 5.478 4.047l-2.127-1.645c11.518 8.898 21.838 19.24 31.54 30.067 2.72 3.037 5.4 6.11 8.038 9.219 2.985 3.071 7.575 3.94 11.476 2.172 1.297-.42 2.464-1.168 3.385-2.172 1.837-2.002 3.202-4.63 3.077-7.428l-.375-2.793c-.484-1.753-1.415-3.35-2.702-4.635h.002z"/>
                <path fill="#04998E" d="M281.165 294.111c3.978-5.649 10.753-11.942 14.018-18.643.46-.936.85-1.906 1.166-2.901.875-2.564.957-5.332.235-7.943-1.746-7.035-9.427-10.509-16.291-10.674-.769-.017-1.538.023-2.3.12-1.23.145-2.437.43-3.601.85-1.063.386-2.077.897-3.02 1.52-.688.458-1.347.957-1.975 1.493-4.567 4.475-7.502 10.735-8.128 17.028-.067.866-.097 1.718-.15 2.565-.146 2.54-.446 5.055-1.779 7.375-1.282 2.252-3.469 4.138-3.965 6.848-.086.77-.103 1.547-.052 2.32.366 5.513 3.385 11.29 8.736 12.915 5.876 1.886 9.381-4.699 12.993-8.336.549-.572 1.086-1.13 1.62-1.663.885-.924 1.717-1.891 2.493-2.874z"/>
                <path fill="#FFF7F7" d="M285.13 298.249c1.188-1.54 2.281-3.158 3.319-4.789 3.553-5.587 7.235-11.218 8.619-17.802 1.717-8.173-.75-19.511-11.047-19.122-3.795.143-7.4 1.965-10.183 4.545-8.198 7.597-8.905 19.771-14.268 29.124-1.079 1.88-2.241 3.734-2.945 5.783-3.182 9.25 6.888 13.554 14.511 11.316 4.91-1.434 8.927-5.08 11.995-9.055z"/>
                <path fill="#20323F" d="M287.554 300.795c1.188-1.539 2.28-3.158 3.318-4.788 3.554-5.586 7.235-11.219 8.62-17.803 1.717-8.172-.751-19.51-11.047-19.122-3.794.143-7.4 1.965-10.184 4.546-8.197 7.595-8.904 19.77-14.268 29.122-1.078 1.88-2.24 3.735-2.945 5.784-3.181 9.25 6.888 13.553 14.512 11.32 4.904-1.44 8.926-5.084 11.994-9.059z"/>
                <g fill="#E28869" opacity=".49" transform="translate(141.973 67.408)">
                    <rect width="25.104" height="69.934" x=".046" y=".072" rx="12.552"/>
                </g>
                <path fill="#FFC88D" d="M154.463 119.575c-4.183-.001-8.354-.447-12.444-1.327v6.293c0 6.903 5.648 12.552 12.553 12.552 6.903 0 12.552-5.65 12.552-12.552v-6.339c-4.159.912-8.403 1.373-12.66 1.373z"/>
                <path fill="#FFD399" d="M110.984 67.358c-.049-.34-1.771-.914-2.08-1.028-.786-.293-1.604-.49-2.436-.587-1.521-.173-3.116.008-4.485.723-2.805 1.465-4.03 4.836-4.274 7.813-.275 3.361.716 6.378 2.752 9.041 2.476 3.24 6.28 5.776 10.47 5.776 1.51 0 2.265-.756 2.514-2.635.235-.601.372-1.237.405-1.882.037-.709-.032-1.42-.203-2.109-.06-.523-.138-1.047-.219-1.562-.16-1.03-.325-2.03-.358-2.916-.118-.541-.25-1.086-.387-1.632-.414-1.64-.878-3.303-1.153-5-.16-1.244-.342-2.578-.546-4.002z"/>
                <path fill="#4C2D01" d="M184.72 35.9c-.09-.37-.15-.746-.225-1.12 0-.145-.014-.391-.04-.766l.014-.35c.177-.173.334-.365.467-.573l.033-.03c.156-.104.305-.216.462-.316.995-.642 2.036-1.215 3.086-1.76 2.1-1.092 4.268-2.048 6.429-3.01 1.107-.494 2.097-1.215 2.907-2.116 2.998 2.074 5.081 4.987 6.4 8.353.331.85.615 1.72.848 2.603 1.723 10.753.967 22.079-5.827 30.384 0-9.06-4.53-18.12-12.38-24.456-.692-.5-1.413-.958-2.159-1.375.378-1.803.373-3.667-.015-5.469z"/>
                <path fill="#FFD399" d="M198.845 44.712c1.01 4.752 1.322 9.42 1.27 14.058-.017 1.547-.075 3.088-.161 4.628-.682 18.147-2.947 37.024-16.948 49.522-2.616 2.468-5.521 4.611-8.651 6.383-15.1 8.305-33.223 6.04-46.48-3.834-9.954-7.63-16.391-18.969-17.841-31.426-.438-3.759-.809-7.601-.774-11.387.014-2.765.236-5.524.665-8.256 0-4.029.233-7.53 1.872-11.27.406-.929.756-1.883 1.14-2.818.382-.934 1.02-1.577 1.517-2.454.642-1.137.87-2.162 1.803-3.135.897-.938 1.88-1.778 2.73-2.763.717-.852 1.562-1.587 2.505-2.179 1.054-.685 1.73-1.781 2.77-2.45 2.106-1.353 4.753-1.71 7.067-2.603 2.883-1.111 5.92-1.508 8.868-2.403 3.121-.947 6.46-.453 9.613-.98 2.887-.484 5.7-.393 8.636-.388 4.642 0 8.807.29 13.31 1.398 2.716.668 4.848 1.837 7.412 2.862.892.357 1.733.802 2.583 1.222 3.902 1.723 8.221 3.06 12.169 5.283.789.445 1.563.925 2.315 1.451.814.471 1.684.984 2.61 1.539z"/>
                <g fill="#4C2D01" opacity=".22">
                    <path d="M101.376 3.28h.727c-.66-1.206-1.487-2.31-2.46-3.28.677 5.405-2.937 11.544-8.295 13.03-5.374 1.491-11.161-1.028-16.071-2.997-4.941-1.987-9.962-4.114-15.17-5.236-1.041-.224-2.089-.408-3.145-.543C40.75.76 26.402 9.066 18.6 22.953c-.956-.28-1.961-.344-2.944-.188-.978.05-1.94.269-2.843.646-3.965 1.133-6.937 3.304-9.066 6.124-.532.704-1.01 1.448-1.429 2.224-4.185 7.798-1.832 16.538.324 24.504.264.796.554 1.583.877 2.359.644 1.575 1.45 3.08 2.405 4.488.128-.734.946-.084 1.12-.81 1.755-9.151 5.765-16.656 13.83-21.044 14.233-7.745 27.676 5.878 40.636 9.851 12.345 3.785 28.53 4.217 39.865-2.753l.002-45.075z" transform="translate(104.159 3.385)"/>
                </g>
                <path fill="#714514" d="M219.137 19.376c-.281-4.18-1.556-8.239-4.01-11.826 0 2.643-.943 5.097-2.453 7.173-.81 1.114-1.858 2.01-2.877 2.921-.442.395-2.794 1.74-2.901 2.106 2.02-6.715 2.195-14.459-3.094-19.75.677 5.405-2.937 11.544-8.295 13.03-5.375 1.491-11.162-1.028-16.072-3.002-4.94-1.986-9.961-4.114-15.17-5.236-1.04-.224-2.088-.408-3.144-.542-16.213-3.495-30.561 4.81-38.363 18.698-.955-.28-1.961-.344-2.945-.188-.977.05-1.939.269-2.842.646-7.93 2.266-11.896 8.684-13.074 16.151-.236 1.516-.366 3.046-.386 4.58-.134 7.966 2.127 15.517 6.135 22.36.13-.735.279-1.466.453-2.191 1.754-9.152 6.866-18.66 14.931-23.048 14.235-7.746 27.678 5.877 40.637 9.85 17.19 5.27 41.82 4.04 50.45-14.624 2.367-5.114 3.398-11.517 3.02-17.108z"/>
                <path fill="#855723" d="M107.855 40.924c.02-1.534.15-3.065.387-4.58.707-4.47 2.418-8.555 5.378-11.606-5.712 2.933-8.72 8.494-9.72 14.815-.238 1.516-.367 3.046-.387 4.58-.134 7.967 2.127 15.517 6.135 22.36.13-.735.278-1.466.453-2.191.37-1.913.875-3.796 1.51-5.638-2.5-5.57-3.86-11.528-3.756-17.74zM156.603 12.505c1.805.22 3.601.51 5.383.885 5.488.642 10.723 3.166 15.92 5.673 1.731.835 3.459 1.67 5.19 2.431 1.05.689 2.163 1.272 3.327 1.741 1.154.465 2.348.824 3.567 1.073 5.637 1.899 13.153-.097 16.948-4.723C208.917 12.908 209.05 5.25 203.802 0c.677 5.405-2.937 11.544-8.295 13.03-5.375 1.491-11.162-1.028-16.072-3.002-4.94-1.986-9.961-4.115-15.17-5.236-1.04-.224-2.088-.408-3.144-.542-13.357-2.88-25.443 2.255-33.656 11.917 8.663-3.91 19.053-4.888 29.138-3.662z"/>
                <path fill="#4C2D01" d="M169.76 47.302c-12.96-3.973-26.403-17.602-40.637-9.855-2.548 1.385-4.797 3.282-6.742 5.512.843-.631 1.729-1.203 2.652-1.71 14.232-7.737 27.675 5.886 40.634 9.86 14.932 4.577 35.471 4.243 46.268-8.154-11.355 8.597-28.962 8.399-42.176 4.347z"/>
                <path fill="#855723" d="M206.938 19.586s-8.17 13.51-32.083 12.126c0 0 14.345-3.146 18.12-10.067l13.963-2.059z"/>
                <g fill="#4C2D01" opacity=".59">
                    <path d="M.022 8.382c.873-.79 1.825-1.49 2.84-2.088 5.847-3.32 12.168-4.035 18.109-2.78 1.19.253 2.364.582 3.513.986 2.091.692 4.036 1.73 5.907 2.933.623.403 1.238.822 1.846 1.258 7.235 6.062 14.786 11.348 24.601 10.592-9.815 0-18.12-6.04-24.352-12.635-.822-.684-1.66-1.329-2.52-1.927-.853-.598-1.74-1.144-2.657-1.638-1.153-.623-2.349-1.162-3.579-1.614C16.413-1.205 8.318-.454 2.357 6.184 1.474 6.973.705 7.705.022 8.382z" transform="translate(125.822 26.015)"/>
                </g>
                <path fill="#855723" d="M200.039 97.799c-1.002-2.301-2.322-4.45-3.921-6.383-6.39 10.089-19.506 12.106-30.415 13.799-1.1.146-2.205.275-3.313.387-3.29.332-6.596.478-9.903.436-1.3-.02-2.584-.075-3.853-.164-5.287-.536-10.962-1.153-16.406-2.444-2.722-.646-5.387-1.459-7.917-2.514-2.53-1.055-4.923-2.354-7.106-3.965-2.236-1.642-4.204-3.62-5.835-5.865-1.4 1.961-2.41 4.073-3.172 6.269-4.385 12.649-3.76 28.226 3.17 39.961 7.716 13.069 22.9 19.954 37.602 21.171 12.823 1.064 26.253-1.99 36.813-9.498 4.99-3.546 9.22-8.113 12.257-13.436 6.485-11.382 7.284-25.77 1.999-37.754z"/>
                <g fill="#CCB39B" opacity=".1">
                    <path d="M11.34 2.003c-.11-.626-.266-1.242-.468-1.844-.76 2.913-2.32 3.496-3.618 3.984-.13.042-.262.08-.393.11-.385.096-.782.139-1.178.127-.154-.005-.307-.021-.459-.047-.628-.155-1.303-.334-1.951-.706-.345-.199-.662-.443-.941-.727-.333-.34-.618-.726-.846-1.145C1.194 1.218.961.65.792.062.623.655.497 1.26.415 1.872c-.522 3.651-.448 8.148.377 11.537.918 3.772 2.723 5.76 4.472 6.112 1.526.307 3.123-.575 4.38-2.742.593-1.024 1.096-2.343 1.458-3.88.77-3.282.866-7.436.237-10.896z" transform="translate(148.55 102.515)"/>
                </g>
                <g fill="#714514" opacity=".43">
                    <path d="M94.623 6.793c-1.002-2.3-2.322-4.45-3.92-6.383-1.996 3.15-4.643 5.513-7.683 7.326 3.757 8.824 3.121 19.335-1.63 27.665-2.253 3.951-5.394 7.34-9.091 9.972-7.834 5.572-17.806 7.834-27.323 7.05-10.91-.905-22.18-6.014-27.907-15.713-5.023-8.51-5.58-19.73-2.574-28.993-.93-.545-1.833-1.139-2.701-1.779C9.558 4.296 7.59 2.318 5.959.074c-1.401 1.96-2.41 4.072-3.172 6.268-4.385 12.65-3.76 28.227 3.17 39.962 7.716 13.068 22.9 19.953 37.602 21.17 12.823 1.065 26.253-1.99 36.813-9.497 4.99-3.547 9.22-8.113 12.257-13.436 6.48-11.376 7.28-25.763 1.994-37.748z" transform="translate(105.416 91.006)"/>
                </g>
                <g fill="#714514" opacity=".43">
                    <path d="M94.623 6.793c-1.002-2.3-2.322-4.45-3.92-6.383-.776 1.222-1.675 2.362-2.682 3.402.625 1.006 1.178 2.054 1.655 3.138 4.712 10.684 4 23.51-1.781 33.648-2.708 4.745-6.48 8.817-10.929 11.978-9.415 6.693-21.387 9.414-32.818 8.468-13.104-1.09-26.643-7.227-33.518-18.878C4.453 31.704 3.896 17.818 7.805 6.542c.345-1.005.757-1.985 1.233-2.936C7.907 2.521 6.875 1.338 5.955.07c-1.402 1.96-2.41 4.072-3.173 6.268-4.385 12.65-3.76 28.227 3.17 39.962 7.716 13.068 22.901 19.953 37.602 21.171 12.823 1.064 26.254-1.99 36.814-9.498 4.989-3.547 9.22-8.113 12.256-13.436 6.485-11.372 7.284-25.76 1.999-37.744z" transform="translate(105.416 91.006)"/>
                </g>
                <g fill="#714514" opacity=".43">
                    <path d="M.07 7.633c5.21 5.934 14.798 6.942 20.848 1.73 1.682-1.346 2.355-4.036 1.01-5.717-4.71-6.39-14.12-3.191-19.511.698-.703.514-1.374 1.071-2.009 1.668-.341.485-.483 1.025-.337 1.621z" transform="translate(142.747 99.033)"/>
                </g>
                <path fill="#CCC" d="M142.817 105.32c5.21 5.932 14.797 6.941 20.847 1.728 1.682-1.345 2.355-4.034 1.01-5.716-4.709-6.39-14.12-3.192-19.51.698-.704.514-1.374 1.071-2.01 1.667-.34.488-.483 1.027-.337 1.622z"/>
                <g fill="#4C2D01" opacity=".22">
                    <path d="M7.242 2.083c-.078-.15-.165-.294-.261-.432C6.49.94 5.765.43 4.932.206 4.792.17 4.65.141 4.505.121 3.81.023 3.103.117 2.458.39c-.2.086-.392.188-.575.305-2.477 1.639-2.14 5.17-.518 7.29.12.176.247.345.38.511.411.507.867.977 1.36 1.404 0-.075 0-.15.007-.218-.12-.606-.299-1.2-.656-1.694-.008-.012-.015-.025-.02-.04-.723-1.141-.999-2.537-.843-3.933.134-1.21.914-2.207 1.975-2.524.134-.04.27-.069.41-.087.677-.066 1.604.04 1.993.563.08.109.135.234.161.367.169.677-.504 1.008-.82 1.371-.113.097-.223.193-.32.298-.094.092-.177.195-.246.306-.103.12-.193.25-.268.387-.213.398-.237.831.141 1.336.083.123.187.23.307.315.35.248.796.32 1.206.194.12-.02.237-.052.349-.097 1.497-.748 1.497-2.933.76-4.362z" transform="translate(100.87 70.793)"/>
                </g>
                <path fill="#FFD399" d="M198.074 67.358c.05-.34 1.771-.914 2.08-1.028.786-.293 1.604-.49 2.437-.587 1.52-.173 3.115.008 4.485.723 2.805 1.465 4.03 4.836 4.273 7.813.275 3.361-.715 6.378-2.751 9.041-2.476 3.24-6.287 5.776-10.47 5.776-1.51 0-2.265-.756-2.509-2.635-.236-.6-.373-1.237-.406-1.882-.037-.709.032-1.42.204-2.109.06-.523.138-1.047.217-1.562.161-1.03.327-2.03.36-2.916.117-.541.25-1.086.387-1.632.413-1.64.877-3.303 1.152-5 .157-1.244.338-2.578.541-4.002z"/>
                <g fill="#4C2D01" opacity=".22">
                    <path d="M.56 2.083c.077-.15.164-.294.26-.432C1.312.94 2.04.429 2.873.206c.141-.036.284-.065.429-.085.693-.098 1.4-.004 2.045.27.2.086.393.188.576.305 2.476 1.639 2.14 5.17.518 7.29-.12.176-.247.345-.38.511-.411.507-.867.977-1.36 1.404 0-.075 0-.15-.007-.218.12-.606.3-1.2.656-1.694.009-.012.016-.025.021-.04.723-1.141.997-2.537.843-3.933-.135-1.21-.915-2.207-1.975-2.524-.134-.04-.271-.069-.41-.087-.677-.066-1.606.04-1.993.563-.081.109-.137.234-.163.367-.167.677.505 1.008.821 1.371.113.097.224.193.321.298.094.092.176.195.246.306.102.12.192.25.268.387.213.398.236.831-.142 1.336-.083.123-.187.23-.308.315-.35.248-.796.32-1.206.194-.12-.02-.236-.052-.348-.097C-.176 5.697-.176 3.512.56 2.083z" transform="translate(200.387 70.793)"/>
                </g>
                <circle cx="135.752" cy="73.632" r="3.757" fill="#232323" transform="rotate(-45 135.752 73.632)"/>
                <circle cx="174.844" cy="73.624" r="3.757" fill="#232323" transform="rotate(-84.35 174.844 73.624)"/>
                <path fill="#4C2D01" d="M177.814 99.44c-4.319-5.064-10.754-8.903-17.625-7.72-1.884.325-4.273 1.058-5.498 2.725-1.226-1.667-3.615-2.4-5.499-2.724-6.87-1.184-13.306 2.655-17.625 7.719-3.86 4.523-6.34 10.377-13.392 9.79 1.586.132 3.219 1.05 4.88 1.211 1.734.154 3.481.098 5.203-.166 3.625-.523 7.127-1.653 10.569-2.87 6.543-2.315 13.457-4.508 20.558-3.116 7.394 1.45 14.252 4.906 21.738 5.986 1.722.264 3.469.32 5.204.166 1.66-.162 3.293-1.08 4.879-1.212-7.051.588-9.533-5.264-13.392-9.789z"/>
                <path fill="#5E3708" d="M187.615 108.911c-.421.12-.852.205-1.288.253-1.735.154-3.482.098-5.204-.166-7.486-1.08-14.344-4.538-21.738-5.986-7.1-1.392-14.015.8-20.558 3.116-3.442 1.217-6.944 2.347-10.569 2.87-1.722.264-3.469.32-5.204.166-.436-.048-.867-.132-1.288-.253-1.167.326-2.385.434-3.591.318 1.586.133 3.219 1.05 4.88 1.212 1.734.154 3.481.098 5.203-.166 3.625-.523 7.127-1.653 10.569-2.87 6.543-2.315 13.457-4.508 20.558-3.116 7.394 1.45 14.252 4.906 21.738 5.986 1.722.264 3.469.32 5.204.166 1.66-.162 3.293-1.08 4.879-1.212-1.206.116-2.424.008-3.59-.318z"/>
                <path fill="#FFF" d="M159.335 105.62c-5.268-1.031-10.383-.637-15.37.862 5.376 4.88 14.066 5.415 19.7.568.264-.212.503-.455.712-.722-1.645-.488-3.352-.376-5.042-.707z"/>
                <path fill="#5E3708" d="M131.567 101.456c4.319-4.474 10.754-7.867 17.625-6.82 1.884.29 4.273.934 5.499 2.407 1.225-1.473 3.614-2.12 5.498-2.408 6.871-1.046 13.306 2.347 17.625 6.821 3.28 3.397 5.567 7.64 10.509 8.52.975-.31 1.934-.667 2.883-.747-7.051.588-9.533-5.266-13.392-9.789-4.319-5.064-10.754-8.903-17.625-7.72-1.884.325-4.273 1.058-5.498 2.725-1.226-1.667-3.615-2.4-5.499-2.724-6.87-1.184-13.306 2.655-17.625 7.719-3.86 4.523-6.34 10.377-13.392 9.79.946.079 1.908.436 2.883.747 4.942-.88 7.23-5.124 10.509-8.52z"/>
                <path fill="#FFF" d="M109.433 61.702v4.79l2.004 1.741c.31.269 1.218 6.818 1.862 8.862 1.132 3.594 2.764 7.315 5.592 9.906 3.606 3.306 9.074 3.526 13.679 3.02 4.424-.484 9.205-1.565 12.617-4.613 4.767-4.255 6.533-12.268 6.545-18.41.006-2.726-1.633-4.34-4.037-5.297 0 .001-15.734-6.257-38.262.001z"/>
                <path fill="#0C70BA" d="M114.453 64.006c.326 4.25.652 8.552 1.94 12.637.93 2.95 2.27 6.006 4.59 8.134 2.962 2.713 7.447 2.894 11.23 2.477 3.633-.4 7.558-1.283 10.359-3.786 3.913-3.496 5.363-10.071 5.374-15.114 0-2.238-1.34-3.563-3.314-4.352 0 .004-11.684-5.134-30.18.004z"/>
                <g fill="#FFF" opacity=".12">
                    <path d="M10.445.021L.01 24.751c.856-.015 1.7-.076 2.514-.166.406-.044.816-.096 1.228-.155L13.651.87C12.598.532 11.527.25 10.445.021z" transform="translate(129.69 62.67)"/>
                </g>
                <g fill="#FFF" opacity=".12">
                    <path d="M10.08.032L.073 21.318c.465.635.991 1.223 1.57 1.756.89.803 1.93 1.423 3.058 1.824L16.101.264C14.1.067 12.089-.011 10.079.032z" transform="translate(119.342 61.702)"/>
                </g>
                <path fill="#FFF" d="M200.635 61.702v4.79l-2.003 1.741c-.309.269-1.217 6.818-1.861 8.862-1.133 3.594-2.765 7.315-5.592 9.906-3.606 3.306-9.076 3.526-13.68 3.02-4.425-.484-9.204-1.565-12.617-4.613-4.767-4.255-6.532-12.268-6.545-18.41-.006-2.726 1.633-4.34 4.036-5.297 0 .001 15.734-6.257 38.262.001z"/>
                <path fill="#A80C0C" d="M195.616 64.006c-.327 4.25-.653 8.552-1.94 12.637-.697 2.212-1.625 4.483-3.023 6.377l-10.006-21.286c4.253.086 9.295.694 14.97 2.272zM174.629 61.966l11.398 24.635c-1.773.651-3.742.853-5.659.82l-10.433-24.73c1.55-.328 3.117-.57 4.694-.725z"/>
                <path fill="#C11E1E" d="M169.935 62.69l10.433 24.73c-.856-.015-1.702-.076-2.515-.166-.406-.044-.816-.096-1.228-.154l-9.894-23.56c1.053-.338 2.122-.622 3.204-.85z"/>
                <path fill="#A80C0C" d="M165.437 64.006s.445-.194 1.29-.468l9.9 23.562c-3.268-.465-6.642-1.41-9.13-3.632-3.914-3.496-5.363-10.071-5.374-15.114-.005-2.238 1.341-3.563 3.314-4.348z"/>
                <path fill="#C11E1E" d="M180.647 61.734l10.006 21.286c-.465.635-.99 1.223-1.568 1.757-.89.802-1.929 1.422-3.058 1.824L174.63 61.966c2-.197 4.009-.274 6.018-.232z"/>
                <path fill="#FFF" d="M147.946 61.966s6.303-1.38 13.415.204l-2.85 6.794s-3.772-2.143-6.951 0l-3.614-6.998z"/>
                <path fill="#04998E" d="M189.31 186.28c8.722 3.894 17.04 10.857 18.2 21.109 1.064 9.671-3.482 22.05-14.024 23.5-4.932.774-9.187-3.19-10.638-7.736-2.611-8.317 2.515-15.958 5.03-23.598 1.256-3.868.966-7.93.875-11.873.156-.479.342-.947.557-1.402z"/>
                <path fill="#FFC88D" d="M186.044 189.502c.057-.105 8.814 5.35 9.574 6.004 7.456 6.435 10.122 19.826 4.324 28.17-1.534 2.208-4.278 5.064-6.763 6.19-6.68 2.875-13.136-2.805-13.765-9.53-.496-6.466 2.062-12.312 4.853-18.1.253-.526.509-1.052.718-1.606.067-1.467.077-3.095.126-4.775.017-.56.038-1.123.067-1.688.272-.976.236-2.32.3-3.357.162-.447.35-.884.566-1.308z"/>
                <g fill="#353535" opacity=".2">
                    <path d="M22.875 13.799c.693-2.115-.956-4.104-3.403-5.006 1.735-.572 3.087-1.521 3.53-3.141.993-2.983-2.743-5.716-6.77-5.504-.868-.075-1.74-.088-2.611-.042-1.248.074-2.49.228-3.717.462v25.417c.077 1.728.077 4.074.077 5.833-3.52 0-7.038.586-9.97-1.173 3.519 4.692 8.801 4.105 13.726 3.456.475-.027.956-.06 1.438-.103 3.369-.303 6.708-1.111 7.447-3.903.677-2.116-.932-4.104-3.323-5.006 1.696-.573 3.016-1.521 3.45-3.142.685-2.116-.944-4.104-3.363-5.006 1.715-.573 3.051-1.521 3.49-3.142z" transform="translate(110.638 194.197)"/>
                </g>
                <g fill="#353535" opacity=".2">
                    <path d="M.905 13.378C.338 11.225 2.103 9.338 4.6 8.583 2.9 7.906 1.608 6.881 1.262 5.237.448 2.2 4.34-.306 8.35.145c.87-.022 1.74.016 2.605.114 1.24.146 2.47.372 3.682.677L13.192 25.23l-.061 1.078c-.178 1.721-.318 4.061-.422 5.819 3.512.209 6.99 1.003 10.02-.58-3.79 4.473-9.024 3.578-13.906 2.635-.472-.055-.952-.117-1.43-.189-3.344-.5-6.629-1.507-7.202-4.338-.552-2.153 1.174-4.04 3.614-4.8-1.659-.671-2.921-1.697-3.258-3.34-.558-2.154 1.187-4.041 3.655-4.798-1.679-.669-2.956-1.695-3.297-3.339z" transform="translate(171.954 197.872)"/>
                </g>
                <path fill="#585858" d="M135.486 269.686H162.868V307.888H135.486z"/>
                <path fill="#585858" d="M164.97 309.99h-31.584v-42.405h31.583v42.404zm-27.383-4.203h23.18v-34h-23.18v34z"/>
                <path fill="#074A82" d="M58.006 295.779c10.521-13.384 21.877-26.084 33.729-38.298 2.398-2.473 4.77-4.974 7.342-7.254.858-.762 1.74-1.497 2.647-2.206-.694.667-1.468 1.053-2.145 1.634 4.062-2.902 8.22-5.706 12.863-7.64-.87.386-1.644.87-2.515 1.063 5.126-2.224 10.542-3.578 16.055-4.352-.967.194-1.838.097-2.805.387 1.74-.29 3.482-.29 5.26-.439 1.49-.059 2.958-.314 4.434-.513l-2.792.375c3.572-.48 7.177-.658 10.779-.53 2.762-.114 5.393-1.205 7.427-3.077 1.872-2.034 2.963-4.665 3.078-7.427-.122-2.717-1.015-5.535-3.078-7.428-2.1-1.928-4.545-2.966-7.427-3.077-1.212-.046-2.418-.05-3.618-.015-1.2.033-2.398.102-3.594.198-2.442.27-4.86.27-7.278.56.968-.194 1.935-.097 2.902-.194-17.989-2.224-34.623 6.77-46.753 19.391-1.16 1.111-2.285 2.257-3.413 3.408-2.438 2.49-4.856 4.999-7.253 7.527-4.707 4.969-9.32 10.025-13.841 15.169-5.107 5.831-10.06 11.793-14.858 17.885-1.005.92-1.753 2.087-2.172 3.384-1.206 2.564-1.206 5.532 0 8.095.419 1.298 1.167 2.464 2.172 3.385 2.002 1.838 4.63 3.202 7.428 3.077l2.792-.376c1.753-.483 3.35-1.414 4.636-2.7l-.002-.012z"/>
                <path fill="#FBFDE5" d="M156.16 152.947c.139-.008.278.013.409.06.115.057.228.12.337.187.053.037.103.079.147.125.07.061.145.117.224.167.068.042.14.076.207.121.073.05.15.095.23.132.127.05.256.09.388.124.115.036.227.08.339.122.048.013.096.022.145.028.097.017.182.052.276.068.299.042.6.057.902.046h.872c.074 0 .138-.022.208-.023.048.003.096 0 .143-.01.05-.011.098-.027.145-.046.056-.018.113-.033.168-.05.055-.02.104-.059.164-.074.115-.04.233-.07.353-.088.106-.008.216 0 .321 0 .098-.01.196-.002.29.024.095.046.185.1.27.161.086.053.127.12.236.125.11.005.219.04.33.042.11.002.22 0 .329 0 .083-.005.166-.005.248 0 .15.017.295.058.43.121.097.06.188.126.274.199.094.063.18.137.255.221.063.067.103.148.17.213.03.03.059.062.084.097.039.05.097.09.13.14.071.098-.007.253-.09.323-.14.12-.335.107-.509.13-.087.012-.176.019-.263.03-.062.01-.122.03-.184.036-.133.014-.275 0-.409 0h-.568c-.487-.012-.972-.062-1.451-.148l-1.948-.282c-.599-.086-1.202-.14-1.8-.233-.23-.03-.456-.08-.677-.148-.077-.04-.159-.072-.242-.097l-.146-.023c-.046-.012-.088-.034-.124-.063-.11-.068-.219-.13-.325-.204-.107-.074-.185-.126-.277-.193-.086-.064-.167-.133-.244-.208-.096-.085-.265-.157-.29-.301-.021-.113.009-.23.083-.32.058-.056.144-.172.44-.531z"/>
                <path fill="#FFF076" d="M158.607 153.607c.28-.743 1.025-.37 1.548-.187.064.013.127.025.193.034.05.005.1.007.151.005.252.017.505-.123.757-.17.05-.009.101-.014.152-.014.176.016.341.094.467.218.042.04.08.085.112.133.194.325.345.822.065 1.132-.186.156-.403.187-.662.201-.048.008-.097.014-.14.02-.042.006-.12.014-.178.018-.06.004-.117 0-.174 0-.056 0-.096.02-.144.026l-.146.021c-.132.019-.266.026-.398.041-.087.01-.171.031-.258.04h-.125c-.042 0-.063 0-.206-.186-.18-.249-.374-.487-.58-.714l-.116-.14c-.045-.14-.138-.202-.22-.3-.034-.053-.069-.11-.098-.178z"/>
                <path fill="#FBFDE5" d="M138.25 154.603c.023-.09.061-.178.113-.257.04-.085.084-.162.131-.244.019-.031.03-.068.05-.097.034-.053.083-.097.121-.15.07-.112.153-.214.25-.303.048-.045.108-.075.173-.087.085-.008.175 0 .26 0 .166 0 .333.008.498 0 .151-.006.188-.128.268-.233.09-.125.204-.23.336-.31.162-.103.35-.158.541-.162h.216c.11 0 .213.027.322.038.082.002.162.02.238.05.06.033.116.071.168.114.125.072.231.171.312.29.076.148.211.256.372.297.174.05.367 0 .544.031.151.038.288.118.394.231.047.05.087.106.118.168.033.05.072.096.103.148.067.094.127.193.178.297.091.22.144.455.155.694.008.251.025.517-.086.749-.07.163-.176.31-.31.427-.075.055-.168.097-.247.143-.08.047-.16.103-.245.145-.247.125-.506.224-.773.296-.326.082-.66.124-.995.125-.357.007-.714 0-1.071 0-.16.006-.319 0-.477-.018-.136-.026-.27-.061-.401-.106-.243-.07-.48-.157-.712-.257-.09-.04-.162-.102-.544-2.019z"/>
                <path fill="#FFF8C4" d="M169.7 156.333c.146-.301.519-.484.858-.497.045.003.09.01.134.022.234.065.444.195.605.376.025.035.054.068.086.097.086.085.207.124.327.107.203-.038.41-.045.616-.02.059.009.116.022.173.04.58.166.67.911.58 1.44 0 .123-.123.248-.264.339-.03.023-.063.044-.096.063-.104.057-.218.09-.336.097h-.236c-.105 0-.209.017-.313.016-.18 0-.353-.006-.532-.021-.077-.007-.153-.009-.228-.019-.114-.017-.224-.05-.328-.096-.084-.035-.168-.071-.253-.105-.077-.022-.15-.055-.218-.097-.034-.026-.063-.06-.085-.096-.007-.01-.019-.023-.031-.234 0-.053-.007-.118-.014-.194.003-.087-.012-.174-.043-.256-.016-.042-.034-.083-.055-.122-.134-.26-.386-.414-.356-.728 0-.038.002-.075.008-.112z"/>
                <path fill="#FBFDE5" d="M151.24 153.112c-.154-.652.686-.714 1.064-.986.07-.04.134-.079.199-.114.065-.036.128-.068.193-.097.07-.025.14-.042.213-.052.223-.034.45.015.64.137.069.039.136.082.202.127.134.089.264.18.387.254.047.021.095.039.144.052.05.014.102.023.153.028.434.031.839-.341 1.285-.193.058.02.113.047.165.08.308.194.507.542.6.892.186.62.124 1.21.31 1.789.007.068.003.136-.01.202-.016.069-.043.134-.08.194-.04.063-.087.121-.142.172-.066.061-.14.115-.218.16-.072.07-.152.13-.239.18-.082.043-.161.075-.24.124-.175.1-.364.176-.56.222-.228.062-.461.098-.697.109-.146.014-.293.014-.44 0-.154-.03-.306-.07-.455-.12-.122-.038-.256-.057-.375-.097-.176-.064-.342-.154-.492-.268-.084-.065-.163-.137-.244-.206-.08-.069-.114-.135-.618-1.585l-.056-.16c-.103-.307-.32-.525-.58-.723-.036-.042-.073-.083-.11-.12z"/>
                <path fill="#FFF076" d="M151.196 153.251c.04-.116.117-.216.219-.285.03-.022.063-.041.097-.059.378-.193.813-.193.973.275l.067.068c.045.042.093.079.145.11.065.039.142.051.216.035.036-.009.07-.021.103-.038.21-.214.484-.307.763-.091.024.019.047.04.067.063.099.115.16.257.177.407.013.044.027.09.042.134l.046.133c.033.082.035.173.006.257-.053.116-.124.223-.21.317-.168.18-.372.32-.598.414-.168.071-.352.09-.53.055-.22-.04-.438-.094-.651-.163-.074-.023-.147-.045-.222-.062-.059-.01-.117-.024-.174-.042-.063-.016-.122-.044-.175-.082-.053-.045-.097-.117-.159-.773 0-.035-.006-.071-.01-.109.037-.178-.088-.301-.157-.46-.013-.034-.025-.068-.035-.104z"/>
                <path fill="#FDF39C" d="M148.179 152.537c.142-.517.616-.873 1.153-.864.05.003.099.013.146.03.14.06.26.162.344.29.039.053.074.109.105.167.104.202.104.512.462.483.045-.002.09-.009.134-.018.046-.009.097-.022.14-.034.044-.013.116-.032.172-.046.174-.068.371-.044.524.064.04.034.073.075.097.121.123.249.247.56.123.808-.189.358-.341.735-.454 1.124-.028.05-.06.097-.088.15-.058.118-.15.217-.263.284-.069.036-.139.069-.211.096-.074.025-.151.04-.23.046-.16.015-.321.022-.483.02h-.097c-.06-.002-.118-.016-.172-.043-.11-.049-.216-.108-.316-.176-.071-.035-.139-.077-.202-.124-.048-.04-.086-.093-.108-.152-.029-.069-.05-.141-.061-.215-.01-.068-.044-.135-.058-.205-.024-.08-.057-.158-.097-.232-.022-.05-.056-.09-.076-.14-.009-.025-.016-.05-.022-.076-.009-.038-.023-.097-.047-.186-.02-.05-.039-.103-.055-.156l-.05-.163c-.048-.247-.134-.484-.256-.704-.016-.046-.036-.097-.054-.15zM154.71 154.23c.028-.056.059-.112.083-.17.024-.058.038-.138.072-.2.031-.051.066-.1.104-.146.051-.081.114-.155.186-.219.193-.161.34-.29.607-.304.065-.006.13 0 .194.019.186.064.323.322.494.432.193.126.433.189.628.03.495-.405 1.123-.823 1.644-.215.129.16.237.336.322.523.079.158.223.35.255.523.006.075.006.15 0 .224.013.11-.017.22-.084.307-.12.103-.252.189-.396.254-.082.05-.167.093-.255.13-.188.066-.383.109-.58.128-.156.026-.313.043-.47.052-.108-.002-.216.004-.323.018-.221.04-.44.067-.663.089-.256.026-.515.078-1.818-1.475z"/>
                <path fill="#FBFDE5" d="M164.25 154.972c.022-.032.048-.061.077-.088.13-.153.283-.284.454-.387.315-.16.573.068.876 0 .148-.052.281-.14.387-.256.064-.06.144-.1.23-.115.475-.097.981.082 1.064.606.047.305.2.492.454.662.456.302.653.786.266 1.257-.057.077-.127.145-.206.2-.142.084-.293.152-.45.202-.326.11-.668.167-1.012.168-.144.005-.287-.01-.427-.044-.262-.074-.514-.187-.773-.28-.126-.046-.253-.088-.382-.123-.068-.013-.135-.03-.2-.05-.022-.008-.042-.018-.06-.03-.086-.065-.087-.32-.103-.41-.051-.29-.097-.58-.15-.871-.016-.097-.04-.204-.051-.306-.003-.078-.008-.109.006-.135z"/>
                <path fill="#FFF076" d="M165.54 156.673c-.052-.04-.02-.18 0-.232.05-.133.096-.315.21-.411.133-.095.282-.165.44-.207.103-.04.215-.052.325-.037.089.017.175.05.253.097.044.027.097.044.14.073.035.029.077.048.123.055.224.028.4-.06.58-.18.077-.04.143-.099.194-.17.168-.273.186-.47.546-.549.156-.039.32-.039.476 0 .157.04.291.142.374.282.097.173.086.386.171.567.023.048.051.092.085.132.053.08.144.125.24.119.056-.012.113-.021.17-.027.42-.097.762.306.762.71 0 .061.062.124.134.163.027.024.057.044.088.062.062.035.131.055.202.057h.142c.14-.008.272-.015.365.097.256.268.31.67.134.996-.005.039-.015.077-.03.113-.043.107-.121.203-.167.308-.047.098-.1.193-.159.284-.068.119-.137.238-.215.35-.15.228-.287.464-.406.709-.05.112-.117.215-.2.306-.092.076-.198.135-.312.174-.141.049-.299.03-.446.041-.229.019-.46.01-.69.01h-.377c-.125-.008-.246-.05-.349-.123-.148-.081-.288-.179-.416-.29-.086-.078-.162-.163-.25-.238-.215-.16-.441-.304-.677-.431-.097-.062-.2-.128-.29-.2-.069-.044-.133-.093-.194-.148-.11-.119-.259-.223-.332-.37-.03-.06-.063-.119-.091-.18-.028-.063-.05-.157-.553-1.912z"/>
                <path fill="#FAC032" d="M167.335 157.706c-.019-.015-.008-.066 0-.084.013-.055.04-.105.076-.148.048-.034.101-.06.158-.075.037-.014.077-.018.117-.013.034.006.066.018.096.036.016.01.034.016.05.026.013.01.029.018.045.02.076.006.15-.017.21-.065.026-.015.05-.035.068-.06.06-.097.066-.17.193-.199.057-.014.116-.014.172 0 .056.014.104.048.135.097.035.063.03.14.062.205.07.147.228.113.358.097.091-.008.14.185.207.242.097.069.177.158.234.261.018.035.03.071.037.109.005.039.005.078 0 .117-.016.054-.04.105-.07.152-.018.033-.037.065-.057.096-.026.044-.05.086-.079.127-.054.082-.102.167-.146.255-.018.04-.042.078-.071.11-.034.028-.072.05-.114.063-.052.012-.106.017-.16.015-.083.007-.166 0-.249 0h-.135c-.045-.003-.089-.019-.126-.045-.054-.03-.104-.065-.15-.106-.03-.028-.058-.059-.09-.086-.077-.057-.158-.11-.242-.155-.037-.023-.073-.046-.107-.072-.024-.016-.047-.034-.068-.053-.047-.039-.087-.084-.12-.134-.011-.022-.023-.042-.033-.065-.01-.022-.02-.036-.201-.668z"/>
                <path fill="#FFF8C4" d="M143.586 153.183c.119-.337.321-.638.588-.875.086-.08.176-.157.27-.229.214-.186.462-.311.677-.498.372-.372.59-.87 1.087-1.118 1.087-.559 2.081.497 2.72 1.235.079.097.15.198.215.305.199.318.298.689.285 1.064-.005.12-.02.241-.047.36.057.64.46 1.353.15 1.944-.31.56-.993.714-1.57.917-.064.017-.127.032-.194.046-.196.043-.395.07-.596.077-.165.016-.332.016-.497 0-.174-.035-.346-.08-.514-.136-.139-.043-.29-.065-.424-.115-.2-.073-.388-.175-.557-.303-.097-.074-.184-.155-.275-.233-.028-.025-.052-.055-.068-.088-.025-.078-.055-.155-.088-.23-.034-.116-.098-.22-.187-.303-.21-.132-.41-.28-.599-.442-.089-.079-.17-.166-.244-.26-.213-.26-.338-.603-.177-.926.017-.068.032-.131.045-.192z"/>
                <path fill="#FFF076" d="M155.726 153.797c.031-.29.13-.567.29-.81.128-.2.333-.337.566-.38.17-.023.353.02.505-.06.193-.096.245-.341.321-.543.276-.731 1.665-1.672 2.013-.507.064.213.104.446.267.608.186.194.483.234.69.4.534.434.63 1.026-.024 1.402-.408.234-.37.475-.444.888-.177.994-1.873 1.175-2.368.359-.271-.445-.369-.506-.9-.519-.34-.007-.733.008-.89-.361-.028-.075-.041-.154-.04-.234 0-.081.004-.163.014-.243z"/>
                <path fill="#FAC032" d="M157.48 153.81c.012-.11.05-.216.112-.308.049-.076.127-.128.216-.145.065.004.13-.004.193-.022.073-.038.097-.13.122-.207.105-.279.634-.638.767-.194.012.084.045.164.096.232.072.072.185.09.264.153.203.165.24.387-.01.533-.155.09-.14.182-.168.339-.068.379-.714.447-.903.137-.103-.17-.14-.194-.343-.194-.129 0-.279 0-.339-.138-.01-.028-.015-.058-.015-.089 0-.032.004-.065.009-.097zM145.28 153.288c.052-.145.139-.274.254-.376.037-.034.076-.067.116-.097.097-.08.2-.133.29-.213.16-.161.254-.375.468-.484.468-.24.896.214 1.171.532.035.041.068.085.097.13.085.138.128.297.123.459-.002.052-.01.104-.021.155.025.275.199.58.064.836-.134.256-.427.308-.677.396l-.082.02c-.084.018-.17.029-.256.032-.071.007-.143.007-.215 0-.075-.014-.149-.034-.221-.059-.06-.018-.125-.027-.183-.05-.086-.03-.166-.074-.239-.129-.04-.032-.08-.067-.119-.097-.012-.01-.022-.023-.029-.037-.01-.033-.023-.066-.038-.097-.014-.05-.042-.096-.08-.13-.091-.059-.177-.123-.258-.194-.038-.034-.073-.072-.106-.111-.103-.106-.133-.263-.076-.4.005-.035.012-.062.017-.086z"/>
                <path fill="#FBFDE5" d="M164.009 155.803c-.13-.602-.72-.758-1.217-.897-.09-.043-.178-.091-.263-.144-.424-.262-.793-.62-1.257-.835-.14-.053-.282-.096-.427-.13-.104-.022-.21-.035-.317-.04-.107-.004-.214.002-.32.017-.49.06-1.048.34-1.11.87-.125.808-.56 1.367-1.18 1.845-.042.062-.073.13-.092.202-.02.083-.027.168-.02.252.02.14.07.276.146.395.051.081.112.155.181.221.086.106.208.175.343.193.87.125 1.615.218 2.174 1.087.248.374.84-.03 1.078-.36.068-.082.134-.169.194-.258.187-.268.352-.56.498-.785.08-.082.176-.148.281-.193.677.016 1.456-.387 1.306-1.186.005-.083.004-.164.002-.254z"/>
                <path fill="#FFF076" d="M155.282 158.448c-.038-.146-.056-.296-.052-.446.003-.136.028-.27.073-.399.043-.123.103-.239.179-.345.076-.107.166-.205.267-.29.074-.064.154-.122.238-.172.432-.29 1.022-.256 1.425-.567.466-.403.774-1.056 1.464-1.174.102-.027.205-.048.309-.063.418-.057.847 0 1.054.399.217.435.372.9.768 1.245.08.08.164.154.251.227.277.22.568.424.87.609.116.084.193.21.215.351.037.109.056.223.057.338.001.124-.017.248-.054.367-.217.808-.994 1.273-1.684 1.71-.116.066-.239.117-.366.154-.932.28-1.74-.405-2.454-.9-.126-.063-.274-.067-.404-.013-.105.011-.212.024-.318.033-.215.021-.431.014-.644-.022-.373-.096-.715-.31-.88-.65-.028-.05-.037-.17-.314-.392z"/>
                <path fill="#FBFDE5" d="M141.528 154.871c-.057-.542.626-.604.87-.884.498-.559 1.057-1.615 1.838-1.211.28.124.341.559.653.807.09.045.184.08.281.106l.339.124c.565.214 1.079.484.722 1.23-.028.104-.063.206-.105.305.025.105.061.206.109.302.046.09.097.183.148.276.3.559.58 1.152-.138 1.57-.072.07-.152.13-.238.18-.082.043-.162.074-.241.124-.175.1-.363.176-.56.222-.227.062-.46.098-.696.109-.147.014-.294.014-.44 0-.155-.032-.307-.072-.456-.121-.122-.038-.255-.057-.375-.097-.177-.066-.343-.158-.492-.273-.084-.065-.163-.137-.243-.206-.08-.068-.12-.146-.733-1.917-.023-.065-.047-.133-.07-.204-.025-.07-.052-.14-.081-.213l-.092-.229z"/>
                <path fill="#FFF8C4" d="M146.913 155.24c.012-.127.05-.252.11-.366.015-.058.049-.11.096-.147.059-.049.124-.09.193-.124.048-.014.097-.024.146-.03.053-.017.106-.029.161-.036.114 0 .27.036.332-.058.31-.404.838-.774 1.241-.435.312.28.653.466.952.713.06.072.113.15.167.212.043.039.079.084.109.133.021.044.04.09.056.137.025.082.038.168.062.25.026.087.04.176.041.266.006.108-.012.215-.051.315-.03.067-.064.132-.104.193-.055.068-.114.133-.176.193-.108.145-.225.282-.351.412-.162.15-.364.25-.58.29-.11.006-.22.006-.329 0h-.697c-.308.008-.612.008-1.378-1.917zM154.118 158.596c.337.515.943.448 1.457.398.1.008.2.021.298.04.49.093.967.291 1.474.327.149 0 .298-.01.445-.031.105-.018.209-.044.31-.079.1-.034.197-.078.29-.13.435-.232.856-.695.724-1.209-.028-.127-.047-.257-.056-.387-.118-.715.472-1.304.472-1.988 0-.404-.373-.746-.746-.714-.807.031-1.584.341-2.4.02l-.242-.06c-.081-.02-.163-.038-.247-.054-.713-.124-.713.839-.805 1.344-.028.154-.054.303-.082.435-.045.106-.111.203-.194.284-.64.23-1.22.886-.792 1.577l.094.227z"/>
                <path fill="#FBFDE5" d="M149.052 155.86c.015-.29.139-.728.449-.728.57.025.837-.38 1.142-.734.06-.07.125-.138.194-.2.068-.058.141-.108.22-.152.078-.042.162-.077.248-.104.84-.302 1.461.444 1.864 1.127.062.124.28.186.405.311.096.124.279.28.216.465-.124.374-.124.746.117 1.064l.144.282c.22.47.314.94-.281 1.288-.072.07-.152.13-.24.18-.081.043-.16.075-.239.124-.175.101-.363.176-.56.223-.228.061-.461.097-.697.108-.146.014-.294.014-.44 0-.154-.03-.306-.07-.455-.12-.123-.038-.256-.057-.375-.097-.177-.063-.343-.154-.492-.267-.084-.065-.164-.138-.244-.206-.08-.07-.12-.146-.733-1.917l-.07-.204c-.025-.07-.052-.141-.08-.214-.028-.073-.06-.153-.093-.23z"/>
                <path fill="#FFF076" d="M144.9 158.332c.035-.103.084-.2.144-.29.793-.609 1.444-1.199 1.711-2.213.042-.075.088-.146.139-.215.05-.069.105-.134.166-.193.072-.055.15-.104.23-.146.083-.043.17-.08.258-.109.292-.103.612-.094.897.026.077.042.15.09.22.143.335.367.744.659 1.202.854.11.052.222.096.335.149.345.062.67.202.953.41.092.07.18.144.262.226.29.3.539.641.507 1.076-.097.745-.994.59-1.46.967-.31.249-.341.621-.483.93-.037.104-.075.207-.117.305-.129.29-.3.552-.61.69-.59.28-1.119-.217-1.557-.552-.096-.078-.2-.153-.301-.22-.095-.064-.194-.12-.298-.168-.084-.048-.17-.097-.257-.138-.087-.042-.177-.084-.268-.121-.092-.038-.206-.06-.313-.081-.61-.055-1.54-.272-1.41-1.076.012-.084.024-.167.05-.254zM159.889 158.154c-.04-.146-.057-.296-.052-.446.003-.135.027-.27.071-.398.043-.123.104-.239.18-.345.136-.185.308-.342.506-.46.43-.29 1.02-.255 1.424-.566.467-.404.774-1.056 1.465-1.175.101-.027.204-.047.308-.062.419-.057.846.005 1.053.399.218.434.374.9.774 1.245.08.079.163.154.251.227.277.22.568.424.87.608.117.084.194.21.217.352.035.109.054.222.056.336 0 .125-.017.249-.055.368-.217.807-.994 1.274-1.684 1.712-.115.065-.238.115-.365.152-.932.28-1.74-.404-2.453-.9-.127-.062-.274-.067-.405-.012-.106.011-.212.023-.319.032-.214.022-.431.015-.644-.02-.372-.098-.714-.311-.88-.652-.033-.053-.042-.172-.318-.395z"/>
                <path fill="#FBFDE5" d="M152.48 155.91c-.232-.397.006-.76.29-1.065.048-.051.098-.096.145-.148.097-.096.188-.22.29-.336.05-.06.097-.118.156-.172.238-.268.704-.517 1.014-.268.249.186.435.341.747.373.062.016.123.035.182.054.298.097.563.245.717.536.155.291.156.62.435.806.044.04.088.077.128.117.087.082.138.195.142.314.008.108.008.217 0 .326-.013.167-.096.256-.205.376-.045.053-.084.111-.131.162-.093.086-.194.164-.3.234-.08.06-.155.128-.231.193-.084.068-.174.128-.268.18-.031.018-.055.043-.088.058-.068.021-.138.033-.209.035-.08.004-.161.004-.242 0-.165.008-.33.004-.495-.014-.153-.025-.3-.074-.452-.11-.203-.048-.4-.108-.602-.163-.21-.041-.414-.106-.61-.193-.048-.025-.093-.057-.13-.097-.022-.028-.035-.061-.039-.096-.036-.109-.058-.221-.065-.335l-.015-.171c.025-.194-.069-.315-.125-.468-.013-.042-.026-.083-.038-.129z"/>
                <path fill="#FFF8C4" d="M135.826 154.479c.012-.128.049-.253.11-.367.015-.058.049-.11.096-.147.059-.05.124-.09.193-.124.048-.014.097-.024.146-.03.053-.017.106-.029.16-.036.126-.006.257.027.358-.066.18-.167.25-.411.483-.524.13-.062.27-.095.413-.097.106 0 .208-.021.29.052.04.036.106.054.138.097.032.042.033.083.059.12.025.039.053.075.083.11.037.04.069.09.107.128.112.116.258.157.396.226s.26.261.368.387c.042.039.079.083.109.132.021.045.04.09.056.138.025.082.037.168.062.25.026.086.04.176.041.266.005.107-.012.215-.051.315-.03.067-.064.131-.105.193-.054.068-.113.133-.176.193-.107.145-.225.282-.35.411-.162.15-.364.251-.58.29-.11.007-.22.007-.329 0h-.697c-.31.008-.618.008-1.38-1.917zM146.507 153.373c-.112-.017-.226-.011-.336.017-.103.026-.2.069-.29.126-.353.224-.61.63-.925.896l-.194.158c-.273.198-.525.425-.75.677-.088.12-.168.246-.238.377-.048.095-.088.194-.12.296-.032.102-.054.207-.067.313-.07.484.055 1.1.548 1.298.748.33 1.174.895 1.475 1.62.05.056.108.104.172.141.074.04.154.07.237.084.141.018.285.005.42-.038.091-.028.179-.068.26-.117.124-.056.222-.157.274-.282.346-.807.63-1.502 1.615-1.816.425-.142.193-.817-.068-1.135-.06-.087-.127-.172-.193-.256-.052-.063-.106-.125-.162-.185l-.164-.177c-.111-.113-.298-.237-.329-.423-.125-.497.124-1.056-.404-1.429-.155-.124-.342-.096-.52-.096-.076-.019-.156-.037-.241-.049z"/>
                <path fill="#FBFDE5" d="M137.965 155.86c.015-.29.138-.728.449-.728.684.03.932-.56 1.333-.936.076-.071.16-.134.251-.185.546-.307 1.246-.177 1.506.402.038.088.066.18.082.276.307.473 1.083.628.96 1.312-.024.22.019.442.124.636l.148.276c.301.559.58 1.153-.137 1.57-.072.07-.152.13-.239.18-.082.043-.16.075-.24.124-.175.101-.363.176-.56.223-.228.06-.461.097-.697.108-.146.014-.294.014-.44 0-.154-.03-.306-.07-.455-.12-.123-.038-.256-.057-.375-.097-.177-.064-.343-.154-.492-.268-.084-.064-.164-.137-.244-.206-.08-.068-.12-.146-.733-1.916l-.07-.204c-.025-.071-.052-.142-.08-.214-.028-.073-.059-.157-.09-.233zM132.948 155.91c-.233-.397.006-.76.29-1.065.047-.051.097-.096.144-.148.097-.096.188-.22.29-.336.05-.06.097-.118.156-.172.238-.268.704-.517 1.014-.268.249.186.436.341.747.373.062.016.123.035.182.054.298.097.563.245.717.536.155.291.156.62.435.806.044.04.089.077.128.117.087.082.138.195.142.314.008.108.008.217 0 .326-.013.167-.096.256-.205.376-.045.053-.084.111-.131.162-.093.086-.194.164-.3.234-.08.06-.155.128-.23.193-.084.068-.174.128-.269.18-.03.018-.055.043-.088.058-.068.021-.138.033-.209.035-.08.004-.161.004-.242 0-.165.008-.33.004-.495-.014-.153-.025-.3-.074-.451-.11-.204-.048-.402-.108-.603-.163-.21-.041-.414-.106-.61-.193-.048-.025-.092-.058-.13-.097-.022-.028-.035-.061-.039-.096-.036-.109-.058-.221-.065-.335 0-.057-.01-.115-.015-.171.025-.194-.068-.315-.125-.468-.013-.042-.026-.083-.038-.129z"/>
                <path fill="#FFF8C4" d="M129.821 157.585c-.043-.097.013-.21.021-.31.003-.083.024-.165.061-.24.046-.081.083-.168.11-.257.042-.107.104-.203.184-.285.07-.073.134-.15.194-.232.565-.726 1.622-1.534 2.494-.846.097.053.193.107.282.161.471.272.943.547 1.485.704.684.187.87 1.305.242 1.76-.034.038-.057.083-.09.123-.047.06-.103.112-.15.17-.097.124-.203.247-.309.366-.135.153-.218.404-.404.507-.143.075-.3.12-.461.134-.274.028-.549.026-.823.026h-1.183c-.083-.005-.167-.003-.25.004-.053.01-.107.015-.161.017-.072 0-.134-.012-1.242-1.802z"/>
                <path fill="#FFF" d="M121.749 164.046c0-1.676 13.917-3.034 31.087-3.034 17.169 0 31.087 1.358 31.087 3.034v.054h4.999c-1.094-2.489-16.828-4.462-36.082-4.462-19.253 0-34.988 1.973-36.082 4.462h5c-.004-.018-.008-.036-.01-.054z"/>
                <path fill="#FFF076" d="M133.812 158.332c.036-.103.085-.2.144-.29.794-.609 1.445-1.199 1.712-2.213.042-.075.088-.146.139-.215.05-.069.105-.134.166-.193.072-.055.15-.104.23-.146.083-.043.17-.08.258-.109.292-.103.612-.094.897.026.077.042.15.09.22.143.335.368.746.66 1.203.855.11.052.223.096.336.148.345.063.67.203.953.412.092.068.18.143.262.225.29.3.537.641.506 1.076-.096.745-.993.59-1.459.967-.31.249-.341.621-.483.93-.037.104-.075.207-.117.305-.13.29-.3.552-.61.69-.59.28-1.119-.217-1.557-.552-.097-.078-.201-.153-.302-.22-.094-.064-.193-.12-.297-.168-.085-.048-.17-.097-.257-.138-.087-.042-.177-.084-.269-.121-.103-.033-.207-.06-.313-.082-.608-.054-1.54-.271-1.409-1.075.01-.085.026-.168.047-.255z"/>
                <path fill="#FAC032" d="M135.948 158.164c.013-.04.032-.078.055-.114.306-.235.559-.463.662-.856.017-.028.034-.056.054-.083.02-.026.04-.05.064-.072.028-.022.058-.04.09-.056.03-.017.063-.031.096-.043.113-.04.237-.036.347.01.03.016.059.035.085.056.13.142.289.254.466.33.042.02.086.038.13.058.133.023.259.077.368.158.034.027.066.056.096.087.113.116.21.249.194.417-.036.29-.387.228-.565.372-.12.097-.133.241-.188.36-.014.04-.029.08-.045.118-.04.117-.125.213-.236.268-.228.107-.432-.084-.602-.215-.04-.03-.078-.059-.117-.085-.036-.025-.075-.046-.116-.065-.032-.019-.065-.036-.096-.053-.032-.016-.07-.033-.105-.047-.04-.013-.08-.023-.12-.031-.236-.021-.597-.105-.546-.417.013-.03.02-.063.029-.097z"/>
                <path fill="#FFF076" d="M148.802 158.154c-.039-.146-.057-.296-.053-.446.007-.267.095-.526.252-.743.076-.107.165-.205.266-.29.074-.065.155-.123.24-.173.43-.29 1.02-.255 1.424-.566.466-.404.774-1.056 1.465-1.175.101-.027.204-.047.308-.062.419-.057.846.005 1.053.399.218.434.374.9.774 1.245.08.079.163.154.251.227.277.22.568.424.87.608.117.084.194.21.216.352.036.109.055.222.057.337 0 .124-.018.248-.055.367-.217.808-.994 1.274-1.684 1.712-.115.065-.238.116-.365.152-.932.28-1.74-.404-2.453-.9-.127-.062-.274-.066-.405-.012-.106.011-.212.023-.319.032-.215.022-.431.015-.644-.02-.372-.097-.714-.311-.88-.652-.033-.05-.042-.169-.318-.392z"/>
                <path fill="#FAC032" d="M151.021 157.696c-.014-.054-.021-.11-.02-.166.004-.1.037-.196.097-.277.028-.039.06-.074.096-.106.028-.024.058-.046.09-.065.16-.106.38-.097.53-.21.172-.15.29-.393.544-.438.038-.01.076-.017.115-.022.156-.022.315 0 .393.148.08.161.138.335.285.463.03.03.06.057.097.084.103.083.212.158.326.227.042.031.07.079.079.131.014.04.02.082.021.125 0 .047-.006.093-.02.137-.08.3-.37.474-.627.637-.043.024-.089.043-.136.057-.347.103-.647-.151-.913-.335-.048-.022-.103-.022-.15 0l-.12.012c-.079.008-.16.006-.239-.008-.14-.029-.259-.117-.327-.242-.023-.062-.066-.115-.12-.152z"/>
                <path fill="#FBFDE5" d="M140.522 159.18c.129-.602.719-.756 1.216-.896.09-.043.178-.09.263-.144.424-.262.793-.62 1.257-.834.14-.054.282-.098.427-.132.104-.021.21-.034.317-.039.107-.004.214.002.32.017.49.06 1.048.34 1.11.87.125.808.56 1.367 1.18 1.846.044.062.076.13.097.203.02.082.027.167.02.251-.02.14-.07.275-.146.395-.05.08-.112.155-.182.22-.085.106-.207.176-.342.194-.87.123-1.615.217-2.174 1.087-.249.372-.839-.031-1.078-.361-.068-.081-.134-.168-.194-.258-.193-.268-.353-.56-.499-.785-.08-.082-.176-.148-.281-.193-.677.016-1.451-.387-1.306-1.187-.005-.085-.005-.166-.005-.253z"/>
                <path fill="#FFF076" d="M126.209 161.175c-.04-.132-.067-.269-.078-.407-.011-.131-.007-.263.01-.393.009-.107.027-.213.053-.317.025-.103.058-.204.097-.303.228-.617.881-.834 1.284-1.27.405-.497.405-1.459 1.197-1.555.105-.017.211-.021.317-.013.22.018.435.076.634.17.07.032.137.067.203.105.166.083.29.268.476.3.097.027.201.057.301.09.1.033.194.07.296.112 1.422.325 1.888 2.031.988 3.124-.044.074-.116.104-.155.18-.205.387-.688.592-1.09.719-.253.097-.519.16-.788.186-.332.015-.667.01-1.41-.29-.15-.06-.316-.131-.508-.212-.188-.09-.389-.149-.595-.176-.105-.016-.213-.027-.322-.034-.11-.006-.222-.01-.333-.013l-.577-.003z"/>
                <path fill="#FFF7F7" d="M188.212 164.376h-4.219l-5.163 72.976c.883-.331 1.764-.686 2.644-1.064l6.738-71.912zM117.46 164.376l6.737 71.91s.937.376 2.634.926l-5.153-72.836h-4.219z"/>
                <path fill="#F3D8D8" d="M125.675 236.286l-6.739-71.91h-1.477l6.738 71.91s.937.376 2.634.926l-.036-.512c-.73-.258-1.12-.414-1.12-.414zM179.991 236.286l6.738-71.91h1.478l-6.738 71.91s-.938.376-2.633.926l.035-.512c.73-.258 1.12-.414 1.12-.414z"/>
                <path fill="#FB3030" d="M177.363 164.376l-4.166 74.792c1.877-.508 3.758-1.109 5.633-1.814l5.163-72.976-6.63-.002zM128.309 164.376h-6.631l5.153 72.836c1.394.452 3.301 1.024 5.623 1.601l-4.145-74.437z"/>
                <path fill="#FFF7F7" d="M139.544 240.293l-2.77-75.919h-8.465l4.145 74.437c2.06.516 4.446 1.034 7.09 1.482zM173.197 239.168l4.166-74.79h-8.467l-2.782 76.297c2.387-.374 4.751-.877 7.083-1.507z"/>
                <path fill="#FB3030" d="M148.589 241.37l-.9-76.994h-10.914l2.769 75.919c2.76.465 5.802.853 9.045 1.074zM166.114 240.673l2.782-76.297h-10.914l-.902 77.147c3.026-.098 6.043-.382 9.034-.85z"/>
                <path fill="#FFF7F7" d="M157.08 241.523l.902-77.147H147.69l.899 76.993c2.826.196 5.66.247 8.491.154z"/>
                <path fill="#FDF39C" d="M158.625 161.488c.422.017.884.067 1.112-.216.07-.095.122-.203.153-.316.132-.403.28-.884.177-1.308-.127-.521-.574-.785-1.075-.864-.145-.012-.28-.081-.373-.193-.36-.476-.405-1.013-.957-1.364-.55-.35-1.638-.499-2.105.057-.126.15-.222.322-.359.462-.212.214-.432.18-.7.238-.534.113-.637.627-.808 1.063-.097.243-.217.574-.097.824.147.318.511.31.763.5.4.301.226.79.774 1.03.612.272 1.693.67 2.358.411.194-.073.357-.193.546-.271.192-.055.392-.073.59-.053z"/>
                <ellipse cx="152.817" cy="164.411" fill="#EEC85E" rx="32.126" ry="3.853"/>
                <path fill="#FDF39C" d="M139.934 162.433c-.016-.108-.021-.218-.016-.328.023-.561.304-1.165.957-1.16.103-.01.207-.016.312-.02l.252-.015c.827.03 1.013-.901 1.354-1.491.051-.073.113-.138.182-.194.064-.057.133-.11.206-.156.145-.092.298-.171.456-.237.09-.033.187-.046.283-.038.202-.013.405-.005.605.023.127.02.244.083.33.178.111.104.206.224.278.358.068.143.11.296.125.453.009.076.014.153.016.232-.018.146-.012.295.018.44.046.149.076.304.201.397.112.07.226.141.337.214.533.345 1.092.78 1.185 1.463.046.303-.057.61-.276.823-.068.07-.141.135-.219.194-.341.266-.535.435-.667.87-.2.664-.589 1.064-1.3 1.182-1.078.172-2.332-.186-3.192-.837-.088-.066-.172-.136-.253-.21-.536-.514-.927-1.16-1.135-1.873-.017-.081-.031-.171-.039-.268z"/>
                <path fill="#FFF8C4" d="M135.434 160.038c.04-.129.096-.252.166-.367.065-.105.142-.203.23-.29.171-.18.389-.308.628-.37.12-.033.241-.059.364-.077.722-.04 1.281-.445 1.81-.91.088-.082.189-.15.297-.2.532-.224 1.064-.054 1.494.28.087.067.17.14.25.218.106.182.236.348.386.496.074.074.15.142.23.21.06.06.125.115.194.165.066.053.138.097.208.147.484.298 1.007.764.822 1.354-.218.715-1.026.839-1.689 1.034-.088.036-.173.08-.254.129-.083.05-.16.108-.232.173-.31.31-.497.774-.967.885-.11.033-.222.058-.336.073-.112.017-.225.026-.338.03-.133.003-.266-.004-.398-.022-.114-.016-.226-.043-.335-.08-.107-.038-.21-.084-.308-.14-.142-.031-.266-.187-.33-.28-.061-.124-.185-.217-.279-.341-.59-.56-1.644-.933-1.632-1.838.003-.085.01-.175.02-.28z"/>
                <path fill="#FAC032" d="M141.828 162.324c-.008-.05-.01-.101-.008-.152.01-.261.141-.541.445-.54.047 0 .097-.007.145-.01l.117-.006c.387.014.471-.419.63-.693.025-.033.053-.063.085-.088.03-.028.062-.052.096-.073.068-.043.139-.08.212-.11.042-.016.087-.021.13-.018.095-.006.19-.002.282.011.06.008.114.038.154.082.052.048.095.104.129.167.031.066.05.137.059.21 0 .035.005.071.006.108-.008.068-.005.137.01.205.011.07.045.135.096.185l.157.096c.247.16.507.363.55.677.023.142-.025.287-.128.387-.03.033-.062.063-.097.091-.158.124-.25.202-.31.404-.097.308-.274.495-.604.549-.527.067-1.059-.072-1.486-.387-.042-.031-.08-.064-.117-.097-.25-.238-.431-.539-.527-.87-.011-.042-.02-.085-.026-.128z"/>
                <path fill="#FFF076" d="M135.71 162.217c.344-.75 1.214-.812 1.896-1.03.175-.039.336-.121.47-.24.129-.072.26-.143.387-.206.252-.134.534-.2.818-.194.117.009.232.035.34.08.28.096.466.28.652.497.155.202.21.45.264.69.025.119.057.235.096.35.068.118.143.232.226.34.084.113.176.225.269.338.98.643 1.041 1.978.032 2.648-.234.23-.484.446-.704.653-.104.097-.21.202-.317.304-.107.101-.216.2-.33.299-.439.373-1.004.563-1.58.532-.148-.01-.292-.049-.425-.115-.803-.394-1.376-1.74-1.92-2.467-.077-.143-.139-.295-.184-.451-.146-.544-.332-1.16-.122-1.699.036-.112.08-.223.132-.33zM121.32 165.195l.022.03h5.883c.257-.66.019-1.439-.661-1.885-.097-.112-.185-.224-.269-.337-.082-.109-.158-.222-.225-.34-.04-.115-.072-.231-.097-.35-.054-.24-.108-.489-.264-.691-.186-.217-.372-.403-.652-.496-.108-.045-.223-.072-.34-.08-.284-.007-.566.06-.818.193-.133.062-.263.133-.391.206-.134.118-.296.201-.47.24-.683.218-1.548.28-1.897 1.029-.05.108-.093.219-.128.332-.211.534-.025 1.155.121 1.699.046.156.108.307.186.45z"/>
                <path fill="#FAC032" d="M137.458 163.213c.144-.31.502-.335.785-.425.071-.015.138-.048.193-.097.053-.03.108-.059.162-.085.104-.054.22-.081.338-.079.048.004.096.015.14.033.108.042.201.113.27.206.057.087.095.186.109.29.01.049.023.097.04.144.028.05.06.096.096.14.035.047.072.097.111.14.404.266.43.817.013 1.094-.097.096-.2.184-.29.27l-.131.125c-.044.042-.09.082-.136.123-.182.154-.415.233-.653.22-.061-.003-.121-.02-.176-.047-.332-.163-.568-.721-.793-1.02-.032-.059-.057-.121-.076-.186-.06-.224-.137-.484-.05-.701.013-.05.03-.098.048-.145z"/>
                <g fill="#000" opacity=".14">
                    <path d="M70.64.009l-4.227.059C66.123 1.72 52.32 3.05 35.331 3.05 18.34 3.05 4.536 1.72 4.249.068L.022.008l.13 1.404C3.73 3.54 18.057 5.087 35.33 5.087c17.243 0 31.587-1.576 35.195-3.694L70.64.009z" transform="translate(117.505 165.087)"/>
                </g>
                <path fill="#FBFDE5" d="M127.812 160.85c.002-.066.016-.132.04-.193.01-.087.044-.169.097-.238.122-.171.267-.325.431-.457.184-.14.387-.18.586-.278.09-.054.188-.095.29-.12.613-.087 1.265.068 1.793-.305.621-.403.808-1.118 1.39-1.547.11-.087.23-.16.359-.215.136-.059.28-.097.427-.113.133-.017.268-.015.4.007.151.025.298.069.437.131.684.31.622 1.118.901 1.677.078.113.187.201.314.253.134.065.29.12.421.181.132.062.261.143.387.22.61.387 1.045.907.714 1.644-.217.528-.434 1.118-.362 1.702.014.126.03.252.04.377.012.125.016.25.011.375-.04.2-.104.395-.193.58-.056.118-.12.233-.193.341-.432.657-1.161 1.134-1.976 1.154-.168-.004-.335-.024-.498-.06-.342-.077-.667-.212-.96-.402-.683-.465-1.274-.9-1.973-1.228-.232-.097-.529-.041-.773-.041-.145.014-.29.014-.436 0-.112-.03-.221-.07-.326-.12-.152-.066-.404-.152-1.348-3.325z"/>
                <path fill="#FFF8C4" d="M121.868 164.647c-.093-.273-.14-.56-.138-.848.002-.145.016-.29.043-.431.118-.627.522-1.155 1.139-1.319.163-.075.327-.15.484-.23.323-.156.624-.354.895-.589l.216-.149c.358-.252.737-.47 1.134-.655.085-.045.172-.088.26-.126.088-.039.18-.075.273-.107.238-.083.493-.107.743-.072.08.012.158.029.235.051.761.208 1.289.86 1.569 1.606.082.16.213.29.373.373l.199.075c.33.112.646.258.945.436.069.048.134.103.193.163.42.42.613 1.089.517 1.73-.007.092-.019.183-.035.273-.147.807-.677 1.523-1.522 1.732-.09.029-.18.05-.273.06-.203.026-.41.014-.608-.036-.097.006-.2.014-.303.014h-.78c-.276.014-.552.01-.826-.009-.227-.035-.45-.09-.666-.165-.385-.137-.777-.252-1.175-.345-.097-.02-.226-.04-.348-.067-.117-.024-.23-.066-.334-.124-.096-.064-.193-.133-.299-.2l-.243-.154c-.082-.051-.164-.103-.248-.153-.092-.033-.181-.074-.267-.123-.29-.096-.483-.405-.82-.41-.104-.06-.216-.127-.333-.201z"/>
                <path fill="#FAC032" d="M124.744 163.816c-.27-.312.06-.792.357-.927.059-.027.119-.054.177-.084.117-.056.227-.128.325-.214l.079-.054c.13-.092.268-.172.413-.238.03-.017.063-.033.096-.047.034-.013.066-.027.097-.038.36-.124.727.144.875.464.026.074.066.142.118.2.059.044.124.076.194.097.367.141.6.447.553.847-.11.93-1.128.774-1.782.66-.484-.083-.896-.29-1.318-.526-.068-.036-.13-.084-.184-.14z"/>
                <path fill="#FDF39C" d="M130.638 166.993c-.2 0-.394-.066-.553-.187-.078-.06-.146-.133-.2-.216-.14-.338-.143-.716-.01-1.056.032-.082.07-.161.113-.237.194-.32.506-.538.662-.848.31-.497.372-1.18.841-1.583.084-.075.177-.138.277-.187.62-.31 1.21.217 1.82.3.1 0 .2-.013.298-.037.134-.033.264-.082.387-.146.483-.242 1.04-.8 1.536-.273.373.466.683.994 1.303 1.08.105.044.207.096.304.156.761.476 1.113 1.41.685 2.304-.034.106-.073.21-.117.311-.187.405-.715.528-1.117.708-.097.036-.186.07-.284.097-.32.102-.654.154-.99.154-.656 0-1.312 0-3.016-.231-.104-.005-.205-.015-.313-.025-.391-.044-.785-.066-1.179-.064-.15-.001-.299-.01-.447-.02z"/>
                <path fill="#FBFDE5" d="M141.074 167.676c-.42-.047-.883-.067-1.063-.381-.055-.104-.09-.218-.104-.335-.07-.417-.145-.916.02-1.32.205-.497.685-.69 1.193-.693.145.01.288-.037.397-.132.427-.417.552-.94 1.15-1.205.597-.265 1.694-.248 2.073.372.097.166.171.352.29.51.177.243.401.243.658.34.51.193.535.714.64 1.172.057.254.128.6-.024.83-.194.29-.553.229-.83.379-.44.239-.342.748-.913.905-.647.176-1.775.41-2.395.053-.176-.101-.323-.248-.499-.35-.186-.087-.387-.136-.593-.145z"/>
                <path fill="#FAC032" d="M132.6 165.736c-.085 0-.166-.028-.233-.078-.033-.026-.062-.057-.085-.091-.058-.143-.058-.303 0-.445.014-.034.03-.066.048-.097.082-.134.213-.226.278-.357.132-.21.158-.498.355-.668.036-.031.075-.058.117-.078.261-.132.51.092.767.125.043 0 .085-.004.126-.014.056-.015.11-.036.161-.062.203-.102.439-.338.648-.115.157.193.29.419.55.455.044.019.087.04.127.066.334.198.46.619.29.967-.014.045-.03.089-.05.132-.078.17-.3.222-.47.298-.04.015-.08.03-.12.043-.135.043-.276.065-.418.065-.425.002-.85-.03-1.27-.097-.045 0-.086-.006-.133-.01-.165-.02-.33-.028-.497-.027-.067-.004-.129-.007-.191-.012z"/>
                <path fill="#FBFDE5" d="M165.209 159.18c-.129-.602-.719-.756-1.216-.896-.09-.043-.179-.09-.264-.144-.422-.262-.792-.62-1.257-.834-.14-.054-.282-.098-.427-.132-.104-.021-.21-.034-.317-.039-.107-.004-.214.002-.32.017-.49.06-1.048.34-1.111.87-.124.808-.56 1.367-1.179 1.846-.043.062-.076.13-.097.203-.02.082-.027.167-.02.251.02.14.07.275.146.395.051.08.112.155.182.22.085.106.207.176.342.194.87.123 1.615.217 2.174 1.087.249.372.839-.031 1.079-.361.067-.081.133-.168.193-.258.193-.268.352-.56.498-.785.08-.082.177-.147.282-.193.677.016 1.451-.387 1.306-1.187.01-.085.009-.166.006-.253z"/>
                <path fill="#FFF076" d="M178.936 161.605c.041-.132.068-.27.08-.408.01-.129.006-.258-.011-.387-.009-.107-.027-.213-.053-.317-.025-.103-.058-.205-.097-.303-.153-.411-.493-.646-.823-.884-.082-.06-.164-.12-.243-.183-.453-.358-.58-.979-1.012-1.414-.59-.56-1.46-.218-2.031.217-.097.028-.202.058-.302.091l-.148.053-.147.059c-.725.046-1.223.636-1.365 1.275-.02.067-.037.135-.05.204-.11.585.047 1.187.427 1.644.043.074.115.104.155.181.205.387.687.592 1.09.719.253.096.518.159.787.186.333.014.668.01 1.411-.29.15-.06.315-.131.508-.21.188-.09.389-.15.595-.177.104-.017.213-.027.322-.034.11-.008.22-.01.333-.013.179-.009.373-.009.574-.009z"/>
                <path fill="#FDF39C" d="M165.797 162.433c.016-.108.021-.218.016-.328-.023-.561-.304-1.165-.957-1.16-.103-.01-.207-.016-.312-.02l-.252-.015c-.827.03-1.013-.901-1.354-1.491-.051-.073-.113-.138-.182-.194-.065-.057-.134-.11-.207-.156-.145-.092-.297-.172-.456-.237-.09-.033-.186-.046-.282-.038-.202-.013-.404-.005-.605.023-.127.02-.244.083-.33.178-.112.104-.205.225-.278.358-.067.143-.11.296-.125.453-.009.076-.014.153-.016.232.018.146.012.295-.018.44-.045.149-.076.304-.201.397-.112.07-.225.141-.337.214-.533.345-1.092.78-1.184 1.463-.047.303.056.61.275.823.068.07.141.135.219.194.341.266.536.435.667.87.2.664.59 1.064 1.3 1.182 1.078.172 2.333-.186 3.192-.837.09-.066.173-.137.253-.21.536-.514.927-1.16 1.135-1.873.018-.081.03-.171.039-.268z"/>
                <path fill="#FFF8C4" d="M170.297 160.038c-.04-.129-.096-.252-.165-.367-.066-.105-.143-.203-.232-.29-.17-.18-.387-.308-.627-.37-.12-.033-.241-.059-.364-.077-.722-.04-1.281-.445-1.81-.91-.088-.082-.188-.15-.297-.2-.532-.224-1.064-.054-1.493.28-.088.067-.171.14-.25.218-.108.182-.24.35-.393.496-.073.074-.15.142-.23.21-.06.06-.124.115-.193.165-.068.053-.139.097-.21.147-.483.298-1.006.764-.82 1.354.217.715 1.025.839 1.688 1.034.088.036.173.08.255.129.082.05.16.108.23.173.312.31.498.774.968.885.11.033.223.058.337.073.111.017.224.026.337.03.133.003.266-.004.398-.022.114-.016.226-.043.334-.08.107-.037.211-.084.31-.14.142-.031.266-.187.328-.28.062-.124.186-.217.28-.341.59-.56 1.644-.933 1.632-1.838 0-.085 0-.175-.013-.28z"/>
                <path fill="#FAC032" d="M163.903 162.324c.007-.05.01-.101.008-.152-.01-.261-.141-.541-.445-.54-.047 0-.097-.007-.145-.01l-.117-.006c-.387.014-.47-.419-.63-.693-.024-.033-.053-.063-.085-.088-.03-.027-.062-.052-.096-.073-.068-.043-.139-.08-.212-.11-.042-.016-.087-.022-.132-.018-.093-.006-.187-.002-.28.011-.06.008-.114.038-.154.082-.052.048-.095.104-.129.167-.03.066-.05.137-.059.21 0 .035-.005.071-.006.108.008.068.005.137-.009.205-.012.07-.046.135-.097.185l-.156.096c-.248.16-.508.363-.552.677-.022.142.026.287.129.387.03.033.062.063.097.091.158.124.25.202.31.404.096.308.274.495.604.549.526.067 1.059-.072 1.486-.387.04-.031.08-.064.117-.097.249-.239.43-.54.527-.87.011-.042.02-.085.026-.128z"/>
                <path fill="#FFF076" d="M170.02 162.217c-.345-.75-1.214-.812-1.898-1.03-.174-.039-.335-.121-.47-.24-.128-.072-.258-.143-.386-.206-.252-.134-.534-.2-.82-.194-.116.009-.23.035-.338.08-.28.096-.466.28-.652.497-.155.202-.21.45-.264.69-.025.119-.057.235-.096.35-.068.118-.143.232-.226.34-.084.113-.176.225-.268.338-.98.643-1.042 1.978-.032 2.648.233.23.483.446.703.653.104.097.21.202.317.304.107.101.217.2.33.299.439.373 1.005.563 1.58.532.148-.01.292-.049.425-.115.802-.394 1.376-1.74 1.92-2.467.077-.143.139-.295.184-.451.146-.544.333-1.16.122-1.699-.036-.112-.08-.223-.132-.33z"/>
                <path fill="#FAC032" d="M168.272 163.213c-.142-.31-.501-.335-.784-.425-.071-.015-.138-.048-.193-.097-.053-.03-.107-.059-.163-.085-.103-.054-.22-.082-.337-.079-.048.004-.095.015-.14.033-.108.042-.201.113-.27.206-.057.087-.094.187-.108.29-.01.049-.024.097-.04.144-.029.05-.061.096-.097.14-.035.047-.072.097-.111.14-.404.266-.43.817-.013 1.094.097.096.2.184.29.27.044.04.087.083.131.125.045.042.09.082.137.123.18.154.414.233.652.22.062-.004.121-.02.176-.047.331-.163.568-.721.793-1.02.032-.059.057-.121.076-.186.06-.224.137-.484.05-.701-.013-.05-.03-.098-.05-.145z"/>
                <path fill="#FBFDE5" d="M177.919 160.85c-.002-.066-.016-.132-.04-.193-.012-.087-.045-.169-.098-.238-.122-.171-.267-.325-.43-.457-.185-.14-.388-.18-.587-.278-.09-.054-.188-.095-.29-.12-.613-.087-1.265.068-1.793-.305-.621-.403-.808-1.118-1.389-1.547-.11-.087-.231-.16-.36-.215-.136-.059-.28-.097-.427-.113-.133-.017-.268-.015-.4.007-.151.025-.298.069-.437.131-.683.31-.622 1.118-.901 1.677-.078.113-.187.201-.313.253-.135.065-.29.12-.422.181-.132.062-.261.143-.387.22-.61.387-1.043.907-.713 1.644.217.528.435 1.118.362 1.702-.014.126-.029.252-.04.377-.012.125-.016.25-.011.375.04.2.104.395.193.58.056.118.12.233.194.341.43.657 1.16 1.134 1.975 1.154.168-.004.335-.024.498-.06.342-.077.667-.213.96-.402.684-.465 1.275-.9 1.973-1.228.23-.097.529-.041.773-.041.145.014.29.014.435 0 .112-.03.222-.07.328-.12.151-.066.402-.152 1.347-3.325z"/>
                <path fill="#FFF8C4" d="M183.863 164.647c.094-.273.14-.56.138-.848-.002-.145-.016-.29-.043-.431-.118-.627-.522-1.155-1.139-1.319-.163-.075-.327-.15-.483-.23-.324-.156-.625-.354-.896-.589l-.216-.149c-.357-.252-.737-.47-1.134-.655-.085-.045-.172-.088-.26-.126-.088-.039-.18-.075-.273-.107-.238-.082-.493-.107-.743-.072-.08.011-.158.029-.235.051-.762.208-1.29.86-1.57 1.606-.081.16-.212.29-.372.373l-.199.075c-.329.112-.646.258-.945.436-.069.048-.133.103-.193.163-.42.42-.613 1.089-.517 1.73.007.092.019.183.035.273.147.807.677 1.523 1.522 1.732.09.029.18.05.273.06.203.026.41.014.608-.036.097.006.2.014.303.014h.78c.276.014.552.01.827-.009.226-.035.448-.09.664-.165.385-.137.778-.252 1.176-.345.097-.02.226-.04.348-.067.117-.024.23-.066.334-.124.097-.064.193-.133.299-.2l.243-.154c.082-.051.164-.103.248-.153.092-.033.182-.074.267-.123.29-.096.483-.405.82-.41.104-.06.217-.127.333-.201z"/>
                <path fill="#FAC032" d="M180.987 163.816c.27-.312-.06-.792-.356-.927-.06-.027-.12-.054-.177-.084-.118-.056-.228-.128-.326-.214l-.079-.054c-.13-.092-.268-.172-.413-.238-.03-.017-.062-.033-.096-.047-.034-.013-.066-.027-.097-.038-.36-.124-.727.144-.87.464-.026.074-.066.142-.118.2-.059.044-.124.076-.194.097-.368.141-.6.447-.553.847.11.93 1.128.774 1.782.66.484-.083.896-.29 1.317-.526.067-.037.128-.084.18-.14z"/>
                <path fill="#FDF39C" d="M175.093 166.993c.2 0 .394-.066.553-.187.079-.06.146-.133.2-.216.14-.338.144-.716.01-1.056-.032-.082-.07-.16-.113-.237-.194-.32-.506-.538-.662-.848-.31-.497-.372-1.18-.841-1.583-.084-.075-.177-.138-.277-.187-.62-.31-1.21.217-1.82.3-.1 0-.2-.013-.299-.037-.132-.033-.26-.082-.382-.146-.483-.242-1.04-.8-1.536-.273-.373.466-.683.994-1.303 1.08-.105.044-.207.096-.304.156-.761.476-1.113 1.41-.686 2.304.035.106.074.21.118.311.187.405.715.528 1.117.708.097.036.186.07.283.097.32.102.655.154.991.154.656 0 1.312 0 3.016-.231.104-.005.205-.015.313-.025.391-.044.785-.066 1.179-.064.147-.001.295-.01.443-.02z"/>
                <path fill="#FBFDE5" d="M164.657 167.676c.42-.047.883-.067 1.064-.381.055-.104.09-.218.104-.335.07-.417.144-.916-.02-1.32-.204-.497-.685-.69-1.193-.693-.145.01-.288-.037-.397-.132-.427-.417-.552-.94-1.15-1.205-.597-.265-1.694-.248-2.073.372-.096.166-.17.352-.29.51-.177.243-.401.243-.658.34-.51.193-.535.714-.64 1.172-.057.254-.128.6.024.83.194.29.553.229.83.379.44.239.34.748.913.905.647.176 1.775.41 2.395.053.176-.101.323-.248.499-.35.186-.087.387-.136.592-.145z"/>
                <path fill="#FAC032" d="M173.132 165.736c.084 0 .165-.028.233-.078.032-.026.06-.057.084-.091.058-.143.058-.303 0-.445-.013-.034-.03-.066-.048-.097-.082-.134-.213-.226-.278-.357-.132-.21-.158-.498-.355-.668-.036-.031-.075-.057-.117-.078-.261-.132-.51.092-.767.125-.042 0-.085-.004-.126-.014-.056-.015-.11-.035-.161-.062-.202-.102-.438-.338-.648-.115-.157.193-.29.419-.55.455-.044.019-.087.04-.127.066-.334.198-.46.619-.29.967.014.045.03.089.05.132.078.17.3.222.47.298.04.015.078.03.12.043.135.043.276.065.418.065.425.002.85-.03 1.27-.097.045 0 .087-.006.133-.01.165-.02.331-.028.497-.027.067-.004.129-.007.192-.012z"/>
                <path fill="#FFF8C4" d="M151.3 159.653c-.038-.614-.598-.856-1.064-1.064-.083-.056-.163-.117-.239-.182-.38-.323-.69-.733-1.119-1.013-.13-.074-.264-.139-.402-.194-.1-.037-.203-.065-.308-.086-.105-.02-.212-.03-.319-.032-.493-.013-1.088.18-1.228.693-.244.78-.757 1.268-1.442 1.644-.05.055-.091.118-.121.186-.032.079-.052.162-.057.246-.002.142.027.283.085.412.038.088.087.17.146.246.07.116.18.202.31.24.842.253 1.565.456 1.988 1.4.193.405.834.097 1.119-.193.08-.07.158-.147.233-.226.225-.237.431-.5.61-.701.091-.07.196-.123.308-.153.67.118 1.497-.165 1.468-.978l.032-.245z"/>
                <path fill="#FFF076" d="M165.158 163.766c.06-.124.106-.253.139-.387.03-.127.045-.256.047-.387.008-.107.006-.215-.005-.322-.01-.106-.028-.21-.054-.314-.133-.645-.746-.958-1.08-1.45-.325-.552-.18-1.505-.95-1.717-.102-.033-.206-.053-.312-.061-.22-.015-.442.01-.653.074-.072.02-.145.046-.216.073-.176.057-.326.222-.515.225-.103.012-.208.027-.311.044-.104.018-.207.041-.31.067-1.45.11-2.17 1.728-1.444 2.941.032.08.097.12.127.201.145.417.59.689.967.87.236.133.489.235.751.303.326.063.658.109 1.439-.077.156-.037.33-.083.533-.133.2-.06.407-.09.615-.085.106 0 .214.005.324.014.109.009.22.022.33.037.186.026.377.056.578.084z"/>
                <path fill="#FBFDE5" d="M149.516 165.982c.11-.016.216-.042.32-.078.532-.182 1.03-.624.84-1.248-.02-.097-.044-.202-.069-.305l-.059-.246c-.264-.783.58-1.228 1.044-1.725.054-.07.098-.146.131-.228.036-.079.067-.16.091-.243.047-.165.08-.334.097-.505.006-.096-.01-.192-.044-.281-.045-.198-.11-.39-.194-.575-.055-.116-.149-.21-.265-.265-.265-.167-.585-.223-.892-.155-.076.013-.15.03-.227.05-.135.06-.28.096-.426.108-.156 0-.314.014-.438-.078-.097-.089-.2-.177-.301-.263-.484-.412-1.064-.824-1.741-.719-.303.042-.568.228-.71.498-.049.086-.09.175-.127.266-.157.404-.264.639-.642.887-.58.381-.856.87-.762 1.583.141 1.083.843 2.183 1.712 2.827.089.066.18.125.274.181.645.368 1.375.56 2.118.555.085-.008.174-.022.27-.041z"/>
                <path fill="#FFF8C4" d="M156.201 161.261c-.02-.133-.056-.263-.108-.387-.048-.115-.11-.224-.184-.325-.142-.203-.338-.362-.566-.46-.113-.05-.23-.092-.348-.129-.709-.149-1.201-.632-1.654-1.172-.075-.093-.164-.175-.264-.242-.492-.301-1.04-.211-1.518.054-.097.053-.19.113-.279.179-.134.163-.29.308-.462.432-.084.06-.171.118-.259.172-.067.05-.138.096-.213.136-.074.041-.15.078-.229.114-.517.223-1.11.605-1.014 1.216.109.739.888.983 1.515 1.275.082.049.16.104.233.164.074.062.142.132.203.207.26.353.375.842.825 1.019.103.05.21.091.321.123.109.033.22.06.33.08.132.023.264.036.397.037.23.003.457-.038.67-.122.145-.008.29-.144.366-.226.08-.114.217-.187.327-.296.667-.465 1.767-.677 1.89-1.576.01-.078.016-.168.021-.273z"/>
                <path fill="#FFF076" d="M155.603 163.374c-.228-.792-1.078-.983-1.721-1.3-.166-.066-.314-.172-.43-.308-.114-.091-.233-.182-.355-.263-.23-.17-.498-.277-.78-.312-.117-.01-.234 0-.348.028-.29.05-.503.207-.72.393-.183.177-.274.414-.363.644-.042.113-.09.224-.146.331-.085.107-.176.209-.274.304-.097.096-.207.193-.317.29-1.064.483-1.325 1.8-.427 2.611.194.261.412.514.598.75.088.117.178.232.268.348.09.115.184.23.281.345.38.435.91.708 1.484.763.148.013.296-.005.437-.05.852-.27 1.621-1.52 2.267-2.152.098-.13.181-.27.25-.419.225-.515.502-1.101.374-1.661-.018-.116-.044-.23-.078-.342z"/>
                <path fill="#FAC032" d="M153.725 164.098c-.096-.327-.446-.407-.711-.537-.07-.027-.13-.071-.177-.128-.048-.036-.097-.074-.147-.108-.095-.07-.206-.114-.322-.129-.049-.004-.098 0-.145.012-.112.025-.215.081-.297.162-.068.077-.12.168-.15.266-.017.047-.038.092-.06.137-.035.044-.072.086-.113.125-.041.041-.086.082-.131.121-.44.202-.547.744-.176 1.08.081.108.17.212.247.31l.11.143c.038.049.076.097.117.143.156.18.375.292.612.315.061.005.123-.002.18-.02.353-.112.67-.628.937-.89.04-.053.075-.111.104-.173.096-.212.206-.454.154-.685-.008-.049-.018-.097-.032-.144z"/>
                <path fill="#FBFDE5" d="M163.617 163.204c.007-.065.003-.13-.012-.193.002-.087-.018-.173-.06-.25-.095-.188-.215-.361-.358-.515-.16-.168-.354-.237-.538-.364-.082-.067-.174-.122-.272-.162-.594-.178-1.257-.122-1.728-.57-.553-.491-.63-1.226-1.141-1.74-.096-.103-.205-.193-.323-.268-.126-.078-.263-.137-.406-.175-.13-.037-.263-.055-.397-.053-.153.002-.304.023-.452.064-.721.205-.781 1.012-1.14 1.524-.094.1-.215.17-.348.202-.143.046-.303.076-.445.117-.142.04-.28.097-.412.16-.66.29-1.167.74-.952 1.519.137.555.264 1.171.104 1.74-.032.124-.066.245-.097.368-.03.122-.053.245-.067.369.01.205.046.408.107.604.037.125.082.248.136.367.33.713.977 1.294 1.782 1.436.166.02.334.025.502.013.348-.023.69-.109 1.008-.252.746-.359 1.395-.7 2.135-.92.242-.059.529.039.766.075.25.088.524.086.773-.007.165-.045.427-.095 1.835-3.089z"/>
                <path fill="#FFF8C4" d="M168.926 167.846c.133-.255.222-.532.263-.817.02-.143.028-.288.023-.432-.023-.639-.344-1.22-.93-1.475-.15-.097-.3-.194-.446-.3-.297-.202-.565-.443-.797-.716l-.194-.18c-.316-.302-.659-.576-1.024-.817-.076-.057-.156-.112-.238-.164-.082-.052-.166-.097-.253-.145-.224-.118-.472-.18-.725-.183-.08 0-.16.005-.238.015-.785.097-1.405.658-1.793 1.354-.105.146-.254.255-.424.313l-.208.045c-.342.062-.678.16-1 .29-.076.038-.148.083-.216.133-.477.352-.768.984-.773 1.633-.007.092-.01.183-.007.275.025.82.438 1.606 1.246 1.94.084.04.172.073.262.097.197.055.402.073.606.054.097.021.193.043.297.058l.774.117c.27.055.543.094.818.115.227 0 .454-.021.677-.064.401-.077.806-.132 1.213-.165.104 0 .23 0 .355-.015.12-.005.237-.03.349-.072.108-.049.216-.097.325-.152l.264-.117.267-.114c.097-.019.191-.046.283-.081.305-.05.537-.33.87-.284.127-.04.248-.089.374-.146zM143.663 166.995c-.093-.273-.14-.56-.138-.848.002-.145.016-.29.043-.431.118-.627.522-1.155 1.139-1.32.163-.074.327-.15.484-.23.323-.155.624-.353.895-.588l.216-.149c.358-.251.737-.47 1.134-.654.085-.046.172-.088.26-.128.088-.04.18-.074.273-.105.238-.083.493-.108.743-.073.08.012.158.029.235.051.76.208 1.289.86 1.568 1.606.083.16.214.29.374.373l.199.075c.33.113.646.258.945.436.069.049.134.103.193.163.42.42.612 1.09.517 1.73-.007.092-.019.183-.035.273-.147.807-.677 1.523-1.522 1.732-.09.029-.18.05-.273.061-.203.025-.41.012-.608-.037-.097.006-.2.014-.303.014h-.78c-.276.014-.552.011-.826-.009-.227-.035-.45-.09-.666-.165-.385-.137-.777-.252-1.175-.345-.101-.02-.226-.04-.348-.067-.117-.024-.23-.066-.334-.124-.096-.065-.193-.133-.299-.2l-.243-.154c-.082-.051-.164-.103-.248-.153-.092-.033-.181-.074-.267-.123-.29-.096-.483-.405-.82-.41-.104-.06-.217-.126-.333-.2z"/>
                <path fill="#FAC032" d="M146.539 166.163c-.27-.311.06-.79.357-.926.059-.027.119-.054.177-.084.117-.057.227-.129.325-.214l.079-.054c.13-.092.268-.171.413-.238.031-.017.063-.033.096-.046.032-.015.066-.027.097-.04.36-.123.727.145.87.464.026.074.066.143.119.201.058.044.123.077.193.097.367.141.6.447.553.847-.11.93-1.127.774-1.782.66-.484-.082-.896-.29-1.317-.526-.068-.037-.129-.084-.18-.14z"/>
                <path fill="#FDF39C" d="M159.903 168.859c.198.03.4-.007.576-.103.087-.047.164-.109.23-.182.189-.313.249-.687.167-1.043-.019-.086-.044-.17-.076-.252-.145-.345-.42-.607-.527-.937-.232-.537-.194-1.223-.596-1.691-.071-.086-.153-.162-.245-.226-.567-.4-1.23.033-1.845.024-.1-.015-.197-.042-.29-.08-.126-.054-.246-.122-.357-.203-.438-.31-.908-.946-1.478-.499-.438.406-.824.88-1.45.87-.111.028-.22.064-.324.109-.824.357-1.312 1.228-1.022 2.175.017.11.04.219.07.326.124.427.627.629.998.87.086.05.173.097.265.144.301.149.624.25.957.3.647.096 1.296.193 3.016.222.103.01.204.016.312.023.394.014.787.052 1.176.112.148.01.296.025.443.04z"/>
                <path fill="#FAC032" d="M158.152 167.32c.083.012.168-.003.243-.043.036-.02.069-.047.096-.078.08-.132.106-.29.07-.44-.007-.036-.018-.071-.031-.105-.06-.146-.177-.257-.222-.396-.097-.226-.082-.515-.252-.713-.03-.036-.064-.069-.102-.096-.24-.169-.52.014-.774.01-.042-.006-.083-.018-.122-.033-.053-.023-.103-.052-.15-.086-.185-.131-.387-.399-.624-.21-.184.17-.347.371-.61.368-.047.012-.092.027-.136.046-.362.145-.55.545-.432.916.008.047.017.092.03.138.052.18.264.266.42.365.037.022.074.04.112.06.127.064.263.107.404.127.42.066.845.099 1.271.097.044 0 .086.006.132.01.166.005.332.021.496.047.056.007.119.007.18.015z"/>
                <path fill="#FFF" d="M183.918 164.1c-.29 1.651-14.093 2.982-31.082 2.982-16.99 0-30.795-1.33-31.083-2.982h-5c-.039.087-.06.18-.06.276 0 2.617 16.181 4.74 36.143 4.74 19.96 0 36.143-2.122 36.143-4.74-.001-.095-.022-.19-.062-.276h-5z"/>
                <path fill="#FFF8C4" d="M141.347 155.915c-.026-.18-.024-.364.006-.544.097-.405.504-.705.765-1.011.05-.06.097-.118.156-.172.483-.547.831-.324 1.354-.031.442.248.909.206 1.204.685.233.38.483.687.736 1.041.332.467-.211 1.064-.565 1.335-.354.27-.58.496-1.054.475-.57-.023-1.865-.104-2.248-.605-.164-.213-.308-.735-.354-1.173z"/>
                <path fill="#FAC032" d="M142.39 155.847c-.014-.093-.014-.187 0-.28.052-.21.26-.364.395-.522l.08-.089c.252-.281.429-.166.697-.015.227.128.468.106.62.353.12.193.25.354.38.536.171.24-.11.55-.29.687-.181.139-.297.257-.544.246-.29-.013-.961-.054-1.16-.312-.08-.11-.153-.378-.177-.604z"/>
                <path fill="#EEE" d="M181.653 235.483c-18.537 6.826-38.9 6.826-57.436 0-.355-.137-.755.034-.9.386l-.08.212c-.06.175-.05.367.031.534.081.166.225.294.4.354 18.891 6.956 39.642 6.956 58.533 0 .175-.06.319-.188.4-.354.08-.167.092-.359.03-.534l-.08-.212c-.144-.352-.543-.524-.898-.386z"/>
                <g fill="#FFF" opacity=".42">
                    <path d="M4.938.602C4.401.454 3.897.304 3.428.159c-.824-.256-1.722-.081-2.39.466C.37 1.172.02 2.017.108 2.876l.011.097c.11 1.068.873 1.954 1.912 2.224.552.144 1.108.278 1.665.404.763.17 1.562-.014 2.172-.504.61-.49.963-1.23.96-2.01v-.02C6.823 1.916 6.05.908 4.939.603z" transform="translate(120.89 170.406)"/>
                </g>
                <g fill="#FFF" opacity=".42">
                    <path d="M16.108 3.214C16.104 1.775 14.936.61 13.498.61 9.724.605 6.084.375 2.911.071 2.181 0 1.454.242.91.737.367 1.23.057 1.932.058 2.667c.001 1.319.989 2.43 2.299 2.584 3.706.43 7.435.628 11.165.595 1.432-.013 2.585-1.18 2.581-2.611l.005-.021z" transform="translate(128.723 171.857)"/>
                </g>
                <path fill="#04998E" d="M33.112 294.111c-3.978-5.649-10.751-11.942-14.017-18.643-.46-.937-.85-1.906-1.166-2.901-.875-2.564-.958-5.332-.236-7.943 1.748-7.035 9.429-10.509 16.292-10.674.769-.017 1.538.023 2.3.12 1.23.145 2.438.43 3.602.85 1.062.386 2.076.897 3.02 1.52.686.458 1.346.957 1.974 1.493 4.568 4.475 7.502 10.735 8.129 17.028.066.866.096 1.718.149 2.565.147 2.54.445 5.055 1.78 7.375 1.28 2.252 3.467 4.138 3.964 6.848.086.77.104 1.547.053 2.32-.367 5.513-3.385 11.29-8.736 12.915-5.878 1.886-9.382-4.699-12.995-8.336-.548-.572-1.086-1.13-1.619-1.663-.886-.924-1.716-1.891-2.494-2.874z"/>
                <path fill="#FFC88D" d="M174.322 210.126c-.692-2.116.957-4.105 3.403-5.006-1.735-.573-3.087-1.521-3.529-3.142-.993-2.983 2.742-5.715 6.77-5.503.869-.075 1.741-.089 2.611-.042 3.482.177 6.99 1.192 10.57 2.005 0 0 .231.368.595.908 1.064 1.627 3.352 4.325-.87 5.266-1.343.381-1.28 1.644.172 1.974 0 0 .228.368.588.908 1.049 1.626 3.312 4.324-.861 5.266-1.327.382-1.264 1.644.17 1.975 0 0 .226.367.58.907 1.037 1.627 3.273 4.323-.85 5.266-1.313.381-1.251 1.644.167 1.975 0 0 .223.367.574.907 1.024 1.627 3.233 4.322-.842 5.266-2.04.6-2.291 1.337-4.45 1.568-.72.077-3.345-.141-4.061-.122-4.11-.17-9.51-.434-10.477-4.08-.677-2.117.933-4.104 3.323-5.006-1.695-.573-3.016-1.522-3.45-3.142-.685-2.116.944-4.104 3.363-5.006-1.721-.573-3.06-1.521-3.496-3.142z"/>
                <path fill="#FFF7F7" d="M29.147 298.249c-1.187-1.54-2.28-3.158-3.317-4.789-3.553-5.587-7.235-11.218-8.62-17.802-1.718-8.173.751-19.511 11.047-19.122 3.794.143 7.399 1.965 10.184 4.545 8.196 7.597 8.903 19.77 14.267 29.124 1.077 1.88 2.24 3.734 2.945 5.783 3.18 9.25-6.888 13.554-14.507 11.316-4.912-1.434-8.93-5.08-11.999-9.055z"/>
                <path fill="#20323F" d="M26.723 300.795c-1.186-1.539-2.28-3.158-3.317-4.788-3.553-5.586-7.235-11.219-8.619-17.803-1.718-8.172.75-19.51 11.047-19.122 3.794.143 7.398 1.965 10.183 4.546 8.197 7.595 8.904 19.77 14.268 29.122 1.078 1.88 2.24 3.735 2.945 5.784 3.181 9.25-6.888 13.553-14.507 11.32-4.913-1.44-8.93-5.084-12-9.059z"/>
                <g fill="#F2B279" opacity=".54">
                    <path d="M6.112 23.291c-.901.224-3.127.465-3.613-.646-.417-.953-.2-2.305.441-3.095.32-.393.774-.832.61-1.31-.115-.327-.483-.484-.803-.604-1.502-.552-3.786-1.025-2.216-2.838.58-.677 2.618-1.689 2.514-2.735-.052-.531-.642-.808-1.144-.989C.644 10.62.146 8.977.696 7.755c.566-1.257 3.217-1.437 1.972-3.217-.67-.958-1.712-1.664-.98-2.92C2.499.231 4.556.138 5.966.095c.484-.016.973-.026 1.438.104 2.845.796 2.225 5.861 2.234 8.013.014 3.722.356 7.38-.233 11.09-.175 1.1-.567 2.208-1.354 2.993-.468.461-1.17.806-1.938.996z" transform="translate(181.915 201.74)"/>
                </g>
                <path fill="#484848" d="M76.029 212.875c-2.487 0-4.523 1.444-4.523 3.21 0 1.764 2.03 3.208 4.523 3.208 2.487 0 4.523-1.444 4.523-3.209 0-1.765-2.036-3.209-4.523-3.209zM89.15 212.875c-3.262 0-5.93 1.444-5.93 3.21 0 1.764 2.668 3.208 5.93 3.208 3.261 0 5.93-1.444 5.93-3.209 0-1.765-2.669-3.209-5.93-3.209zM211.95 212.875c-2.488 0-4.524 1.444-4.524 3.21 0 1.764 2.036 3.208 4.524 3.208 2.487 0 4.523-1.444 4.523-3.209 0-1.765-2.036-3.209-4.523-3.209zM225.07 212.875c-3.261 0-5.93 1.444-5.93 3.21 0 1.764 2.669 3.208 5.93 3.208 3.262 0 5.931-1.444 5.931-3.209 0-1.765-2.664-3.209-5.93-3.209z"/>
                <path fill="#04998E" d="M117.892 191.226c-4.45 2.06-8.848 4.792-12.07 8.446-.806.91-1.535 1.886-2.179 2.917-.648 1.04-1.195 2.14-1.633 3.283-.43 1.233-.765 2.497-1 3.78-1.044 5.32-.173 10.833 3.211 15.378 5.03 6.576 14.7 8.414 21.095 3.174 1.038-.895 1.796-2.05 1.863-3.537.132-1.233-.085-2.538-.52-3.699-1.258-3.288-3.095-6.19-3.974-9.605-.525-1.599-1.08-3.176-1.637-4.707-.556-1.531-1.115-3.015-1.644-4.433-1.12-2.942-.56-6.443-.926-9.646-.169-.461-.364-.912-.586-1.35z"/>
                <path fill="#FFC88D" d="M120.044 190.033c-.169-.236-5.9 3.565-6.423 3.946-2.058 1.508-3.923 3.269-5.453 5.319-3.3 4.416-4.994 9.968-4.277 15.467.83 6.376 3.697 13.254 10.092 15.809 6.753 2.697 13.056-3.148 13.507-9.892.324-6.48-2.387-12.253-5.331-17.964-.267-.52-.536-1.04-.762-1.587-.105-1.465-.157-3.095-.252-4.77-.03-.558-.067-1.122-.111-1.685-.298-.967-.298-2.321-.387-3.347-.174-.444-.376-.877-.603-1.296z"/>
                <path fill="#FFC88D" d="M132.31 210.781c.693-2.115-.956-4.104-3.403-5.005 1.735-.573 3.087-1.522 3.53-3.143.992-2.982-2.744-5.714-6.77-5.502-.867-.075-1.738-.089-2.607-.042-3.482.177-6.99 1.191-10.57 2.006 0 0-.23.366-.594.907-1.064 1.627-3.352 4.325.87 5.266 1.342.38 1.28 1.644-.172 1.975 0 0-.228.366-.588.907-1.05 1.626-3.313 4.324.86 5.266 1.327.387 1.265 1.644-.17 1.975 0 0-.226.366-.58.907-1.037 1.627-3.273 4.323.851 5.266 1.312.38 1.25 1.644-.167 1.975 0 0-.224.366-.575.907-1.024 1.627-3.233 4.322.843 5.266 2.037.6 2.29 1.336 4.448 1.567.72.079 3.347-.14 4.062-.121 4.11-.17 9.51-.435 10.477-4.08.677-2.118-.932-4.104-3.323-5.006 1.695-.573 3.017-1.523 3.45-3.143.685-2.116-.945-4.103-3.364-5.005 1.718-.573 3.054-1.522 3.492-3.143z"/>
                <g fill="#F2B279" opacity=".54">
                    <path d="M3.65.193C4.553-.03 6.778-.273 7.264.84c.418.953.201 2.305-.44 3.095-.32.394-.774.832-.61 1.31.115.328.478.484.803.604 1.502.551 3.786 1.025 2.216 2.839-.58.677-2.618 1.688-2.514 2.735.052.53.642.807 1.144.988 1.257.455 1.755 2.098 1.204 3.32-.565 1.256-3.216 1.436-1.971 3.217.669.957 1.712 1.662.98 2.919-.81 1.387-2.867 1.48-4.277 1.524-.484.015-.973.026-1.438-.105-2.845-.796-2.225-5.86-2.234-8.012C.112 11.55-.23 7.892.359 4.182c.175-1.1.567-2.207 1.354-2.992C2.18.73 2.883.387 3.65.193z" transform="translate(115.184 201.354)"/>
                </g>
            </g>
        </g>
    </g>
</svg>
