<?xml version="1.0" encoding="UTF-8"?>
<svg width="23px" height="22px" viewBox="0 0 23 22" version="1.1" xmlns="http://www.w3.org/2000/svg" xmlns:xlink="http://www.w3.org/1999/xlink">
    <title>748F16BB-C9A4-480F-AE62-9D23AC076161</title>
    <g id="Admin" stroke="none" stroke-width="1" fill="none" fill-rule="evenodd">
        <g id="Admin--&gt;-Films" transform="translate(-997.000000, -129.000000)" fill="#FFFFFF" fill-rule="nonzero">
            <g id="Tabs/tab3" transform="translate(978.000000, 110.000000)">
                <g id="Icons/delete" transform="translate(19.500000, 19.000000)">
                    <path d="M12.4375,2 C13.3679805,2 14.125,2.75701953 14.125,3.6875 L14.125,3.6875 L14.125,4.25 L17.21875,4.25 C17.9941562,4.25 18.625,4.88084375 18.625,5.65625 L18.625,5.65625 L18.625,7.625 C18.625,7.93564063 18.3731406,8.1875 18.0625,8.1875 L18.0625,8.1875 L17.7550938,8.1875 L17.2691289,18.3927617 C17.2262383,19.2940273 16.4858477,20 15.5835625,20 L15.5835625,20 L7.0414375,20 C6.1391875,20 5.39879688,19.2940273 5.35587109,18.3927617 L5.35587109,18.3927617 L4.86990625,8.1875 L4.5625,8.1875 C4.25185938,8.1875 4,7.93564063 4,7.625 L4,7.625 L4,5.65625 C4,4.88084375 4.63084375,4.25 5.40625,4.25 L5.40625,4.25 L8.5,4.25 L8.5,3.6875 C8.5,2.75701953 9.25701953,2 10.1875,2 L10.1875,2 Z M16.6288281,8.1875 L5.99617187,8.1875 L6.47960547,18.3392539 C6.49387891,18.6396641 6.74067578,18.875 7.0414375,18.875 L7.0414375,18.875 L15.5835625,18.875 C15.8842891,18.875 16.1310859,18.6396641 16.1453945,18.3392539 L16.1453945,18.3392539 L16.6288281,8.1875 Z M11.3125,9.3125 C11.6231406,9.3125 11.875,9.56435937 11.875,9.875 L11.875,9.875 L11.875,17.1875 C11.875,17.4981406 11.6231406,17.75 11.3125,17.75 C11.0018242,17.75 10.75,17.4981406 10.75,17.1875 L10.75,17.1875 L10.75,9.875 C10.75,9.56435937 11.0018594,9.3125 11.3125,9.3125 Z M14.125,9.3125 C14.4356406,9.3125 14.6875,9.56435937 14.6875,9.875 L14.6875,9.875 L14.6875,17.1875 C14.6875,17.4981406 14.4356406,17.75 14.125,17.75 C13.8143242,17.75 13.5625,17.4981406 13.5625,17.1875 L13.5625,17.1875 L13.5625,9.875 C13.5625,9.56435937 13.8143594,9.3125 14.125,9.3125 Z M8.5,9.3125 C8.81064063,9.3125 9.0625,9.56435937 9.0625,9.875 L9.0625,9.875 L9.0625,17.1875 C9.0625,17.4981406 8.81064063,17.75 8.5,17.75 C8.18932422,17.75 7.9375,17.4981406 7.9375,17.1875 L7.9375,17.1875 L7.9375,9.875 C7.9375,9.56435937 8.18935937,9.3125 8.5,9.3125 Z M17.21875,5.375 L5.40625,5.375 C5.25117578,5.375 5.125,5.50117578 5.125,5.65625 L5.125,5.65625 L5.125,7.0625 L5.125,7.0625 L17.5,7.0625 L17.5,5.65625 C17.5,5.50117578 17.3738242,5.375 17.21875,5.375 L17.21875,5.375 Z M12.4375,3.125 L10.1875,3.125 C9.87735156,3.125 9.625,3.37735156 9.625,3.6875 L9.625,3.6875 L9.625,4.25 L13,4.25 L13,3.6875 C13,3.37735156 12.7476484,3.125 12.4375,3.125 L12.4375,3.125 Z" id="Combined-Shape"></path>
                </g>
            </g>
        </g>
    </g>
</svg>
