<svg xmlns="http://www.w3.org/2000/svg" width="30" height="30" viewBox="0 0 30 30">
    <g fill="none" fill-rule="evenodd">
        <g fill="#585858" fill-rule="nonzero">
            <g>
                <g>
                    <g>
                        <path d="M24.936 7.35c-.058-1.328-.273-2.241-.58-3.033-.318-.84-.807-1.592-1.447-2.217-.625-.635-1.382-1.128-2.213-1.44C19.9.351 18.992.136 17.663.077 16.325.015 15.9 0 12.505 0 9.11 0 8.685.015 7.35.073 6.023.132 5.11.347 4.318.654 3.478.972 2.726 1.46 2.1 2.1 1.465 2.725.972 3.482.66 4.312.351 5.11.136 6.017.077 7.345.015 8.683 0 9.108 0 12.502c0 3.395.015 3.82.073 5.153.059 1.328.274 2.241.582 3.033.317.84.81 1.592 1.445 2.217.626.635 1.383 1.128 2.213 1.44.796.308 1.705.523 3.034.582C8.68 24.986 9.105 25 12.5 25c3.395 0 3.82-.014 5.153-.073 1.33-.059 2.242-.274 3.034-.581 1.68-.65 3.009-1.978 3.659-3.658.307-.796.522-1.705.58-3.033.06-1.333.074-1.758.074-5.153 0-3.394-.005-3.819-.064-5.152zm-2.251 10.207c-.054 1.221-.26 1.88-.43 2.32-.42 1.09-1.285 1.954-2.374 2.374-.44.17-1.104.376-2.32.43-1.32.058-1.715.072-5.051.072-3.336 0-3.737-.014-5.051-.073-1.221-.053-1.88-.258-2.32-.43-.542-.2-1.036-.517-1.436-.932-.416-.406-.733-.894-.933-1.436-.171-.44-.376-1.104-.43-2.32-.059-1.318-.073-1.714-.073-5.05 0-3.335.014-3.736.073-5.05.054-1.22.259-1.88.43-2.32.2-.542.517-1.035.938-1.435.405-.415.893-.733 1.436-.933.44-.17 1.104-.376 2.32-.43 1.319-.058 1.714-.073 5.05-.073 3.342 0 3.737.015 5.052.073 1.22.054 1.88.26 2.32.43.542.2 1.035.518 1.436.933.415.405.732.893.933 1.436.17.44.376 1.103.43 2.32.058 1.318.073 1.714.073 5.05 0 3.335-.015 3.726-.073 5.044z" transform="translate(-1169 -623) translate(1169 581) translate(0 42) translate(3 3)"/>
                        <path d="M12.5 6C8.912 6 6 8.911 6 12.5S8.912 19 12.5 19c3.589 0 6.5-2.911 6.5-6.5S16.089 6 12.5 6zm0 10.716c-2.328 0-4.216-1.888-4.216-4.216 0-2.328 1.888-4.216 4.216-4.216 2.328 0 4.216 1.888 4.216 4.216 0 2.328-1.888 4.216-4.216 4.216zM21 6.5c0 .828-.672 1.5-1.5 1.5S18 7.328 18 6.5c0-.829.672-1.5 1.5-1.5s1.5.671 1.5 1.5z" transform="translate(-1169 -623) translate(1169 581) translate(0 42) translate(3 3)"/>
                    </g>
                </g>
            </g>
        </g>
    </g>
</svg>
