<svg xmlns="http://www.w3.org/2000/svg" width="30" height="30" viewBox="0 0 30 30">
    <g fill="none" fill-rule="evenodd">
        <g fill="#585858" fill-rule="nonzero">
            <g>
                <g>
                    <g>
                        <path d="M11.548.005L8.67 0C5.436 0 3.347 2.318 3.347 5.906V8.63H.453c-.25 0-.453.219-.453.49v3.945c0 .27.203.49.453.49h2.894v9.956c0 .27.202.489.452.489h3.776c.25 0 .452-.22.452-.49v-9.956h3.384c.25 0 .453-.219.453-.489l.001-3.946c0-.13-.048-.254-.132-.346-.085-.092-.2-.143-.32-.143H8.026V6.32c0-1.11.245-1.673 1.582-1.673h1.939c.25 0 .452-.22.452-.49V.494c0-.27-.202-.489-.452-.489z" transform="translate(-1223 -623) translate(1169 581) translate(54 42) translate(9 3)"/>
                    </g>
                </g>
            </g>
        </g>
    </g>
</svg>
