<svg xmlns="http://www.w3.org/2000/svg" width="30" height="30" viewBox="0 0 30 30">
    <g fill="none" fill-rule="evenodd">
        <g fill="#585858" fill-rule="nonzero">
            <g>
                <g>
                    <g>
                        <path d="M29 2.841c-1.078.482-2.228.801-3.426.957 1.233-.75 2.174-1.928 2.616-3.348-1.15.698-2.418 1.191-3.77 1.466C23.329.733 21.774 0 20.077 0c-3.291 0-5.941 2.721-5.941 6.057 0 .48.04.942.137 1.381C9.331 7.193 4.957 4.78 2.02 1.104c-.513.906-.814 1.944-.814 3.06 0 2.098 1.06 3.957 2.641 5.034-.955-.019-1.892-.301-2.686-.746v.066c0 2.943 2.06 5.387 4.763 5.95-.484.135-1.011.2-1.559.2-.38 0-.764-.022-1.125-.104.77 2.398 2.956 4.162 5.555 4.219-2.023 1.611-4.59 2.583-7.371 2.583-.488 0-.955-.023-1.423-.084C2.634 23.012 5.755 24 9.12 24c10.94 0 16.922-9.23 16.922-17.232 0-.268-.01-.526-.022-.783 1.18-.853 2.172-1.918 2.98-3.144z" transform="translate(-1277 -623) translate(1169 581) translate(108 42) translate(1 3)"/>
                    </g>
                </g>
            </g>
        </g>
    </g>
</svg>
