<svg xmlns="http://www.w3.org/2000/svg" width="30" height="30" viewBox="0 0 30 30">
    <g fill="none" fill-rule="evenodd">
        <g fill="#F5C518" fill-rule="nonzero">
            <g>
                <g>
                    <path d="M18.077.838V.835C17.546.301 16.824 0 16.07 0H2.886C1.32.005.05 1.273.046 2.84v24.256c0 .753.301 1.476.835 2.007.531.534 1.252.834 2.005.835h13.187c.753-.001 1.474-.301 2.004-.835.534-.53.834-1.252.835-2.004V2.842c0-.752-.301-1.473-.835-2.004zM9.48 28.011c-.423 0-.767-.343-.767-.767 0-.423.344-.767.767-.767.424 0 .767.344.767.767 0 .424-.343.767-.767.767zm7.179-4.815c0 1.025-.831 1.856-1.856 1.856H4.154c-1.025 0-1.856-.831-1.856-1.856V5.119c0-1.025.83-1.856 1.856-1.856h10.651c1.025 0 1.856.83 1.856 1.856l-.003 18.077z" transform="translate(-1171 -511) translate(1171 511) translate(6)"/>
                </g>
            </g>
        </g>
    </g>
</svg>
