<svg xmlns="http://www.w3.org/2000/svg" width="22" height="22" viewBox="0 0 22 22">
    <g fill="none" fill-rule="evenodd">
        <g fill="#F5C518" fill-rule="nonzero">
            <g>
                <path d="M11.288 18.264c.619 0 1.245-.064 1.88-.192.635-.128 1.187-.315 1.656-.56l-.432-1.28c-.47.235-.973.41-1.512.528-.539.117-1.07.176-1.592.176-1.205 0-2.272-.253-3.2-.76-.928-.507-1.645-1.213-2.152-2.12-.507-.907-.76-1.947-.76-3.12 0-1.152.256-2.181.768-3.088s1.237-1.613 2.176-2.12c.939-.507 2.016-.76 3.232-.76 1.205 0 2.272.24 3.2.72.928.48 1.65 1.152 2.168 2.016.517.864.776 1.861.776 2.992 0 .939-.115 1.656-.344 2.152-.23.496-.563.744-1 .744-.245 0-.445-.085-.6-.256-.155-.17-.232-.448-.232-.832v-5.44h-1.776v1.04c-.31-.373-.69-.656-1.144-.848-.453-.192-.963-.288-1.528-.288-.725 0-1.381.173-1.968.52-.587.347-1.045.827-1.376 1.44-.33.613-.496 1.31-.496 2.088 0 .79.165 1.493.496 2.112.33.619.79 1.101 1.376 1.448.587.347 1.243.52 1.968.52 1.28 0 2.24-.464 2.88-1.392.139.448.384.792.736 1.032s.784.36 1.296.36c.96 0 1.712-.392 2.256-1.176.544-.784.816-1.87.816-3.256 0-1.344-.317-2.55-.952-3.616-.635-1.067-1.523-1.899-2.664-2.496-1.141-.597-2.437-.896-3.888-.896-1.504 0-2.835.315-3.992.944-1.157.63-2.056 1.496-2.696 2.6-.64 1.104-.96 2.35-.96 3.736 0 1.408.317 2.667.952 3.776.635 1.11 1.525 1.979 2.672 2.608 1.147.63 2.467.944 3.96.944zm-.08-4.72c-.704 0-1.275-.23-1.712-.688-.437-.459-.656-1.072-.656-1.84 0-.757.219-1.363.656-1.816.437-.453 1.008-.68 1.712-.68.693 0 1.261.224 1.704.672.443.448.664 1.056.664 1.824 0 .779-.221 1.395-.664 1.848-.443.453-1.01.68-1.704.68z" transform="translate(-390 -453) translate(390 453)"/>
            </g>
        </g>
    </g>
</svg>
