<svg xmlns="http://www.w3.org/2000/svg" width="30" height="30" viewBox="0 0 30 30">
    <g fill="none" fill-rule="evenodd">
        <g fill="#000">
            <g>
                <path d="M26.2 10.358c2.304 1.872 3.743 4.509 3.743 7.421 0 2.328-.918 4.562-2.602 6.369l2.327 2.327c.27.263.351.667.205 1.018-.146.35-.486.579-.866.579H17.78c-4.713 0-8.813-2.287-10.83-5.614h5.216c7.708 0 13.983-5.427 14.035-12.1zM12.165.002c6.708 0 12.164 4.614 12.164 10.292 0 5.59-5.287 10.148-11.85 10.289l-.314.003H.937c-.38 0-.72-.228-.865-.579-.13-.306-.08-.66.122-.923l.082-.094 2.328-2.328C.92 14.85.002 12.622.002 10.294.002 4.616 5.458.002 12.165.002zm1.872 11.228H6.55l-.108.006c-.464.054-.827.451-.827.93 0 .477.363.874.827.929l.108.006h7.486l.108-.006c.464-.055.827-.452.827-.93 0-.514-.42-.935-.935-.935zm3.742-3.743H6.551l-.108.006c-.464.055-.827.452-.827.93 0 .477.363.875.827.929l.108.006H17.78l.109-.006c.464-.054.827-.452.827-.93 0-.514-.421-.935-.936-.935z" transform="translate(-726 -345) translate(726 345)"/>
            </g>
        </g>
    </g>
</svg>
