<svg xmlns="http://www.w3.org/2000/svg" width="32" height="32" viewBox="0 0 22 22">
	<g fill="#FFF" fill-rule="nonzero" transform="translate(-4 -4)">
		<path d="M9.045 1.455c.677 0 1.228.55 1.228 1.227v.409h2.25c.564 0 1.022.459 1.022 1.023v1.431c0 .226-.183.41-.409.41h-.223l-.354 7.422c-.03.655-.57 1.168-1.225 1.168H5.12c-.656 0-1.195-.513-1.226-1.168l-.353-7.422h-.224c-.226 0-.409-.184-.409-.41V4.114c0-.564.459-1.023 1.023-1.023h2.25v-.41c0-.676.55-1.226 1.227-1.226zm3.049 4.5H4.36l.351 7.383c.01.218.19.39.409.39h6.213c.218 0 .398-.172.408-.39l.352-7.383zm-3.867.818c.226 0 .41.183.41.409V12.5c0 .226-.184.41-.41.41-.226 0-.409-.184-.409-.41V7.182c0-.226.183-.41.41-.41zm2.046 0c.226 0 .409.183.409.409V12.5c0 .226-.183.41-.41.41-.225 0-.408-.184-.408-.41V7.182c0-.226.183-.41.409-.41zm-4.091 0c.226 0 .409.183.409.409V12.5c0 .226-.183.41-.41.41-.225 0-.408-.184-.408-.41V7.182c0-.226.183-.41.409-.41zm6.34-2.864h-8.59c-.113 0-.205.092-.205.205v1.022h9V4.114c0-.113-.091-.205-.204-.205zM9.046 2.273H7.41c-.225 0-.409.183-.409.409v.409h2.455v-.41c0-.225-.184-.408-.41-.408z" transform="translate(7 7)" />
	</g>
</svg>
