<svg xmlns="http://www.w3.org/2000/svg" width="202" height="322" viewBox="0 0 202 322">
    <g fill="none" fill-rule="evenodd">
        <g fill="#111" stroke="#FFF">
            <g>
                <path d="M196 0c2.21 0 4 1.79 4 4v227.006c-.166-.004-.333-.006-.5-.006-10.77 0-19.5 8.73-19.5 19.5s8.73 19.5 19.5 19.5c.167 0 .334-.002.5-.006V316c0 2.21-1.79 4-4 4H4c-2.21 0-4-1.79-4-4v-46.006c10.539-.265 19-8.892 19-19.494s-8.461-19.229-19-19.494V4c0-2.21 1.79-4 4-4h192z" transform="translate(-846 -153) translate(847 154)"/>
            </g>
        </g>
    </g>
</svg>
